G75*
%MOIN*%
%OFA0B0*%
%FSLAX24Y24*%
%IPPOS*%
%LPD*%
%AMOC8*
5,1,8,0,0,1.08239X$1,22.5*
%
%ADD10C,0.0000*%
%ADD11C,0.0030*%
%ADD12C,0.0080*%
%ADD13C,0.0040*%
D10*
X000111Y000180D02*
X000111Y020456D01*
X012710Y020456D01*
X012710Y000180D01*
X000111Y000180D01*
D11*
X001726Y001868D02*
X001603Y001992D01*
X001726Y002115D01*
X001973Y002115D01*
X001973Y002237D02*
X001603Y002237D01*
X001603Y002483D01*
X001664Y002605D02*
X001603Y002667D01*
X001603Y002790D01*
X001664Y002852D01*
X001911Y002852D01*
X001973Y002790D01*
X001973Y002667D01*
X001911Y002605D01*
X001664Y002605D01*
X001664Y002973D02*
X001603Y003035D01*
X001603Y003158D01*
X001664Y003220D01*
X001788Y003220D01*
X001788Y003097D01*
X001911Y003220D02*
X001973Y003158D01*
X001973Y003035D01*
X001911Y002973D01*
X001664Y002973D01*
X001603Y003341D02*
X001603Y003465D01*
X001603Y003403D02*
X001973Y003403D01*
X001973Y003341D02*
X001973Y003465D01*
X001911Y003587D02*
X001664Y003587D01*
X001603Y003649D01*
X001603Y003772D01*
X001664Y003834D01*
X001911Y003834D02*
X001973Y003772D01*
X001973Y003649D01*
X001911Y003587D01*
X002587Y002852D02*
X002834Y002852D01*
X002957Y002728D01*
X002834Y002605D01*
X002587Y002605D01*
X002649Y002483D02*
X002896Y002483D01*
X002957Y002422D01*
X002957Y002237D01*
X002587Y002237D01*
X002587Y002422D01*
X002649Y002483D01*
X002772Y002605D02*
X002772Y002852D01*
X002710Y002115D02*
X002649Y002115D01*
X002587Y002053D01*
X002587Y001930D01*
X002649Y001868D01*
X002772Y001930D02*
X002772Y002053D01*
X002710Y002115D01*
X002896Y002115D02*
X002957Y002053D01*
X002957Y001930D01*
X002896Y001868D01*
X002834Y001868D01*
X002772Y001930D01*
X003571Y001930D02*
X003633Y001868D01*
X003571Y001930D02*
X003571Y002053D01*
X003633Y002115D01*
X003695Y002115D01*
X003756Y002053D01*
X003756Y001930D01*
X003818Y001868D01*
X003880Y001868D01*
X003941Y001930D01*
X003941Y002053D01*
X003880Y002115D01*
X003880Y002237D02*
X003633Y002237D01*
X003571Y002298D01*
X003571Y002422D01*
X003633Y002483D01*
X003571Y002605D02*
X003571Y002852D01*
X003571Y002605D02*
X003941Y002605D01*
X003880Y002483D02*
X003941Y002422D01*
X003941Y002298D01*
X003880Y002237D01*
X004654Y002237D02*
X005024Y002237D01*
X004654Y002483D01*
X005024Y002483D01*
X005024Y002605D02*
X005024Y002790D01*
X004962Y002852D01*
X004716Y002852D01*
X004654Y002790D01*
X004654Y002605D01*
X005024Y002605D01*
X004962Y002115D02*
X005024Y002053D01*
X005024Y001930D01*
X004962Y001868D01*
X004716Y001868D01*
X004654Y001930D01*
X004654Y002053D01*
X004716Y002115D01*
X004839Y002115D01*
X004839Y001992D01*
X005638Y002053D02*
X005638Y001930D01*
X005700Y001868D01*
X005823Y001868D02*
X005885Y001992D01*
X005885Y002053D01*
X005823Y002115D01*
X005700Y002115D01*
X005638Y002053D01*
X005762Y002237D02*
X005638Y002360D01*
X005762Y002483D01*
X006008Y002483D01*
X006008Y002237D02*
X005762Y002237D01*
X005823Y001868D02*
X006008Y001868D01*
X006008Y002115D01*
X006622Y002237D02*
X006622Y002422D01*
X006684Y002483D01*
X006746Y002483D01*
X006808Y002422D01*
X006808Y002237D01*
X006746Y002115D02*
X006993Y002115D01*
X006993Y002237D02*
X006993Y002422D01*
X006931Y002483D01*
X006869Y002483D01*
X006808Y002422D01*
X006622Y002605D02*
X006622Y002728D01*
X006622Y002667D02*
X006993Y002667D01*
X006993Y002728D02*
X006993Y002605D01*
X006869Y002850D02*
X006993Y002974D01*
X006869Y003097D01*
X006622Y003097D01*
X006684Y003219D02*
X006622Y003280D01*
X006622Y003404D01*
X006684Y003466D01*
X006746Y003466D01*
X006808Y003404D01*
X006808Y003280D01*
X006869Y003219D01*
X006931Y003219D01*
X006993Y003280D01*
X006993Y003404D01*
X006931Y003466D01*
X006808Y003097D02*
X006808Y002850D01*
X006869Y002850D02*
X006622Y002850D01*
X006622Y002237D02*
X006993Y002237D01*
X006993Y001868D02*
X006746Y001868D01*
X006622Y001992D01*
X006746Y002115D01*
X007099Y001817D02*
X007099Y001768D01*
X007292Y001768D01*
X007292Y001720D02*
X007292Y001817D01*
X007244Y001865D01*
X007147Y001865D01*
X007099Y001817D01*
X007147Y001671D02*
X007244Y001671D01*
X007292Y001720D01*
X007392Y001671D02*
X007489Y001671D01*
X007440Y001671D02*
X007440Y001962D01*
X007489Y001962D01*
X007590Y001865D02*
X007735Y001865D01*
X007783Y001817D01*
X007783Y001720D01*
X007735Y001671D01*
X007590Y001671D01*
X007883Y001671D02*
X007980Y001671D01*
X007931Y001671D02*
X007931Y001865D01*
X007980Y001865D01*
X008079Y001865D02*
X008176Y001865D01*
X008128Y001913D02*
X008128Y001720D01*
X008079Y001671D01*
X007931Y001962D02*
X007931Y002010D01*
X008277Y001865D02*
X008325Y001865D01*
X008422Y001768D01*
X008422Y001671D02*
X008422Y001865D01*
X008523Y001817D02*
X008523Y001671D01*
X008668Y001671D01*
X008716Y001720D01*
X008668Y001768D01*
X008523Y001768D01*
X008523Y001817D02*
X008571Y001865D01*
X008668Y001865D01*
X008817Y001817D02*
X008817Y001720D01*
X008866Y001671D01*
X009011Y001671D01*
X009011Y001575D02*
X009011Y001865D01*
X008866Y001865D01*
X008817Y001817D01*
X009013Y001371D02*
X008965Y001323D01*
X009158Y001129D01*
X009110Y001081D01*
X009013Y001081D01*
X008965Y001129D01*
X008965Y001323D01*
X009013Y001371D02*
X009110Y001371D01*
X009158Y001323D01*
X009158Y001129D01*
X009259Y001274D02*
X009356Y001081D01*
X009453Y001274D01*
X009554Y001226D02*
X009554Y001178D01*
X009748Y001178D01*
X009748Y001226D02*
X009699Y001274D01*
X009602Y001274D01*
X009554Y001226D01*
X009602Y001081D02*
X009699Y001081D01*
X009748Y001129D01*
X009748Y001226D01*
X009848Y001274D02*
X009896Y001274D01*
X009993Y001178D01*
X009993Y001274D02*
X009993Y001081D01*
X009945Y000684D02*
X009800Y000684D01*
X009848Y000587D02*
X009945Y000587D01*
X009993Y000635D01*
X009945Y000684D01*
X009848Y000587D02*
X009800Y000539D01*
X009848Y000490D01*
X009993Y000490D01*
X010094Y000490D02*
X010094Y000635D01*
X010143Y000684D01*
X010288Y000684D01*
X010288Y000490D01*
X010389Y000490D02*
X010389Y000635D01*
X010437Y000684D01*
X010534Y000684D01*
X010534Y000587D02*
X010389Y000587D01*
X010389Y000490D02*
X010534Y000490D01*
X010582Y000539D01*
X010534Y000587D01*
X010682Y000684D02*
X010682Y000442D01*
X010730Y000394D01*
X010779Y000394D01*
X010682Y000781D02*
X010682Y000829D01*
X010683Y001081D02*
X010634Y001129D01*
X010634Y001226D01*
X010683Y001274D01*
X010780Y001274D01*
X010828Y001226D01*
X010828Y001129D01*
X010780Y001081D01*
X010683Y001081D01*
X010533Y001081D02*
X010533Y001274D01*
X010533Y001178D02*
X010437Y001274D01*
X010388Y001274D01*
X010387Y001671D02*
X010290Y001671D01*
X010387Y001671D02*
X010435Y001720D01*
X010435Y001817D01*
X010387Y001865D01*
X010290Y001865D01*
X010242Y001817D01*
X010242Y001768D01*
X010435Y001768D01*
X010536Y001817D02*
X010536Y001671D01*
X010536Y001817D02*
X010585Y001865D01*
X010730Y001865D01*
X010730Y001671D01*
X010831Y001768D02*
X011024Y001768D01*
X011024Y001720D02*
X011024Y001817D01*
X010976Y001865D01*
X010879Y001865D01*
X010831Y001817D01*
X010831Y001768D01*
X010879Y001671D02*
X010976Y001671D01*
X011024Y001720D01*
X010976Y001323D02*
X010976Y001129D01*
X010928Y001081D01*
X010928Y001274D02*
X011024Y001274D01*
X011126Y001274D02*
X011271Y001274D01*
X011319Y001226D01*
X011319Y001129D01*
X011271Y001081D01*
X011126Y001081D01*
X011420Y001178D02*
X011614Y001178D01*
X011614Y001226D02*
X011565Y001274D01*
X011469Y001274D01*
X011420Y001226D01*
X011420Y001178D01*
X011469Y001081D02*
X011565Y001081D01*
X011614Y001129D01*
X011614Y001226D01*
X011713Y001274D02*
X011810Y001274D01*
X011762Y001323D02*
X011762Y001129D01*
X011713Y001081D01*
X011911Y001178D02*
X012105Y001178D01*
X012105Y001226D02*
X012056Y001274D01*
X011960Y001274D01*
X011911Y001226D01*
X011911Y001178D01*
X011960Y001081D02*
X012056Y001081D01*
X012105Y001129D01*
X012105Y001226D01*
X012206Y001274D02*
X012351Y001274D01*
X012399Y001226D01*
X012399Y001129D01*
X012351Y001081D01*
X012206Y001081D01*
X012206Y001371D01*
X012206Y001671D02*
X012206Y001817D01*
X012254Y001865D01*
X012351Y001865D01*
X012399Y001817D01*
X012399Y001962D02*
X012399Y001671D01*
X012105Y001671D02*
X012008Y001671D01*
X012056Y001671D02*
X012056Y001865D01*
X012105Y001865D01*
X012056Y001962D02*
X012056Y002010D01*
X011908Y001817D02*
X011908Y001720D01*
X011860Y001671D01*
X011715Y001671D01*
X011715Y001623D02*
X011715Y001865D01*
X011860Y001865D01*
X011908Y001817D01*
X011812Y001575D02*
X011763Y001575D01*
X011715Y001623D01*
X011614Y001671D02*
X011614Y001962D01*
X011565Y001865D02*
X011614Y001817D01*
X011565Y001865D02*
X011469Y001865D01*
X011420Y001817D01*
X011420Y001671D01*
X011469Y000684D02*
X011420Y000635D01*
X011420Y000587D01*
X011614Y000587D01*
X011614Y000539D02*
X011614Y000635D01*
X011565Y000684D01*
X011469Y000684D01*
X011319Y000684D02*
X011319Y000490D01*
X011319Y000587D02*
X011222Y000684D01*
X011174Y000684D01*
X011469Y000490D02*
X011565Y000490D01*
X011614Y000539D01*
X011713Y000490D02*
X011762Y000539D01*
X011762Y000732D01*
X011810Y000684D02*
X011713Y000684D01*
X011911Y000635D02*
X011911Y000587D01*
X012105Y000587D01*
X012105Y000539D02*
X012105Y000635D01*
X012056Y000684D01*
X011960Y000684D01*
X011911Y000635D01*
X011960Y000490D02*
X012056Y000490D01*
X012105Y000539D01*
X012206Y000539D02*
X012206Y000635D01*
X012254Y000684D01*
X012399Y000684D01*
X012399Y000394D01*
X012399Y000490D02*
X012254Y000490D01*
X012206Y000539D01*
X010140Y001671D02*
X010140Y001865D01*
X010044Y001865D02*
X010140Y001768D01*
X010044Y001865D02*
X009995Y001865D01*
X009895Y001817D02*
X009895Y001720D01*
X009847Y001671D01*
X009701Y001671D01*
X009701Y001623D02*
X009701Y001865D01*
X009847Y001865D01*
X009895Y001817D01*
X009798Y001575D02*
X009750Y001575D01*
X009701Y001623D01*
X009600Y001720D02*
X009552Y001671D01*
X009407Y001671D01*
X009407Y001623D02*
X009455Y001575D01*
X009504Y001575D01*
X009407Y001623D02*
X009407Y001865D01*
X009600Y001865D02*
X009600Y001720D01*
X009553Y000684D02*
X009505Y000635D01*
X009505Y000587D01*
X009698Y000587D01*
X009698Y000539D02*
X009698Y000635D01*
X009650Y000684D01*
X009553Y000684D01*
X009553Y000490D02*
X009650Y000490D01*
X009698Y000539D01*
X009404Y000490D02*
X009404Y000684D01*
X009259Y000684D01*
X009210Y000635D01*
X009210Y000490D01*
X008815Y000539D02*
X008766Y000587D01*
X008621Y000587D01*
X008621Y000635D02*
X008621Y000490D01*
X008766Y000490D01*
X008815Y000539D01*
X008766Y000684D02*
X008669Y000684D01*
X008621Y000635D01*
X008520Y000684D02*
X008375Y000684D01*
X008326Y000635D01*
X008326Y000539D01*
X008375Y000490D01*
X008520Y000490D01*
X008520Y000394D02*
X008520Y000684D01*
X008225Y000684D02*
X008225Y000490D01*
X008225Y000587D02*
X008128Y000684D01*
X008080Y000684D01*
X007980Y000490D02*
X007786Y000781D01*
X007685Y000732D02*
X007637Y000781D01*
X007540Y000781D01*
X007492Y000732D01*
X007492Y000684D01*
X007685Y000490D01*
X007492Y000490D01*
X007390Y000539D02*
X007390Y000732D01*
X007342Y000781D01*
X007245Y000781D01*
X007197Y000732D01*
X007390Y000539D01*
X007342Y000490D01*
X007245Y000490D01*
X007197Y000539D01*
X007197Y000732D01*
X007096Y000684D02*
X006999Y000781D01*
X006999Y000490D01*
X007096Y000490D02*
X006902Y000490D01*
X006801Y000539D02*
X006753Y000490D01*
X006656Y000490D01*
X006608Y000539D01*
X006608Y000635D01*
X006656Y000684D01*
X006704Y000684D01*
X006801Y000635D01*
X006801Y000781D01*
X006608Y000781D01*
X001973Y001868D02*
X001726Y001868D01*
D12*
X003601Y004798D02*
X003351Y005048D01*
X003351Y005548D01*
X003601Y005798D01*
X004101Y005798D01*
X004351Y005548D01*
X004351Y005048D01*
X004101Y004798D01*
X003601Y004798D01*
X006698Y005048D02*
X006698Y005548D01*
X006948Y005798D01*
X007448Y005798D01*
X007698Y005548D01*
X007698Y005048D01*
X007448Y004798D01*
X006948Y004798D01*
X006698Y005048D01*
D13*
X006554Y006038D02*
X006554Y006499D01*
X006401Y006499D02*
X006708Y006499D01*
X006248Y006499D02*
X006248Y006038D01*
X006248Y006192D02*
X006017Y006192D01*
X005941Y006268D01*
X005941Y006422D01*
X006017Y006499D01*
X006248Y006499D01*
X005787Y006422D02*
X005710Y006499D01*
X005557Y006499D01*
X005480Y006422D01*
X005480Y006345D01*
X005787Y006038D01*
X005480Y006038D01*
X003361Y006499D02*
X003055Y006499D01*
X003208Y006499D02*
X003208Y006038D01*
X002901Y006038D02*
X002901Y006499D01*
X002671Y006499D01*
X002594Y006422D01*
X002594Y006268D01*
X002671Y006192D01*
X002901Y006192D01*
X002441Y006345D02*
X002287Y006499D01*
X002287Y006038D01*
X002134Y006038D02*
X002441Y006038D01*
M02*
