%
M48
M72
T01C0.0130
T02C0.0400
T03C0.0433
%
T01
X702Y5101
X2474Y5101
X3113Y3920
X5525Y5200
X6017Y5495
X5820Y8251
X6411Y8251
X7001Y8251
X7592Y8251
X8182Y8251
X8773Y8251
X8773Y7463
X9363Y7463
X9363Y8251
X9954Y8251
X10544Y8251
X11135Y8251
X11725Y8251
X12119Y9629
X10938Y13369
X11725Y14747
X8035Y11056
X7099Y12680
X7099Y13861
X4836Y16125
X3753Y14747
X3261Y13271
X4442Y12641
X3261Y11056
X3950Y10515
X4442Y10023
X4639Y8251
X4048Y8251
X3458Y8251
X2867Y8251
X2572Y8841
X2277Y8251
X1686Y8251
X1096Y8251
X800Y8841
X505Y8251
X800Y11597
X800Y12680
X800Y17700
X1981Y17700
X1686Y19767
X997Y19767
X4786Y20062
X5722Y19570
X6460Y10072
X5229Y8251
T02
X1785Y1017
X2785Y917
X3785Y1017
X4785Y917
X5785Y1017
X6785Y917
X7198Y5298
X3851Y5298
T03
X11282Y5708
X11382Y6708
X11382Y4708
X11282Y3708
X11382Y2708
M30
