G75*
%MOIN*%
%OFA0B0*%
%FSLAX24Y24*%
%IPPOS*%
%LPD*%
%AMOC8*
5,1,8,0,0,1.08239X$1,22.5*
%
%ADD10C,0.0700*%
%ADD11C,0.0760*%
%ADD12C,0.0740*%
%ADD13C,0.0290*%
%ADD14C,0.0120*%
%ADD15C,0.0160*%
%ADD16C,0.0100*%
D10*
X001785Y001017D03*
X002785Y000917D03*
X003785Y001017D03*
X004785Y000917D03*
X005785Y001017D03*
X006785Y000917D03*
D11*
X011282Y003708D03*
X011382Y002708D03*
X011382Y004708D03*
X011282Y005708D03*
X011382Y006708D03*
D12*
X007198Y005298D03*
X003851Y005298D03*
D13*
X003113Y003920D03*
X002474Y005101D03*
X000702Y005101D03*
X000505Y008251D03*
X000800Y008841D03*
X001096Y008251D03*
X001686Y008251D03*
X002277Y008251D03*
X002572Y008841D03*
X002867Y008251D03*
X003458Y008251D03*
X004048Y008251D03*
X004639Y008251D03*
X005229Y008251D03*
X005820Y008251D03*
X006411Y008251D03*
X007001Y008251D03*
X007592Y008251D03*
X008182Y008251D03*
X008773Y008251D03*
X008773Y007463D03*
X009363Y007463D03*
X009363Y008251D03*
X009954Y008251D03*
X010544Y008251D03*
X011135Y008251D03*
X011725Y008251D03*
X012119Y009629D03*
X010938Y013369D03*
X011725Y014747D03*
X008035Y011056D03*
X007099Y012680D03*
X007099Y013861D03*
X004836Y016125D03*
X003753Y014747D03*
X003261Y013271D03*
X004442Y012641D03*
X003261Y011056D03*
X003950Y010515D03*
X004442Y010023D03*
X006460Y010072D03*
X006017Y005495D03*
X005525Y005200D03*
X000800Y011597D03*
X000800Y012680D03*
X000800Y017700D03*
X001981Y017700D03*
X001686Y019767D03*
X000997Y019767D03*
X004786Y020062D03*
X005722Y019570D03*
D14*
X000271Y007660D02*
X000271Y000340D01*
X012550Y000340D01*
X012550Y000845D01*
X012488Y000783D01*
X012488Y000783D01*
X012280Y000697D01*
X007224Y000697D01*
X007200Y000640D01*
X007062Y000502D01*
X006882Y000427D01*
X006687Y000427D01*
X006507Y000502D01*
X006369Y000640D01*
X006295Y000820D01*
X006295Y001015D01*
X006369Y001195D01*
X006507Y001333D01*
X006687Y001407D01*
X006882Y001407D01*
X007062Y001333D01*
X007200Y001195D01*
X007224Y001137D01*
X012168Y001137D01*
X012192Y001140D01*
X012237Y001159D01*
X012272Y001193D01*
X012290Y001238D01*
X012290Y001238D01*
X012293Y001263D01*
X012293Y001816D01*
X012246Y001702D01*
X012246Y001702D01*
X012073Y001530D01*
X012073Y001530D01*
X011848Y001436D01*
X006115Y001436D01*
X006094Y001434D01*
X006070Y001425D01*
X006200Y001295D01*
X006275Y001115D01*
X006275Y000920D01*
X006200Y000740D01*
X006062Y000602D01*
X005882Y000527D01*
X005687Y000527D01*
X005507Y000602D01*
X005369Y000740D01*
X005295Y000920D01*
X005295Y001115D01*
X005369Y001295D01*
X005507Y001433D01*
X005575Y001461D01*
X005648Y001638D01*
X005648Y001638D01*
X005803Y001793D01*
X005803Y001793D01*
X006006Y001876D01*
X011725Y001876D01*
X011759Y001880D01*
X011822Y001906D01*
X011870Y001954D01*
X011896Y002016D01*
X011899Y002050D01*
X011899Y002598D01*
X011823Y002413D01*
X011676Y002267D01*
X011485Y002188D01*
X011278Y002188D01*
X011087Y002267D01*
X010941Y002413D01*
X010862Y002604D01*
X010862Y002811D01*
X010941Y003002D01*
X011087Y003148D01*
X011182Y003188D01*
X011178Y003188D01*
X010987Y003267D01*
X010841Y003413D01*
X010762Y003604D01*
X010762Y003811D01*
X010841Y004002D01*
X010987Y004148D01*
X011154Y004218D01*
X011099Y004246D01*
X011030Y004296D01*
X010970Y004356D01*
X010920Y004425D01*
X010881Y004500D01*
X010855Y004581D01*
X010843Y004659D01*
X011333Y004659D01*
X011333Y004756D01*
X010843Y004756D01*
X010855Y004834D01*
X010881Y004915D01*
X010920Y004991D01*
X010970Y005059D01*
X011030Y005119D01*
X011099Y005169D01*
X011154Y005198D01*
X010987Y005267D01*
X010841Y005413D01*
X010762Y005604D01*
X010762Y005811D01*
X010841Y006002D01*
X010987Y006148D01*
X011178Y006228D01*
X011182Y006228D01*
X011087Y006267D01*
X010941Y006413D01*
X010862Y006604D01*
X010862Y006811D01*
X010941Y007002D01*
X011087Y007148D01*
X011278Y007228D01*
X011485Y007228D01*
X011676Y007148D01*
X011823Y007002D01*
X011899Y006817D01*
X011899Y007660D01*
X000271Y007660D01*
X000271Y007619D02*
X011899Y007619D01*
X011899Y007501D02*
X000271Y007501D01*
X000271Y007382D02*
X011899Y007382D01*
X011899Y007264D02*
X000271Y007264D01*
X000271Y007145D02*
X011084Y007145D01*
X010965Y007027D02*
X000271Y007027D01*
X000271Y006908D02*
X010902Y006908D01*
X010862Y006790D02*
X000271Y006790D01*
X000271Y006671D02*
X010862Y006671D01*
X010883Y006553D02*
X000271Y006553D01*
X000271Y006434D02*
X010932Y006434D01*
X011038Y006316D02*
X000271Y006316D01*
X000271Y006197D02*
X011105Y006197D01*
X010917Y006079D02*
X000271Y006079D01*
X000271Y005960D02*
X010823Y005960D01*
X010774Y005842D02*
X000271Y005842D01*
X000271Y005723D02*
X003555Y005723D01*
X003563Y005730D02*
X003419Y005587D01*
X003341Y005400D01*
X003341Y005197D01*
X003419Y005009D01*
X003563Y004866D01*
X003750Y004788D01*
X003953Y004788D01*
X004140Y004866D01*
X004284Y005009D01*
X004361Y005197D01*
X004361Y005400D01*
X004284Y005587D01*
X004140Y005730D01*
X003953Y005808D01*
X003750Y005808D01*
X003563Y005730D01*
X003437Y005605D02*
X000271Y005605D01*
X000271Y005486D02*
X003377Y005486D01*
X003341Y005368D02*
X000271Y005368D01*
X000271Y005249D02*
X003341Y005249D01*
X003369Y005131D02*
X000271Y005131D01*
X000271Y005012D02*
X003418Y005012D01*
X003535Y004894D02*
X000271Y004894D01*
X000271Y004775D02*
X005309Y004775D01*
X005325Y004790D02*
X002702Y002167D01*
X002585Y002050D01*
X002585Y001365D01*
X002507Y001333D01*
X002369Y001195D01*
X002295Y001015D01*
X002295Y000820D01*
X002369Y000640D01*
X002507Y000502D01*
X002687Y000427D01*
X002882Y000427D01*
X003062Y000502D01*
X003200Y000640D01*
X003275Y000820D01*
X003275Y001015D01*
X003200Y001195D01*
X003062Y001333D01*
X002985Y001365D01*
X002985Y001885D01*
X005725Y004625D01*
X005725Y004997D01*
X005766Y005038D01*
X005810Y005143D01*
X005810Y005256D01*
X005780Y005329D01*
X005817Y005292D01*
X005817Y004692D01*
X003702Y002577D01*
X003585Y002460D01*
X003585Y001465D01*
X003507Y001433D01*
X003369Y001295D01*
X003295Y001115D01*
X003295Y000920D01*
X003369Y000740D01*
X003507Y000602D01*
X003687Y000527D01*
X003882Y000527D01*
X004062Y000602D01*
X004200Y000740D01*
X004275Y000920D01*
X004275Y001115D01*
X004200Y001295D01*
X004062Y001433D01*
X003985Y001465D01*
X003985Y002294D01*
X006217Y004526D01*
X006217Y005292D01*
X006258Y005334D01*
X006302Y005438D01*
X006302Y005552D01*
X006258Y005656D01*
X006178Y005737D01*
X006074Y005780D01*
X005960Y005780D01*
X005855Y005737D01*
X005775Y005656D01*
X005732Y005552D01*
X005732Y005438D01*
X005762Y005365D01*
X005686Y005441D01*
X005581Y005485D01*
X005468Y005485D01*
X005363Y005441D01*
X005283Y005361D01*
X005240Y005256D01*
X005240Y005143D01*
X005283Y005038D01*
X005325Y004997D01*
X005325Y004790D01*
X005325Y004894D02*
X004168Y004894D01*
X004285Y005012D02*
X005309Y005012D01*
X005245Y005131D02*
X004334Y005131D01*
X004361Y005249D02*
X005240Y005249D01*
X005289Y005368D02*
X004361Y005368D01*
X004326Y005486D02*
X005732Y005486D01*
X005754Y005605D02*
X004266Y005605D01*
X004148Y005723D02*
X005842Y005723D01*
X006017Y005495D02*
X006017Y004609D01*
X003785Y002377D01*
X003785Y001017D01*
X004088Y000628D02*
X004365Y000628D01*
X004348Y000650D02*
X004396Y000585D01*
X004452Y000528D01*
X004517Y000481D01*
X004589Y000445D01*
X004665Y000420D01*
X004744Y000407D01*
X004745Y000407D01*
X004745Y000877D01*
X004825Y000877D01*
X004825Y000957D01*
X005295Y000957D01*
X005295Y000958D01*
X005282Y001037D01*
X005257Y001113D01*
X005221Y001185D01*
X005174Y001250D01*
X005117Y001306D01*
X005052Y001354D01*
X004980Y001390D01*
X004904Y001415D01*
X004825Y001427D01*
X004825Y001427D01*
X004825Y000957D01*
X004745Y000957D01*
X004745Y000877D01*
X004275Y000877D01*
X004287Y000798D01*
X004312Y000722D01*
X004348Y000650D01*
X004304Y000746D02*
X004202Y000746D01*
X004252Y000865D02*
X004277Y000865D01*
X004275Y000877D02*
X004275Y000877D01*
X004275Y000957D02*
X004745Y000957D01*
X004745Y001427D01*
X004744Y001427D01*
X004665Y001415D01*
X004589Y001390D01*
X004517Y001354D01*
X004452Y001306D01*
X004396Y001250D01*
X004348Y001185D01*
X004312Y001113D01*
X004287Y001037D01*
X004275Y000958D01*
X004275Y000957D01*
X004275Y000983D02*
X004279Y000983D01*
X004275Y001102D02*
X004308Y001102D01*
X004374Y001220D02*
X004231Y001220D01*
X004156Y001339D02*
X004496Y001339D01*
X004745Y001339D02*
X004825Y001339D01*
X004825Y001220D02*
X004745Y001220D01*
X004745Y001102D02*
X004825Y001102D01*
X004825Y000983D02*
X004745Y000983D01*
X004745Y000865D02*
X004825Y000865D01*
X004825Y000877D02*
X004825Y000407D01*
X004904Y000420D01*
X004980Y000445D01*
X005052Y000481D01*
X005117Y000528D01*
X005174Y000585D01*
X005221Y000650D01*
X005257Y000722D01*
X005282Y000798D01*
X005295Y000877D01*
X005295Y000877D01*
X004825Y000877D01*
X004825Y000746D02*
X004745Y000746D01*
X004745Y000628D02*
X004825Y000628D01*
X004825Y000509D02*
X004745Y000509D01*
X004825Y000407D02*
X004825Y000407D01*
X005090Y000509D02*
X006500Y000509D01*
X006381Y000628D02*
X006088Y000628D01*
X006202Y000746D02*
X006325Y000746D01*
X006295Y000865D02*
X006252Y000865D01*
X006275Y000983D02*
X006295Y000983D01*
X006275Y001102D02*
X006330Y001102D01*
X006394Y001220D02*
X006231Y001220D01*
X006156Y001339D02*
X006521Y001339D01*
X007048Y001339D02*
X012293Y001339D01*
X012293Y001457D02*
X011897Y001457D01*
X012119Y001576D02*
X012293Y001576D01*
X012293Y001694D02*
X012237Y001694D01*
X012291Y001813D02*
X012293Y001813D01*
X011899Y002050D02*
X003985Y002050D01*
X003985Y002168D02*
X011899Y002168D01*
X011899Y002287D02*
X011696Y002287D01*
X011815Y002405D02*
X011899Y002405D01*
X011899Y002524D02*
X011868Y002524D01*
X011847Y001931D02*
X003985Y001931D01*
X003985Y001813D02*
X005851Y001813D01*
X005705Y001694D02*
X003985Y001694D01*
X003985Y001576D02*
X005623Y001576D01*
X005565Y001457D02*
X004004Y001457D01*
X003585Y001576D02*
X002985Y001576D01*
X002985Y001694D02*
X003585Y001694D01*
X003585Y001813D02*
X002985Y001813D01*
X003031Y001931D02*
X003585Y001931D01*
X003585Y002050D02*
X003149Y002050D01*
X003268Y002168D02*
X003585Y002168D01*
X003585Y002287D02*
X003386Y002287D01*
X003505Y002405D02*
X003585Y002405D01*
X003623Y002524D02*
X003648Y002524D01*
X003742Y002642D02*
X003767Y002642D01*
X003860Y002761D02*
X003885Y002761D01*
X003979Y002879D02*
X004004Y002879D01*
X004097Y002998D02*
X004122Y002998D01*
X004216Y003116D02*
X004241Y003116D01*
X004334Y003235D02*
X004359Y003235D01*
X004453Y003353D02*
X004478Y003353D01*
X004571Y003472D02*
X004596Y003472D01*
X004690Y003590D02*
X004715Y003590D01*
X004808Y003709D02*
X004833Y003709D01*
X004927Y003827D02*
X004952Y003827D01*
X005045Y003946D02*
X005070Y003946D01*
X005164Y004064D02*
X005189Y004064D01*
X005282Y004183D02*
X005307Y004183D01*
X005401Y004301D02*
X005426Y004301D01*
X005519Y004420D02*
X005544Y004420D01*
X005638Y004538D02*
X005663Y004538D01*
X005725Y004657D02*
X005781Y004657D01*
X005817Y004775D02*
X005725Y004775D01*
X005725Y004894D02*
X005817Y004894D01*
X005817Y005012D02*
X005740Y005012D01*
X005805Y005131D02*
X005817Y005131D01*
X005810Y005249D02*
X005817Y005249D01*
X005760Y005368D02*
X005761Y005368D01*
X005525Y005200D02*
X005525Y004708D01*
X002785Y001967D01*
X002785Y000917D01*
X003048Y001339D02*
X003413Y001339D01*
X003338Y001220D02*
X003175Y001220D01*
X003239Y001102D02*
X003295Y001102D01*
X003295Y000983D02*
X003275Y000983D01*
X003275Y000865D02*
X003317Y000865D01*
X003367Y000746D02*
X003244Y000746D01*
X003188Y000628D02*
X003481Y000628D01*
X003069Y000509D02*
X004479Y000509D01*
X005073Y001339D02*
X005413Y001339D01*
X005338Y001220D02*
X005195Y001220D01*
X005261Y001102D02*
X005295Y001102D01*
X005290Y000983D02*
X005295Y000983D01*
X005293Y000865D02*
X005317Y000865D01*
X005265Y000746D02*
X005367Y000746D01*
X005481Y000628D02*
X005204Y000628D01*
X004096Y002405D02*
X010949Y002405D01*
X010895Y002524D02*
X004214Y002524D01*
X004333Y002642D02*
X010862Y002642D01*
X010862Y002761D02*
X004451Y002761D01*
X004570Y002879D02*
X010890Y002879D01*
X010939Y002998D02*
X004688Y002998D01*
X004807Y003116D02*
X011055Y003116D01*
X011065Y003235D02*
X004925Y003235D01*
X005044Y003353D02*
X010901Y003353D01*
X010817Y003472D02*
X005162Y003472D01*
X005281Y003590D02*
X010768Y003590D01*
X010762Y003709D02*
X005399Y003709D01*
X005518Y003827D02*
X010768Y003827D01*
X010817Y003946D02*
X005636Y003946D01*
X005755Y004064D02*
X010903Y004064D01*
X011070Y004183D02*
X005873Y004183D01*
X005992Y004301D02*
X011025Y004301D01*
X010924Y004420D02*
X006110Y004420D01*
X006217Y004538D02*
X010869Y004538D01*
X010843Y004657D02*
X006217Y004657D01*
X006217Y004775D02*
X010846Y004775D01*
X010874Y004894D02*
X007515Y004894D01*
X007487Y004866D02*
X007630Y005009D01*
X007708Y005197D01*
X007708Y005400D01*
X007630Y005587D01*
X007487Y005730D01*
X007299Y005808D01*
X007096Y005808D01*
X006909Y005730D01*
X006766Y005587D01*
X006688Y005400D01*
X006688Y005197D01*
X006766Y005009D01*
X006909Y004866D01*
X007096Y004788D01*
X007299Y004788D01*
X007487Y004866D01*
X007631Y005012D02*
X010935Y005012D01*
X011045Y005131D02*
X007681Y005131D01*
X007708Y005249D02*
X011030Y005249D01*
X010886Y005368D02*
X007708Y005368D01*
X007672Y005486D02*
X010811Y005486D01*
X010762Y005605D02*
X007613Y005605D01*
X007494Y005723D02*
X010762Y005723D01*
X011680Y007145D02*
X011899Y007145D01*
X011899Y007027D02*
X011798Y007027D01*
X011862Y006908D02*
X011899Y006908D01*
X011899Y007956D02*
X000271Y007956D01*
X000271Y020296D01*
X004617Y020296D01*
X004545Y020223D01*
X004501Y020119D01*
X004501Y020005D01*
X004545Y019900D01*
X004625Y019820D01*
X004730Y019777D01*
X004843Y019777D01*
X004948Y019820D01*
X004970Y019842D01*
X012218Y019842D01*
X012232Y019840D01*
X012259Y019829D01*
X012280Y019808D01*
X012291Y019781D01*
X012293Y019767D01*
X012293Y014587D01*
X012246Y014701D01*
X012073Y014873D01*
X011952Y014924D01*
X011887Y014989D01*
X011782Y015032D01*
X011669Y015032D01*
X011564Y014989D01*
X011484Y014908D01*
X011440Y014804D01*
X011440Y014690D01*
X011484Y014585D01*
X011564Y014505D01*
X011669Y014462D01*
X011782Y014462D01*
X011836Y014484D01*
X011870Y014450D01*
X011896Y014387D01*
X011899Y014353D01*
X011899Y009812D01*
X011878Y009790D01*
X011834Y009686D01*
X011834Y009572D01*
X011878Y009467D01*
X011899Y009446D01*
X011899Y007956D01*
X011899Y007975D02*
X000271Y007975D01*
X000271Y008093D02*
X011899Y008093D01*
X011899Y008212D02*
X000271Y008212D01*
X000271Y008330D02*
X011899Y008330D01*
X011899Y008449D02*
X000271Y008449D01*
X000271Y008567D02*
X000718Y008567D01*
X000744Y008556D02*
X000857Y008556D01*
X000962Y008600D01*
X001013Y008651D01*
X002359Y008651D01*
X002410Y008600D01*
X002515Y008556D01*
X002629Y008556D01*
X002733Y008600D01*
X002814Y008680D01*
X002857Y008785D01*
X002857Y008898D01*
X002814Y009003D01*
X002733Y009083D01*
X002629Y009126D01*
X002515Y009126D01*
X002410Y009083D01*
X002359Y009031D01*
X001013Y009031D01*
X000962Y009083D01*
X000857Y009126D01*
X000744Y009126D01*
X000639Y009083D01*
X000559Y009003D01*
X000515Y008898D01*
X000515Y008785D01*
X000559Y008680D01*
X000639Y008600D01*
X000744Y008556D01*
X000883Y008567D02*
X002490Y008567D01*
X002654Y008567D02*
X011899Y008567D01*
X011899Y008686D02*
X002816Y008686D01*
X002857Y008804D02*
X011899Y008804D01*
X011899Y008923D02*
X002847Y008923D01*
X002775Y009041D02*
X011899Y009041D01*
X011899Y009160D02*
X000271Y009160D01*
X000271Y009278D02*
X011899Y009278D01*
X011899Y009397D02*
X000271Y009397D01*
X000271Y009515D02*
X011858Y009515D01*
X011834Y009634D02*
X000271Y009634D01*
X000271Y009752D02*
X004350Y009752D01*
X004385Y009738D02*
X004281Y009781D01*
X004200Y009861D01*
X004157Y009966D01*
X004157Y010079D01*
X004200Y010184D01*
X004281Y010264D01*
X004385Y010308D01*
X004499Y010308D01*
X004603Y010264D01*
X004645Y010223D01*
X006214Y010223D01*
X006218Y010233D01*
X006298Y010313D01*
X006403Y010357D01*
X006516Y010357D01*
X006621Y010313D01*
X006701Y010233D01*
X006745Y010128D01*
X006745Y010015D01*
X006701Y009910D01*
X006621Y009830D01*
X006516Y009787D01*
X006403Y009787D01*
X006317Y009823D01*
X004645Y009823D01*
X004603Y009781D01*
X004499Y009738D01*
X004385Y009738D01*
X004534Y009752D02*
X011862Y009752D01*
X011899Y009871D02*
X006662Y009871D01*
X006734Y009989D02*
X011899Y009989D01*
X011899Y010108D02*
X006745Y010108D01*
X006704Y010226D02*
X011899Y010226D01*
X011899Y010345D02*
X006546Y010345D01*
X006374Y010345D02*
X004183Y010345D01*
X004191Y010353D02*
X004235Y010458D01*
X004235Y010571D01*
X004191Y010676D01*
X004111Y010756D01*
X004007Y010800D01*
X003893Y010800D01*
X003788Y010756D01*
X003747Y010715D01*
X003064Y010715D01*
X003045Y010716D01*
X003011Y010731D01*
X002985Y010757D01*
X002971Y010791D01*
X002969Y010810D01*
X002969Y011302D01*
X002971Y011321D01*
X002985Y011355D01*
X003011Y011381D01*
X003045Y011395D01*
X003064Y011397D01*
X004245Y011397D01*
X004427Y011473D01*
X004427Y011473D01*
X004567Y011612D01*
X004642Y011794D01*
X004642Y012438D01*
X004684Y012479D01*
X004727Y012584D01*
X004727Y012697D01*
X004684Y012802D01*
X004603Y012882D01*
X004499Y012926D01*
X004385Y012926D01*
X004281Y012882D01*
X004200Y012802D01*
X004157Y012697D01*
X004157Y012584D01*
X004200Y012479D01*
X004242Y012438D01*
X004242Y011893D01*
X004240Y011874D01*
X004226Y011840D01*
X004200Y011813D01*
X004165Y011799D01*
X004147Y011797D01*
X003147Y011797D01*
X002966Y011797D01*
X002784Y011722D01*
X002644Y011583D01*
X002569Y011401D01*
X002569Y010711D01*
X002644Y010529D01*
X002784Y010390D01*
X002966Y010315D01*
X003747Y010315D01*
X003788Y010273D01*
X003893Y010230D01*
X004007Y010230D01*
X004111Y010273D01*
X004191Y010353D01*
X004235Y010463D02*
X011899Y010463D01*
X011899Y010582D02*
X004231Y010582D01*
X004168Y010700D02*
X011899Y010700D01*
X011899Y010819D02*
X008200Y010819D01*
X008196Y010814D02*
X008276Y010895D01*
X008320Y010999D01*
X008320Y011113D01*
X008276Y011217D01*
X008196Y011298D01*
X008091Y011341D01*
X007978Y011341D01*
X007873Y011298D01*
X007831Y011256D01*
X003464Y011256D01*
X003422Y011298D01*
X003318Y011341D01*
X003204Y011341D01*
X003099Y011298D01*
X003019Y011217D01*
X002976Y011113D01*
X002976Y010999D01*
X003019Y010895D01*
X003099Y010814D01*
X003204Y010771D01*
X003318Y010771D01*
X003422Y010814D01*
X003464Y010856D01*
X007831Y010856D01*
X007873Y010814D01*
X007978Y010771D01*
X008091Y010771D01*
X008196Y010814D01*
X008294Y010937D02*
X011899Y010937D01*
X011899Y011056D02*
X008320Y011056D01*
X008294Y011174D02*
X011899Y011174D01*
X011899Y011293D02*
X008201Y011293D01*
X008035Y011056D02*
X003261Y011056D01*
X003427Y011293D02*
X007868Y011293D01*
X007869Y010819D02*
X003426Y010819D01*
X003095Y010819D02*
X002969Y010819D01*
X002769Y010810D02*
X002771Y010777D01*
X002776Y010744D01*
X002786Y010713D01*
X002798Y010682D01*
X002814Y010653D01*
X002833Y010626D01*
X002855Y010601D01*
X002880Y010579D01*
X002907Y010560D01*
X002936Y010544D01*
X002967Y010532D01*
X002998Y010522D01*
X003031Y010517D01*
X003064Y010515D01*
X003950Y010515D01*
X004242Y010226D02*
X000271Y010226D01*
X000271Y010108D02*
X004169Y010108D01*
X004157Y009989D02*
X000271Y009989D01*
X000271Y009871D02*
X004196Y009871D01*
X004442Y010023D02*
X006411Y010023D01*
X006460Y010072D01*
X006215Y010226D02*
X004642Y010226D01*
X004278Y011411D02*
X011899Y011411D01*
X011899Y011530D02*
X004484Y011530D01*
X004567Y011612D02*
X004567Y011612D01*
X004582Y011648D02*
X011899Y011648D01*
X011899Y011767D02*
X004631Y011767D01*
X004642Y011885D02*
X011899Y011885D01*
X011899Y012004D02*
X004642Y012004D01*
X004642Y012122D02*
X011899Y012122D01*
X011899Y012241D02*
X004642Y012241D01*
X004642Y012359D02*
X011899Y012359D01*
X011899Y012478D02*
X004682Y012478D01*
X004727Y012596D02*
X011899Y012596D01*
X011899Y012715D02*
X004720Y012715D01*
X004653Y012833D02*
X011899Y012833D01*
X011899Y012952D02*
X000271Y012952D01*
X000271Y013070D02*
X003058Y013070D01*
X003019Y013109D02*
X003099Y013029D01*
X003204Y012986D01*
X003318Y012986D01*
X003422Y013029D01*
X003503Y013109D01*
X003505Y013115D01*
X003653Y013176D01*
X003848Y013371D01*
X003953Y013625D01*
X003953Y013966D01*
X005308Y013966D01*
X005419Y014078D01*
X005419Y018172D01*
X005308Y018283D01*
X000426Y018283D01*
X000315Y018172D01*
X000315Y015160D01*
X000426Y015049D01*
X002185Y015049D01*
X002185Y014078D01*
X002296Y013966D01*
X003553Y013966D01*
X003553Y013763D01*
X003547Y013706D01*
X003504Y013600D01*
X003423Y013520D01*
X003414Y013516D01*
X003318Y013556D01*
X003204Y013556D01*
X003099Y013512D01*
X003019Y013432D01*
X002976Y013327D01*
X002976Y013214D01*
X003019Y013109D01*
X002986Y013189D02*
X000271Y013189D01*
X000271Y013307D02*
X002976Y013307D01*
X003017Y013426D02*
X000271Y013426D01*
X000271Y013544D02*
X003176Y013544D01*
X003345Y013544D02*
X003447Y013544D01*
X003530Y013663D02*
X000271Y013663D01*
X000271Y013781D02*
X003553Y013781D01*
X003553Y013900D02*
X000271Y013900D01*
X000271Y014018D02*
X002245Y014018D01*
X002185Y014137D02*
X000271Y014137D01*
X000271Y014255D02*
X002185Y014255D01*
X002185Y014374D02*
X000271Y014374D01*
X000271Y014492D02*
X002185Y014492D01*
X002185Y014611D02*
X000271Y014611D01*
X000271Y014729D02*
X002185Y014729D01*
X002185Y014848D02*
X000271Y014848D01*
X000271Y014966D02*
X002185Y014966D01*
X003753Y013763D02*
X003751Y013720D01*
X003746Y013678D01*
X003736Y013636D01*
X003723Y013595D01*
X003707Y013555D01*
X003687Y013517D01*
X003664Y013481D01*
X003638Y013447D01*
X003609Y013415D01*
X003577Y013386D01*
X003543Y013360D01*
X003507Y013337D01*
X003469Y013317D01*
X003429Y013301D01*
X003388Y013288D01*
X003346Y013278D01*
X003304Y013273D01*
X003261Y013271D01*
X003463Y013070D02*
X011899Y013070D01*
X011899Y013189D02*
X003666Y013189D01*
X003653Y013176D02*
X003653Y013176D01*
X003784Y013307D02*
X011899Y013307D01*
X011899Y013426D02*
X003870Y013426D01*
X003848Y013371D02*
X003848Y013371D01*
X003919Y013544D02*
X011899Y013544D01*
X011899Y013663D02*
X003953Y013663D01*
X003953Y013781D02*
X011899Y013781D01*
X011899Y013900D02*
X003953Y013900D01*
X003753Y013763D02*
X003753Y014747D01*
X004231Y012833D02*
X000271Y012833D01*
X000271Y012715D02*
X004164Y012715D01*
X004157Y012596D02*
X000271Y012596D01*
X000271Y012478D02*
X004202Y012478D01*
X004242Y012359D02*
X000271Y012359D01*
X000271Y012241D02*
X004242Y012241D01*
X004242Y012122D02*
X000271Y012122D01*
X000271Y012004D02*
X004242Y012004D01*
X004241Y011885D02*
X000271Y011885D01*
X000271Y011767D02*
X002891Y011767D01*
X002966Y011797D02*
X002966Y011797D01*
X003064Y011597D02*
X004147Y011597D01*
X004147Y011598D02*
X004180Y011600D01*
X004213Y011605D01*
X004244Y011615D01*
X004275Y011627D01*
X004304Y011643D01*
X004331Y011662D01*
X004356Y011684D01*
X004378Y011709D01*
X004397Y011736D01*
X004413Y011765D01*
X004425Y011796D01*
X004435Y011827D01*
X004440Y011860D01*
X004442Y011893D01*
X004442Y012641D01*
X005360Y014018D02*
X011899Y014018D01*
X011899Y014137D02*
X005419Y014137D01*
X005419Y014255D02*
X011899Y014255D01*
X011897Y014374D02*
X005419Y014374D01*
X005419Y014492D02*
X011596Y014492D01*
X011473Y014611D02*
X005419Y014611D01*
X005419Y014729D02*
X011440Y014729D01*
X011459Y014848D02*
X005419Y014848D01*
X005419Y014966D02*
X011542Y014966D01*
X011909Y014966D02*
X012293Y014966D01*
X012293Y014848D02*
X012099Y014848D01*
X012073Y014873D02*
X012073Y014873D01*
X012073Y014873D01*
X012218Y014729D02*
X012293Y014729D01*
X012246Y014701D02*
X012246Y014701D01*
X012283Y014611D02*
X012293Y014611D01*
X012293Y015085D02*
X005419Y015085D01*
X005419Y015203D02*
X012293Y015203D01*
X012293Y015322D02*
X005419Y015322D01*
X005419Y015440D02*
X012293Y015440D01*
X012293Y015559D02*
X005419Y015559D01*
X005419Y015677D02*
X012293Y015677D01*
X012293Y015796D02*
X005419Y015796D01*
X005419Y015914D02*
X012293Y015914D01*
X012293Y016033D02*
X005419Y016033D01*
X005419Y016151D02*
X012293Y016151D01*
X012293Y016270D02*
X005419Y016270D01*
X005419Y016388D02*
X012293Y016388D01*
X012293Y016507D02*
X005419Y016507D01*
X005419Y016625D02*
X012293Y016625D01*
X012293Y016744D02*
X005419Y016744D01*
X005419Y016862D02*
X012293Y016862D01*
X012293Y016981D02*
X005419Y016981D01*
X005419Y017099D02*
X012293Y017099D01*
X012293Y017218D02*
X005419Y017218D01*
X005419Y017336D02*
X012293Y017336D01*
X012293Y017455D02*
X005419Y017455D01*
X005419Y017573D02*
X012293Y017573D01*
X012293Y017692D02*
X005419Y017692D01*
X005419Y017810D02*
X012293Y017810D01*
X012293Y017929D02*
X005419Y017929D01*
X005419Y018047D02*
X012293Y018047D01*
X012293Y018166D02*
X005419Y018166D01*
X004952Y019825D02*
X012264Y019825D01*
X012293Y019706D02*
X000271Y019706D01*
X000271Y019588D02*
X012293Y019588D01*
X012293Y019469D02*
X000271Y019469D01*
X000271Y019351D02*
X012293Y019351D01*
X012293Y019232D02*
X000271Y019232D01*
X000271Y019114D02*
X012293Y019114D01*
X012293Y018995D02*
X000271Y018995D01*
X000271Y018877D02*
X012293Y018877D01*
X012293Y018758D02*
X000271Y018758D01*
X000271Y018640D02*
X012293Y018640D01*
X012293Y018521D02*
X000271Y018521D01*
X000271Y018403D02*
X012293Y018403D01*
X012293Y018284D02*
X000271Y018284D01*
X000271Y018166D02*
X000315Y018166D01*
X000315Y018047D02*
X000271Y018047D01*
X000271Y017929D02*
X000315Y017929D01*
X000315Y017810D02*
X000271Y017810D01*
X000271Y017692D02*
X000315Y017692D01*
X000315Y017573D02*
X000271Y017573D01*
X000271Y017455D02*
X000315Y017455D01*
X000315Y017336D02*
X000271Y017336D01*
X000271Y017218D02*
X000315Y017218D01*
X000315Y017099D02*
X000271Y017099D01*
X000271Y016981D02*
X000315Y016981D01*
X000315Y016862D02*
X000271Y016862D01*
X000271Y016744D02*
X000315Y016744D01*
X000315Y016625D02*
X000271Y016625D01*
X000271Y016507D02*
X000315Y016507D01*
X000315Y016388D02*
X000271Y016388D01*
X000271Y016270D02*
X000315Y016270D01*
X000315Y016151D02*
X000271Y016151D01*
X000271Y016033D02*
X000315Y016033D01*
X000315Y015914D02*
X000271Y015914D01*
X000271Y015796D02*
X000315Y015796D01*
X000315Y015677D02*
X000271Y015677D01*
X000271Y015559D02*
X000315Y015559D01*
X000315Y015440D02*
X000271Y015440D01*
X000271Y015322D02*
X000315Y015322D01*
X000315Y015203D02*
X000271Y015203D01*
X000271Y015085D02*
X000391Y015085D01*
X000271Y011648D02*
X002710Y011648D01*
X002644Y011583D02*
X002644Y011583D01*
X002622Y011530D02*
X000271Y011530D01*
X000271Y011411D02*
X002573Y011411D01*
X002569Y011293D02*
X000271Y011293D01*
X000271Y011174D02*
X002569Y011174D01*
X002569Y011056D02*
X000271Y011056D01*
X000271Y010937D02*
X002569Y010937D01*
X002569Y010819D02*
X000271Y010819D01*
X000271Y010700D02*
X002573Y010700D01*
X002623Y010582D02*
X000271Y010582D01*
X000271Y010463D02*
X002711Y010463D01*
X002644Y010529D02*
X002644Y010529D01*
X002784Y010390D02*
X002784Y010390D01*
X002893Y010345D02*
X000271Y010345D01*
X000271Y009041D02*
X000597Y009041D01*
X000525Y008923D02*
X000271Y008923D01*
X000271Y008804D02*
X000515Y008804D01*
X000556Y008686D02*
X000271Y008686D01*
X001004Y009041D02*
X002368Y009041D01*
X002769Y010810D02*
X002769Y011302D01*
X002969Y011293D02*
X003094Y011293D01*
X003064Y011597D02*
X003031Y011595D01*
X002998Y011590D01*
X002967Y011580D01*
X002936Y011568D01*
X002907Y011552D01*
X002880Y011533D01*
X002855Y011511D01*
X002833Y011486D01*
X002814Y011459D01*
X002798Y011430D01*
X002786Y011399D01*
X002776Y011368D01*
X002771Y011335D01*
X002769Y011302D01*
X002969Y011174D02*
X003001Y011174D01*
X002976Y011056D02*
X002969Y011056D01*
X002969Y010937D02*
X003002Y010937D01*
X006192Y005723D02*
X006902Y005723D01*
X006783Y005605D02*
X006280Y005605D01*
X006302Y005486D02*
X006724Y005486D01*
X006688Y005368D02*
X006273Y005368D01*
X006217Y005249D02*
X006688Y005249D01*
X006715Y005131D02*
X006217Y005131D01*
X006217Y005012D02*
X006764Y005012D01*
X006881Y004894D02*
X006217Y004894D01*
X005191Y004657D02*
X000271Y004657D01*
X000271Y004538D02*
X005072Y004538D01*
X004954Y004420D02*
X000271Y004420D01*
X000271Y004301D02*
X004835Y004301D01*
X004717Y004183D02*
X003225Y004183D01*
X003275Y004162D02*
X003170Y004205D01*
X003057Y004205D01*
X002952Y004162D01*
X002872Y004082D01*
X002828Y003977D01*
X002828Y003918D01*
X001702Y002791D01*
X001585Y002674D01*
X001585Y001465D01*
X001507Y001433D01*
X001369Y001295D01*
X001295Y001115D01*
X001295Y000920D01*
X001369Y000740D01*
X001507Y000602D01*
X001687Y000527D01*
X001882Y000527D01*
X002062Y000602D01*
X002200Y000740D01*
X002275Y000920D01*
X002275Y001115D01*
X002200Y001295D01*
X002062Y001433D01*
X001985Y001465D01*
X001985Y002509D01*
X003111Y003635D01*
X003170Y003635D01*
X003275Y003679D01*
X003355Y003759D01*
X003398Y003863D01*
X003398Y003977D01*
X003355Y004082D01*
X003275Y004162D01*
X003362Y004064D02*
X004598Y004064D01*
X004480Y003946D02*
X003398Y003946D01*
X003383Y003827D02*
X004361Y003827D01*
X004243Y003709D02*
X003305Y003709D01*
X003113Y003920D02*
X001785Y002591D01*
X001785Y001017D01*
X001481Y000628D02*
X000271Y000628D01*
X000271Y000746D02*
X001367Y000746D01*
X001317Y000865D02*
X000271Y000865D01*
X000271Y000983D02*
X001295Y000983D01*
X001295Y001102D02*
X000271Y001102D01*
X000271Y001220D02*
X001338Y001220D01*
X001413Y001339D02*
X000271Y001339D01*
X000271Y001457D02*
X001565Y001457D01*
X001585Y001576D02*
X000271Y001576D01*
X000271Y001694D02*
X001585Y001694D01*
X001585Y001813D02*
X000271Y001813D01*
X000271Y001931D02*
X001585Y001931D01*
X001585Y002050D02*
X000271Y002050D01*
X000271Y002168D02*
X001585Y002168D01*
X001585Y002287D02*
X000271Y002287D01*
X000271Y002405D02*
X001585Y002405D01*
X001585Y002524D02*
X000271Y002524D01*
X000271Y002642D02*
X001585Y002642D01*
X001671Y002761D02*
X000271Y002761D01*
X000271Y002879D02*
X001789Y002879D01*
X001908Y002998D02*
X000271Y002998D01*
X000271Y003116D02*
X002026Y003116D01*
X002145Y003235D02*
X000271Y003235D01*
X000271Y003353D02*
X002263Y003353D01*
X002382Y003472D02*
X000271Y003472D01*
X000271Y003590D02*
X002500Y003590D01*
X002619Y003709D02*
X000271Y003709D01*
X000271Y003827D02*
X002737Y003827D01*
X002828Y003946D02*
X000271Y003946D01*
X000271Y004064D02*
X002864Y004064D01*
X003002Y004183D02*
X000271Y004183D01*
X001999Y002524D02*
X003058Y002524D01*
X003176Y002642D02*
X002118Y002642D01*
X002236Y002761D02*
X003295Y002761D01*
X003413Y002879D02*
X002355Y002879D01*
X002473Y002998D02*
X003532Y002998D01*
X003650Y003116D02*
X002592Y003116D01*
X002710Y003235D02*
X003769Y003235D01*
X003887Y003353D02*
X002829Y003353D01*
X002947Y003472D02*
X004006Y003472D01*
X004124Y003590D02*
X003066Y003590D01*
X002939Y002405D02*
X001985Y002405D01*
X001985Y002287D02*
X002821Y002287D01*
X002702Y002168D02*
X001985Y002168D01*
X001985Y002050D02*
X002585Y002050D01*
X002585Y001931D02*
X001985Y001931D01*
X001985Y001813D02*
X002585Y001813D01*
X002585Y001694D02*
X001985Y001694D01*
X001985Y001576D02*
X002585Y001576D01*
X002585Y001457D02*
X002004Y001457D01*
X002156Y001339D02*
X002521Y001339D01*
X002394Y001220D02*
X002231Y001220D01*
X002275Y001102D02*
X002330Y001102D01*
X002295Y000983D02*
X002275Y000983D01*
X002295Y000865D02*
X002252Y000865D01*
X002202Y000746D02*
X002325Y000746D01*
X002381Y000628D02*
X002088Y000628D01*
X002500Y000509D02*
X000271Y000509D01*
X000271Y000391D02*
X012550Y000391D01*
X012550Y000509D02*
X007069Y000509D01*
X007188Y000628D02*
X012550Y000628D01*
X012550Y000746D02*
X012397Y000746D01*
X012283Y001220D02*
X007175Y001220D01*
X003985Y002287D02*
X011067Y002287D01*
X009560Y007267D02*
X008576Y007267D01*
X008576Y008448D01*
X009560Y008448D01*
X009560Y007267D01*
X009560Y007382D02*
X008576Y007382D01*
X008576Y007501D02*
X009560Y007501D01*
X009560Y007619D02*
X008576Y007619D01*
X008576Y007738D02*
X009560Y007738D01*
X009560Y007856D02*
X008576Y007856D01*
X008576Y007975D02*
X009560Y007975D01*
X009560Y008093D02*
X008576Y008093D01*
X008576Y008212D02*
X009560Y008212D01*
X009560Y008330D02*
X008576Y008330D01*
X003565Y001457D02*
X002985Y001457D01*
X004621Y019825D02*
X000271Y019825D01*
X000271Y019943D02*
X004527Y019943D01*
X004501Y020062D02*
X000271Y020062D01*
X000271Y020180D02*
X004527Y020180D01*
D15*
X004786Y020062D02*
X012218Y020062D01*
X012251Y020060D01*
X012284Y020055D01*
X012315Y020045D01*
X012346Y020033D01*
X012375Y020017D01*
X012402Y019998D01*
X012427Y019976D01*
X012449Y019951D01*
X012468Y019924D01*
X012484Y019895D01*
X012496Y019864D01*
X012506Y019833D01*
X012511Y019800D01*
X012513Y019767D01*
X012513Y001263D01*
X012511Y001227D01*
X012505Y001191D01*
X012496Y001156D01*
X012483Y001123D01*
X012467Y001090D01*
X012447Y001060D01*
X012424Y001032D01*
X012399Y001007D01*
X012371Y000984D01*
X012341Y000964D01*
X012308Y000948D01*
X012275Y000935D01*
X012240Y000926D01*
X012204Y000920D01*
X012168Y000918D01*
X012168Y000917D02*
X006785Y000917D01*
X006115Y001657D02*
X006080Y001655D01*
X006046Y001650D01*
X006013Y001641D01*
X005980Y001628D01*
X005950Y001613D01*
X005920Y001594D01*
X005894Y001572D01*
X005869Y001547D01*
X005847Y001521D01*
X005828Y001491D01*
X005813Y001461D01*
X005800Y001428D01*
X005791Y001395D01*
X005786Y001361D01*
X005784Y001326D01*
X005785Y001326D02*
X005785Y001017D01*
X006115Y001656D02*
X011725Y001656D01*
X011764Y001658D01*
X011802Y001664D01*
X011839Y001673D01*
X011876Y001686D01*
X011911Y001703D01*
X011944Y001722D01*
X011975Y001745D01*
X012004Y001771D01*
X012030Y001800D01*
X012053Y001831D01*
X012072Y001864D01*
X012089Y001899D01*
X012102Y001936D01*
X012111Y001973D01*
X012117Y002011D01*
X012119Y002050D01*
X012119Y009629D01*
X012119Y014353D01*
X012117Y014392D01*
X012111Y014430D01*
X012102Y014467D01*
X012089Y014504D01*
X012072Y014539D01*
X012053Y014572D01*
X012030Y014603D01*
X012004Y014632D01*
X011975Y014658D01*
X011944Y014681D01*
X011911Y014700D01*
X011876Y014717D01*
X011839Y014730D01*
X011802Y014739D01*
X011764Y014745D01*
X011725Y014747D01*
D16*
X005229Y014761D02*
X002375Y014761D01*
X002375Y014663D02*
X005229Y014663D01*
X005229Y014564D02*
X002375Y014564D01*
X002375Y014466D02*
X005229Y014466D01*
X005229Y014367D02*
X002375Y014367D01*
X002375Y014269D02*
X005229Y014269D01*
X005229Y014170D02*
X002375Y014170D01*
X002375Y014156D02*
X002375Y015141D01*
X002277Y015239D01*
X000505Y015239D01*
X000505Y018093D01*
X005229Y018093D01*
X005229Y014156D01*
X002375Y014156D01*
X002375Y014860D02*
X005229Y014860D01*
X005229Y014958D02*
X002375Y014958D01*
X002375Y015057D02*
X005229Y015057D01*
X005229Y015155D02*
X002361Y015155D01*
X000505Y015254D02*
X005229Y015254D01*
X005229Y015352D02*
X000505Y015352D01*
X000505Y015451D02*
X005229Y015451D01*
X005229Y015549D02*
X000505Y015549D01*
X000505Y015648D02*
X005229Y015648D01*
X005229Y015746D02*
X000505Y015746D01*
X000505Y015845D02*
X005229Y015845D01*
X005229Y015943D02*
X000505Y015943D01*
X000505Y016042D02*
X005229Y016042D01*
X005229Y016140D02*
X000505Y016140D01*
X000505Y016239D02*
X005229Y016239D01*
X005229Y016337D02*
X000505Y016337D01*
X000505Y016436D02*
X005229Y016436D01*
X005229Y016534D02*
X000505Y016534D01*
X000505Y016633D02*
X005229Y016633D01*
X005229Y016731D02*
X000505Y016731D01*
X000505Y016830D02*
X005229Y016830D01*
X005229Y016928D02*
X000505Y016928D01*
X000505Y017027D02*
X005229Y017027D01*
X005229Y017125D02*
X000505Y017125D01*
X000505Y017224D02*
X005229Y017224D01*
X005229Y017322D02*
X000505Y017322D01*
X000505Y017421D02*
X005229Y017421D01*
X005229Y017519D02*
X000505Y017519D01*
X000505Y017618D02*
X005229Y017618D01*
X005229Y017716D02*
X000505Y017716D01*
X000505Y017815D02*
X005229Y017815D01*
X005229Y017913D02*
X000505Y017913D01*
X000505Y018012D02*
X005229Y018012D01*
X002572Y008841D02*
X000800Y008841D01*
M02*
