G75*
%MOIN*%
%OFA0B0*%
%FSLAX24Y24*%
%IPPOS*%
%LPD*%
%AMOC8*
5,1,8,0,0,1.08239X$1,22.5*
%
%ADD10R,0.1575X0.0394*%
%ADD11C,0.0138*%
%ADD12C,0.0700*%
%ADD13C,0.0118*%
%ADD14R,0.0433X0.0394*%
%ADD15R,0.0394X0.0433*%
%ADD16C,0.0069*%
%ADD17C,0.0760*%
%ADD18R,0.0472X0.0315*%
%ADD19C,0.0740*%
%ADD20C,0.0120*%
%ADD21C,0.0160*%
%ADD22C,0.0290*%
%ADD23C,0.0100*%
D10*
X001466Y014940D03*
X001466Y016908D03*
D11*
X004505Y016832D02*
X004643Y016832D01*
X004505Y016832D02*
X004505Y017480D01*
X004643Y017480D01*
X004643Y016832D01*
X004643Y016969D02*
X004505Y016969D01*
X004505Y017106D02*
X004643Y017106D01*
X004643Y017243D02*
X004505Y017243D01*
X004505Y017380D02*
X004643Y017380D01*
X005005Y016832D02*
X005143Y016832D01*
X005005Y016832D02*
X005005Y017480D01*
X005143Y017480D01*
X005143Y016832D01*
X005143Y016969D02*
X005005Y016969D01*
X005005Y017106D02*
X005143Y017106D01*
X005143Y017243D02*
X005005Y017243D01*
X005005Y017380D02*
X005143Y017380D01*
X005505Y016832D02*
X005643Y016832D01*
X005505Y016832D02*
X005505Y017480D01*
X005643Y017480D01*
X005643Y016832D01*
X005643Y016969D02*
X005505Y016969D01*
X005505Y017106D02*
X005643Y017106D01*
X005643Y017243D02*
X005505Y017243D01*
X005505Y017380D02*
X005643Y017380D01*
X006005Y016832D02*
X006143Y016832D01*
X006005Y016832D02*
X006005Y017480D01*
X006143Y017480D01*
X006143Y016832D01*
X006143Y016969D02*
X006005Y016969D01*
X006005Y017106D02*
X006143Y017106D01*
X006143Y017243D02*
X006005Y017243D01*
X006005Y017380D02*
X006143Y017380D01*
X006143Y014439D02*
X006005Y014439D01*
X006005Y015087D01*
X006143Y015087D01*
X006143Y014439D01*
X006143Y014576D02*
X006005Y014576D01*
X006005Y014713D02*
X006143Y014713D01*
X006143Y014850D02*
X006005Y014850D01*
X006005Y014987D02*
X006143Y014987D01*
X005643Y014439D02*
X005505Y014439D01*
X005505Y015087D01*
X005643Y015087D01*
X005643Y014439D01*
X005643Y014576D02*
X005505Y014576D01*
X005505Y014713D02*
X005643Y014713D01*
X005643Y014850D02*
X005505Y014850D01*
X005505Y014987D02*
X005643Y014987D01*
X005143Y014439D02*
X005005Y014439D01*
X005005Y015087D01*
X005143Y015087D01*
X005143Y014439D01*
X005143Y014576D02*
X005005Y014576D01*
X005005Y014713D02*
X005143Y014713D01*
X005143Y014850D02*
X005005Y014850D01*
X005005Y014987D02*
X005143Y014987D01*
X004643Y014439D02*
X004505Y014439D01*
X004505Y015087D01*
X004643Y015087D01*
X004643Y014439D01*
X004643Y014576D02*
X004505Y014576D01*
X004505Y014713D02*
X004643Y014713D01*
X004643Y014850D02*
X004505Y014850D01*
X004505Y014987D02*
X004643Y014987D01*
X007506Y011629D02*
X007506Y011491D01*
X006858Y011491D01*
X006858Y011629D01*
X007506Y011629D01*
X007506Y011628D02*
X006858Y011628D01*
X007506Y011129D02*
X007506Y010991D01*
X006858Y010991D01*
X006858Y011129D01*
X007506Y011129D01*
X007506Y011128D02*
X006858Y011128D01*
X007506Y010629D02*
X007506Y010491D01*
X006858Y010491D01*
X006858Y010629D01*
X007506Y010629D01*
X007506Y010628D02*
X006858Y010628D01*
X007506Y010129D02*
X007506Y009991D01*
X006858Y009991D01*
X006858Y010129D01*
X007506Y010129D01*
X007506Y010128D02*
X006858Y010128D01*
X009900Y010129D02*
X009900Y009991D01*
X009252Y009991D01*
X009252Y010129D01*
X009900Y010129D01*
X009900Y010128D02*
X009252Y010128D01*
X009900Y010491D02*
X009900Y010629D01*
X009900Y010491D02*
X009252Y010491D01*
X009252Y010629D01*
X009900Y010629D01*
X009900Y010628D02*
X009252Y010628D01*
X009900Y010991D02*
X009900Y011129D01*
X009900Y010991D02*
X009252Y010991D01*
X009252Y011129D01*
X009900Y011129D01*
X009900Y011128D02*
X009252Y011128D01*
X009900Y011491D02*
X009900Y011629D01*
X009900Y011491D02*
X009252Y011491D01*
X009252Y011629D01*
X009900Y011629D01*
X009900Y011628D02*
X009252Y011628D01*
X009253Y015077D02*
X009391Y015077D01*
X009391Y014429D01*
X009253Y014429D01*
X009253Y015077D01*
X009253Y014566D02*
X009391Y014566D01*
X009391Y014703D02*
X009253Y014703D01*
X009253Y014840D02*
X009391Y014840D01*
X009391Y014977D02*
X009253Y014977D01*
X008891Y015077D02*
X008753Y015077D01*
X008891Y015077D02*
X008891Y014429D01*
X008753Y014429D01*
X008753Y015077D01*
X008753Y014566D02*
X008891Y014566D01*
X008891Y014703D02*
X008753Y014703D01*
X008753Y014840D02*
X008891Y014840D01*
X008891Y014977D02*
X008753Y014977D01*
X008391Y015077D02*
X008253Y015077D01*
X008391Y015077D02*
X008391Y014429D01*
X008253Y014429D01*
X008253Y015077D01*
X008253Y014566D02*
X008391Y014566D01*
X008391Y014703D02*
X008253Y014703D01*
X008253Y014840D02*
X008391Y014840D01*
X008391Y014977D02*
X008253Y014977D01*
X008253Y017471D02*
X008391Y017471D01*
X008391Y016823D01*
X008253Y016823D01*
X008253Y017471D01*
X008253Y016960D02*
X008391Y016960D01*
X008391Y017097D02*
X008253Y017097D01*
X008253Y017234D02*
X008391Y017234D01*
X008391Y017371D02*
X008253Y017371D01*
X008753Y017471D02*
X008891Y017471D01*
X008891Y016823D01*
X008753Y016823D01*
X008753Y017471D01*
X008753Y016960D02*
X008891Y016960D01*
X008891Y017097D02*
X008753Y017097D01*
X008753Y017234D02*
X008891Y017234D01*
X008891Y017371D02*
X008753Y017371D01*
X009253Y017471D02*
X009391Y017471D01*
X009391Y016823D01*
X009253Y016823D01*
X009253Y017471D01*
X009253Y016960D02*
X009391Y016960D01*
X009391Y017097D02*
X009253Y017097D01*
X009253Y017234D02*
X009391Y017234D01*
X009391Y017371D02*
X009253Y017371D01*
X009753Y017471D02*
X009891Y017471D01*
X009891Y016823D01*
X009753Y016823D01*
X009753Y017471D01*
X009753Y016960D02*
X009891Y016960D01*
X009891Y017097D02*
X009753Y017097D01*
X009753Y017234D02*
X009891Y017234D01*
X009891Y017371D02*
X009753Y017371D01*
X009753Y015077D02*
X009891Y015077D01*
X009891Y014429D01*
X009753Y014429D01*
X009753Y015077D01*
X009753Y014566D02*
X009891Y014566D01*
X009891Y014703D02*
X009753Y014703D01*
X009753Y014840D02*
X009891Y014840D01*
X009891Y014977D02*
X009753Y014977D01*
D12*
X006785Y000917D03*
X005785Y001017D03*
X004785Y000917D03*
X003785Y001017D03*
X002785Y000917D03*
X001785Y001017D03*
D13*
X001936Y002499D02*
X002054Y002499D01*
X001936Y002499D02*
X001936Y003167D01*
X002054Y003167D01*
X002054Y002499D01*
X002054Y002616D02*
X001936Y002616D01*
X001936Y002733D02*
X002054Y002733D01*
X002054Y002850D02*
X001936Y002850D01*
X001936Y002967D02*
X002054Y002967D01*
X002054Y003084D02*
X001936Y003084D01*
X002436Y002499D02*
X002554Y002499D01*
X002436Y002499D02*
X002436Y003167D01*
X002554Y003167D01*
X002554Y002499D01*
X002554Y002616D02*
X002436Y002616D01*
X002436Y002733D02*
X002554Y002733D01*
X002554Y002850D02*
X002436Y002850D01*
X002436Y002967D02*
X002554Y002967D01*
X002554Y003084D02*
X002436Y003084D01*
X002936Y002499D02*
X003054Y002499D01*
X002936Y002499D02*
X002936Y003167D01*
X003054Y003167D01*
X003054Y002499D01*
X003054Y002616D02*
X002936Y002616D01*
X002936Y002733D02*
X003054Y002733D01*
X003054Y002850D02*
X002936Y002850D01*
X002936Y002967D02*
X003054Y002967D01*
X003054Y003084D02*
X002936Y003084D01*
X003436Y002499D02*
X003554Y002499D01*
X003436Y002499D02*
X003436Y003167D01*
X003554Y003167D01*
X003554Y002499D01*
X003554Y002616D02*
X003436Y002616D01*
X003436Y002733D02*
X003554Y002733D01*
X003554Y002850D02*
X003436Y002850D01*
X003436Y002967D02*
X003554Y002967D01*
X003554Y003084D02*
X003436Y003084D01*
X003936Y002499D02*
X004054Y002499D01*
X003936Y002499D02*
X003936Y003167D01*
X004054Y003167D01*
X004054Y002499D01*
X004054Y002616D02*
X003936Y002616D01*
X003936Y002733D02*
X004054Y002733D01*
X004054Y002850D02*
X003936Y002850D01*
X003936Y002967D02*
X004054Y002967D01*
X004054Y003084D02*
X003936Y003084D01*
X004436Y002499D02*
X004554Y002499D01*
X004436Y002499D02*
X004436Y003167D01*
X004554Y003167D01*
X004554Y002499D01*
X004554Y002616D02*
X004436Y002616D01*
X004436Y002733D02*
X004554Y002733D01*
X004554Y002850D02*
X004436Y002850D01*
X004436Y002967D02*
X004554Y002967D01*
X004554Y003084D02*
X004436Y003084D01*
X004936Y002499D02*
X005054Y002499D01*
X004936Y002499D02*
X004936Y003167D01*
X005054Y003167D01*
X005054Y002499D01*
X005054Y002616D02*
X004936Y002616D01*
X004936Y002733D02*
X005054Y002733D01*
X005054Y002850D02*
X004936Y002850D01*
X004936Y002967D02*
X005054Y002967D01*
X005054Y003084D02*
X004936Y003084D01*
X005436Y002499D02*
X005554Y002499D01*
X005436Y002499D02*
X005436Y003167D01*
X005554Y003167D01*
X005554Y002499D01*
X005554Y002616D02*
X005436Y002616D01*
X005436Y002733D02*
X005554Y002733D01*
X005554Y002850D02*
X005436Y002850D01*
X005436Y002967D02*
X005554Y002967D01*
X005554Y003084D02*
X005436Y003084D01*
X005936Y002499D02*
X006054Y002499D01*
X005936Y002499D02*
X005936Y003167D01*
X006054Y003167D01*
X006054Y002499D01*
X006054Y002616D02*
X005936Y002616D01*
X005936Y002733D02*
X006054Y002733D01*
X006054Y002850D02*
X005936Y002850D01*
X005936Y002967D02*
X006054Y002967D01*
X006054Y003084D02*
X005936Y003084D01*
X006436Y002499D02*
X006554Y002499D01*
X006436Y002499D02*
X006436Y003167D01*
X006554Y003167D01*
X006554Y002499D01*
X006554Y002616D02*
X006436Y002616D01*
X006436Y002733D02*
X006554Y002733D01*
X006554Y002850D02*
X006436Y002850D01*
X006436Y002967D02*
X006554Y002967D01*
X006554Y003084D02*
X006436Y003084D01*
X006436Y006249D02*
X006554Y006249D01*
X006436Y006249D02*
X006436Y006917D01*
X006554Y006917D01*
X006554Y006249D01*
X006554Y006366D02*
X006436Y006366D01*
X006436Y006483D02*
X006554Y006483D01*
X006554Y006600D02*
X006436Y006600D01*
X006436Y006717D02*
X006554Y006717D01*
X006554Y006834D02*
X006436Y006834D01*
X006054Y006249D02*
X005936Y006249D01*
X005936Y006917D01*
X006054Y006917D01*
X006054Y006249D01*
X006054Y006366D02*
X005936Y006366D01*
X005936Y006483D02*
X006054Y006483D01*
X006054Y006600D02*
X005936Y006600D01*
X005936Y006717D02*
X006054Y006717D01*
X006054Y006834D02*
X005936Y006834D01*
X005554Y006249D02*
X005436Y006249D01*
X005436Y006917D01*
X005554Y006917D01*
X005554Y006249D01*
X005554Y006366D02*
X005436Y006366D01*
X005436Y006483D02*
X005554Y006483D01*
X005554Y006600D02*
X005436Y006600D01*
X005436Y006717D02*
X005554Y006717D01*
X005554Y006834D02*
X005436Y006834D01*
X005054Y006249D02*
X004936Y006249D01*
X004936Y006917D01*
X005054Y006917D01*
X005054Y006249D01*
X005054Y006366D02*
X004936Y006366D01*
X004936Y006483D02*
X005054Y006483D01*
X005054Y006600D02*
X004936Y006600D01*
X004936Y006717D02*
X005054Y006717D01*
X005054Y006834D02*
X004936Y006834D01*
X004554Y006249D02*
X004436Y006249D01*
X004436Y006917D01*
X004554Y006917D01*
X004554Y006249D01*
X004554Y006366D02*
X004436Y006366D01*
X004436Y006483D02*
X004554Y006483D01*
X004554Y006600D02*
X004436Y006600D01*
X004436Y006717D02*
X004554Y006717D01*
X004554Y006834D02*
X004436Y006834D01*
X004054Y006249D02*
X003936Y006249D01*
X003936Y006917D01*
X004054Y006917D01*
X004054Y006249D01*
X004054Y006366D02*
X003936Y006366D01*
X003936Y006483D02*
X004054Y006483D01*
X004054Y006600D02*
X003936Y006600D01*
X003936Y006717D02*
X004054Y006717D01*
X004054Y006834D02*
X003936Y006834D01*
X003554Y006249D02*
X003436Y006249D01*
X003436Y006917D01*
X003554Y006917D01*
X003554Y006249D01*
X003554Y006366D02*
X003436Y006366D01*
X003436Y006483D02*
X003554Y006483D01*
X003554Y006600D02*
X003436Y006600D01*
X003436Y006717D02*
X003554Y006717D01*
X003554Y006834D02*
X003436Y006834D01*
X003054Y006249D02*
X002936Y006249D01*
X002936Y006917D01*
X003054Y006917D01*
X003054Y006249D01*
X003054Y006366D02*
X002936Y006366D01*
X002936Y006483D02*
X003054Y006483D01*
X003054Y006600D02*
X002936Y006600D01*
X002936Y006717D02*
X003054Y006717D01*
X003054Y006834D02*
X002936Y006834D01*
X002554Y006249D02*
X002436Y006249D01*
X002436Y006917D01*
X002554Y006917D01*
X002554Y006249D01*
X002554Y006366D02*
X002436Y006366D01*
X002436Y006483D02*
X002554Y006483D01*
X002554Y006600D02*
X002436Y006600D01*
X002436Y006717D02*
X002554Y006717D01*
X002554Y006834D02*
X002436Y006834D01*
X002054Y006249D02*
X001936Y006249D01*
X001936Y006917D01*
X002054Y006917D01*
X002054Y006249D01*
X002054Y006366D02*
X001936Y006366D01*
X001936Y006483D02*
X002054Y006483D01*
X002054Y006600D02*
X001936Y006600D01*
X001936Y006717D02*
X002054Y006717D01*
X002054Y006834D02*
X001936Y006834D01*
D14*
X003271Y010023D03*
X003940Y010023D03*
X003940Y011597D03*
X003271Y011597D03*
X003271Y012631D03*
X003940Y012631D03*
X002464Y012631D03*
X002414Y011597D03*
X001745Y011597D03*
X001794Y012631D03*
X002828Y017109D03*
X003497Y017109D03*
X004107Y018684D03*
X004107Y019570D03*
X004777Y019570D03*
X004777Y018684D03*
X002021Y018684D03*
X001351Y018684D03*
X008733Y013713D03*
X008733Y012926D03*
X009403Y012926D03*
X009403Y013713D03*
X009225Y018143D03*
X009225Y018930D03*
X009895Y018930D03*
X009895Y018143D03*
X009895Y001164D03*
X009225Y001164D03*
X011145Y001164D03*
X011912Y001164D03*
D15*
X009954Y005948D03*
X009954Y006617D03*
X010741Y009589D03*
X010741Y010259D03*
X010741Y011066D03*
X010741Y011735D03*
X011529Y011735D03*
X011529Y011066D03*
X011529Y010259D03*
X011529Y009589D03*
X010938Y014068D03*
X010938Y014737D03*
X010938Y015839D03*
X010938Y016509D03*
X010938Y017414D03*
X010938Y018084D03*
X007198Y018133D03*
X007198Y017463D03*
X007198Y015426D03*
X007198Y014757D03*
X005229Y013261D03*
X005229Y012591D03*
X005229Y011538D03*
X005229Y010869D03*
X006017Y010869D03*
X006017Y011538D03*
X003556Y015593D03*
X003556Y016263D03*
X002769Y016263D03*
X002769Y015593D03*
X003064Y018694D03*
X003064Y019363D03*
X005722Y019019D03*
X005722Y018349D03*
X000722Y006587D03*
X000722Y005918D03*
D16*
X001464Y009643D02*
X001464Y009969D01*
X001534Y009969D01*
X001534Y009643D01*
X001464Y009643D01*
X001464Y009711D02*
X001534Y009711D01*
X001534Y009779D02*
X001464Y009779D01*
X001464Y009847D02*
X001534Y009847D01*
X001534Y009915D02*
X001464Y009915D01*
X001720Y009969D02*
X001720Y009643D01*
X001720Y009969D02*
X001790Y009969D01*
X001790Y009643D01*
X001720Y009643D01*
X001720Y009711D02*
X001790Y009711D01*
X001790Y009779D02*
X001720Y009779D01*
X001720Y009847D02*
X001790Y009847D01*
X001790Y009915D02*
X001720Y009915D01*
X001976Y009969D02*
X001976Y009643D01*
X001976Y009969D02*
X002046Y009969D01*
X002046Y009643D01*
X001976Y009643D01*
X001976Y009711D02*
X002046Y009711D01*
X002046Y009779D02*
X001976Y009779D01*
X001976Y009847D02*
X002046Y009847D01*
X002046Y009915D02*
X001976Y009915D01*
X002232Y009969D02*
X002232Y009643D01*
X002232Y009969D02*
X002302Y009969D01*
X002302Y009643D01*
X002232Y009643D01*
X002232Y009711D02*
X002302Y009711D01*
X002302Y009779D02*
X002232Y009779D01*
X002232Y009847D02*
X002302Y009847D01*
X002302Y009915D02*
X002232Y009915D01*
X002232Y010667D02*
X002232Y010993D01*
X002302Y010993D01*
X002302Y010667D01*
X002232Y010667D01*
X002232Y010735D02*
X002302Y010735D01*
X002302Y010803D02*
X002232Y010803D01*
X002232Y010871D02*
X002302Y010871D01*
X002302Y010939D02*
X002232Y010939D01*
X001976Y010993D02*
X001976Y010667D01*
X001976Y010993D02*
X002046Y010993D01*
X002046Y010667D01*
X001976Y010667D01*
X001976Y010735D02*
X002046Y010735D01*
X002046Y010803D02*
X001976Y010803D01*
X001976Y010871D02*
X002046Y010871D01*
X002046Y010939D02*
X001976Y010939D01*
X001720Y010993D02*
X001720Y010667D01*
X001720Y010993D02*
X001790Y010993D01*
X001790Y010667D01*
X001720Y010667D01*
X001720Y010735D02*
X001790Y010735D01*
X001790Y010803D02*
X001720Y010803D01*
X001720Y010871D02*
X001790Y010871D01*
X001790Y010939D02*
X001720Y010939D01*
X001464Y010993D02*
X001464Y010667D01*
X001464Y010993D02*
X001534Y010993D01*
X001534Y010667D01*
X001464Y010667D01*
X001464Y010735D02*
X001534Y010735D01*
X001534Y010803D02*
X001464Y010803D01*
X001464Y010871D02*
X001534Y010871D01*
X001534Y010939D02*
X001464Y010939D01*
D17*
X011282Y005708D03*
X011382Y006708D03*
X011382Y004708D03*
X011282Y003708D03*
X011382Y002708D03*
D18*
X008674Y005337D03*
X008674Y006046D03*
D19*
X007198Y005298D03*
X003851Y005298D03*
D20*
X000271Y007660D02*
X000271Y000340D01*
X012550Y000340D01*
X012550Y007660D01*
X006398Y007660D01*
X006695Y007363D01*
X006695Y007058D01*
X006753Y007000D01*
X006753Y006166D01*
X006715Y006127D01*
X006715Y006092D01*
X007028Y005780D01*
X007096Y005808D01*
X007299Y005808D01*
X007487Y005730D01*
X007630Y005587D01*
X007708Y005400D01*
X007708Y005197D01*
X007630Y005009D01*
X007487Y004866D01*
X007350Y004809D01*
X008296Y004809D01*
X008474Y004987D01*
X008474Y005040D01*
X008380Y005040D01*
X008298Y005122D01*
X008298Y005553D01*
X008380Y005635D01*
X008969Y005635D01*
X009051Y005553D01*
X009051Y005122D01*
X008969Y005040D01*
X008874Y005040D01*
X008874Y004822D01*
X008757Y004704D01*
X008557Y004504D01*
X008989Y004504D01*
X009272Y004786D01*
X009272Y006558D01*
X009409Y006696D01*
X009521Y006807D01*
X009617Y006807D01*
X009617Y006892D01*
X009699Y006974D01*
X010209Y006974D01*
X010291Y006892D01*
X010291Y006817D01*
X010452Y006817D01*
X010542Y006908D01*
X010902Y006908D01*
X010274Y006908D01*
X010535Y006617D02*
X009954Y006617D01*
X009633Y006908D02*
X006753Y006908D01*
X006753Y006790D02*
X009503Y006790D01*
X009385Y006671D02*
X006753Y006671D01*
X006753Y006553D02*
X009272Y006553D01*
X009272Y006434D02*
X006753Y006434D01*
X006753Y006316D02*
X008324Y006316D01*
X008310Y006302D02*
X008289Y006265D01*
X008278Y006225D01*
X008278Y006065D01*
X008656Y006065D01*
X008656Y006364D01*
X008417Y006364D01*
X008376Y006353D01*
X008340Y006332D01*
X008310Y006302D01*
X008278Y006197D02*
X006753Y006197D01*
X006729Y006079D02*
X008278Y006079D01*
X008278Y006027D02*
X008278Y005868D01*
X008289Y005827D01*
X008310Y005790D01*
X008340Y005761D01*
X008376Y005740D01*
X008417Y005729D01*
X008656Y005729D01*
X008656Y006027D01*
X008693Y006027D01*
X008693Y005729D01*
X008932Y005729D01*
X008972Y005740D01*
X009009Y005761D01*
X009039Y005790D01*
X009060Y005827D01*
X009071Y005868D01*
X009071Y006027D01*
X008693Y006027D01*
X008693Y006065D01*
X008656Y006065D01*
X008656Y006027D01*
X008278Y006027D01*
X008278Y005960D02*
X006847Y005960D01*
X006966Y005842D02*
X008285Y005842D01*
X008350Y005605D02*
X007613Y005605D01*
X007672Y005486D02*
X008298Y005486D01*
X008298Y005368D02*
X007708Y005368D01*
X007708Y005249D02*
X008298Y005249D01*
X008298Y005131D02*
X007681Y005131D01*
X007631Y005012D02*
X008474Y005012D01*
X008381Y004894D02*
X007515Y004894D01*
X007494Y005723D02*
X009272Y005723D01*
X009272Y005605D02*
X008999Y005605D01*
X009051Y005486D02*
X009272Y005486D01*
X009272Y005368D02*
X009051Y005368D01*
X009051Y005249D02*
X009272Y005249D01*
X009272Y005131D02*
X009051Y005131D01*
X008874Y005012D02*
X009272Y005012D01*
X009272Y004894D02*
X008874Y004894D01*
X008828Y004775D02*
X009260Y004775D01*
X009142Y004657D02*
X008709Y004657D01*
X008591Y004538D02*
X009023Y004538D01*
X008674Y004904D02*
X008674Y005337D01*
X008674Y004904D02*
X008379Y004609D01*
X005328Y004609D01*
X004995Y004942D01*
X004995Y006583D01*
X004745Y006157D02*
X004795Y006107D01*
X004795Y004859D01*
X005128Y004526D01*
X005150Y004504D01*
X002690Y004504D01*
X002579Y004393D01*
X002579Y004393D01*
X001805Y003619D01*
X001805Y003318D01*
X001737Y003250D01*
X001737Y002416D01*
X001854Y002299D01*
X002137Y002299D01*
X002245Y002407D01*
X002354Y002299D01*
X002637Y002299D01*
X002745Y002407D01*
X002854Y002299D01*
X003137Y002299D01*
X003245Y002407D01*
X003354Y002299D01*
X003637Y002299D01*
X003745Y002407D01*
X003854Y002299D01*
X004137Y002299D01*
X004245Y002407D01*
X004354Y002299D01*
X004637Y002299D01*
X004745Y002407D01*
X004854Y002299D01*
X005137Y002299D01*
X005245Y002407D01*
X005354Y002299D01*
X005637Y002299D01*
X005745Y002407D01*
X005854Y002299D01*
X006137Y002299D01*
X006245Y002407D01*
X006354Y002299D01*
X006637Y002299D01*
X006753Y002416D01*
X006753Y002633D01*
X006923Y002633D01*
X008474Y001081D01*
X008591Y000964D01*
X008869Y000964D01*
X008869Y000909D01*
X008951Y000827D01*
X009500Y000827D01*
X009560Y000888D01*
X009620Y000827D01*
X010169Y000827D01*
X010251Y000909D01*
X010251Y000964D01*
X010788Y000964D01*
X010788Y000909D01*
X010870Y000827D01*
X011419Y000827D01*
X011501Y000909D01*
X011501Y001419D01*
X011419Y001501D01*
X010870Y001501D01*
X010788Y001419D01*
X010788Y001364D01*
X010251Y001364D01*
X010251Y001419D01*
X010169Y001501D01*
X009620Y001501D01*
X009560Y001441D01*
X009500Y001501D01*
X008951Y001501D01*
X008869Y001419D01*
X008869Y001364D01*
X008757Y001364D01*
X007089Y003033D01*
X006753Y003033D01*
X006753Y003250D01*
X006637Y003366D01*
X006354Y003366D01*
X006245Y003258D01*
X006137Y003366D01*
X005854Y003366D01*
X005745Y003258D01*
X005637Y003366D01*
X005354Y003366D01*
X005245Y003258D01*
X005137Y003366D01*
X004854Y003366D01*
X004745Y003258D01*
X004637Y003366D01*
X004354Y003366D01*
X004245Y003258D01*
X004196Y003307D01*
X004324Y003435D01*
X007414Y003435D01*
X008221Y002629D01*
X008332Y002518D01*
X010898Y002518D01*
X010941Y002413D01*
X011087Y002267D01*
X011278Y002188D01*
X011485Y002188D01*
X011676Y002267D01*
X011823Y002413D01*
X011902Y002604D01*
X011902Y002811D01*
X011823Y003002D01*
X011676Y003148D01*
X011485Y003228D01*
X011482Y003228D01*
X011576Y003267D01*
X011723Y003413D01*
X011802Y003604D01*
X011802Y003811D01*
X011723Y004002D01*
X011576Y004148D01*
X011501Y004180D01*
X011508Y004181D01*
X011589Y004207D01*
X011665Y004246D01*
X011734Y004296D01*
X011794Y004356D01*
X011844Y004425D01*
X011882Y004500D01*
X011908Y004581D01*
X011921Y004659D01*
X011430Y004659D01*
X011430Y004756D01*
X011921Y004756D01*
X011908Y004834D01*
X011882Y004915D01*
X011844Y004991D01*
X011794Y005059D01*
X011734Y005119D01*
X011665Y005169D01*
X011589Y005208D01*
X011508Y005234D01*
X011501Y005235D01*
X011576Y005267D01*
X011723Y005413D01*
X011802Y005604D01*
X011802Y005811D01*
X011723Y006002D01*
X011576Y006148D01*
X011482Y006188D01*
X011485Y006188D01*
X011676Y006267D01*
X011823Y006413D01*
X011902Y006604D01*
X011902Y006811D01*
X011823Y007002D01*
X011676Y007148D01*
X011485Y007228D01*
X011278Y007228D01*
X011087Y007148D01*
X010941Y007002D01*
X010902Y006908D01*
X010965Y007027D02*
X006727Y007027D01*
X006695Y007145D02*
X011084Y007145D01*
X011382Y006708D02*
X010625Y006708D01*
X010535Y006617D01*
X010387Y005948D02*
X009954Y005948D01*
X009954Y004609D01*
X009412Y004068D01*
X003261Y004068D01*
X003113Y003920D01*
X002606Y004420D02*
X001582Y004420D01*
X001492Y004329D02*
X002181Y005018D01*
X002181Y006094D01*
X002239Y006151D01*
X002261Y006114D01*
X002302Y006073D01*
X002352Y006044D01*
X002407Y006029D01*
X002495Y006029D01*
X002495Y006583D01*
X002495Y007136D01*
X002407Y007136D01*
X002352Y007121D01*
X002302Y007093D01*
X002261Y007052D01*
X002239Y007014D01*
X002171Y007082D01*
X002171Y007159D01*
X002184Y007289D01*
X002076Y007547D01*
X001936Y007660D01*
X002402Y007660D01*
X002805Y007257D01*
X002805Y007068D01*
X002751Y007014D01*
X002729Y007052D01*
X002689Y007093D01*
X002639Y007121D01*
X002583Y007136D01*
X002495Y007136D01*
X002495Y006583D01*
X002495Y006583D01*
X002495Y006583D01*
X002495Y006029D01*
X002583Y006029D01*
X002639Y006044D01*
X002689Y006073D01*
X002729Y006114D01*
X002751Y006151D01*
X002854Y006049D01*
X003137Y006049D01*
X003245Y006157D01*
X003354Y006049D01*
X003637Y006049D01*
X003745Y006157D01*
X003854Y006049D01*
X004137Y006049D01*
X004245Y006157D01*
X004275Y006127D01*
X004275Y006033D01*
X004022Y005780D01*
X003953Y005808D01*
X003750Y005808D01*
X003563Y005730D01*
X003419Y005587D01*
X003341Y005400D01*
X003341Y005197D01*
X003419Y005009D01*
X003563Y004866D01*
X003750Y004788D01*
X003953Y004788D01*
X004140Y004866D01*
X004284Y005009D01*
X004361Y005197D01*
X004361Y005400D01*
X004333Y005468D01*
X004715Y005851D01*
X004715Y006127D01*
X004745Y006157D01*
X004715Y006079D02*
X004795Y006079D01*
X004795Y005960D02*
X004715Y005960D01*
X004706Y005842D02*
X004795Y005842D01*
X004795Y005723D02*
X004587Y005723D01*
X004469Y005605D02*
X004795Y005605D01*
X004795Y005486D02*
X004350Y005486D01*
X004361Y005368D02*
X004795Y005368D01*
X004795Y005249D02*
X004361Y005249D01*
X004334Y005131D02*
X004795Y005131D01*
X004795Y005012D02*
X004285Y005012D01*
X004168Y004894D02*
X004795Y004894D01*
X004879Y004775D02*
X001938Y004775D01*
X002056Y004894D02*
X003535Y004894D01*
X003418Y005012D02*
X002175Y005012D01*
X002181Y005131D02*
X003369Y005131D01*
X003341Y005249D02*
X002181Y005249D01*
X002181Y005368D02*
X003341Y005368D01*
X003377Y005486D02*
X002181Y005486D01*
X002181Y005605D02*
X003437Y005605D01*
X003555Y005723D02*
X002181Y005723D01*
X002181Y005842D02*
X004084Y005842D01*
X004202Y005960D02*
X002181Y005960D01*
X002181Y006079D02*
X002296Y006079D01*
X002495Y006079D02*
X002495Y006079D01*
X002495Y006197D02*
X002495Y006197D01*
X002495Y006316D02*
X002495Y006316D01*
X002495Y006434D02*
X002495Y006434D01*
X002495Y006553D02*
X002495Y006553D01*
X002495Y006671D02*
X002495Y006671D01*
X002495Y006790D02*
X002495Y006790D01*
X002495Y006908D02*
X002495Y006908D01*
X002495Y007027D02*
X002495Y007027D01*
X002680Y007382D02*
X002145Y007382D01*
X002184Y007289D02*
X002184Y007289D01*
X002181Y007264D02*
X002798Y007264D01*
X002805Y007145D02*
X002171Y007145D01*
X002227Y007027D02*
X002246Y007027D01*
X002095Y007501D02*
X002561Y007501D01*
X002443Y007619D02*
X001987Y007619D01*
X002076Y007547D02*
X002076Y007547D01*
X002382Y007956D02*
X001581Y007956D01*
X001581Y008920D01*
X001581Y008932D01*
X001535Y009011D01*
X001690Y008947D01*
X002307Y008947D01*
X002287Y008898D01*
X002287Y008785D01*
X002330Y008680D01*
X002382Y008628D01*
X002382Y007956D01*
X002382Y007975D02*
X001581Y007975D01*
X001581Y008093D02*
X002382Y008093D01*
X002382Y008212D02*
X001581Y008212D01*
X001581Y008330D02*
X002382Y008330D01*
X002382Y008449D02*
X001581Y008449D01*
X001581Y008567D02*
X002382Y008567D01*
X002328Y008686D02*
X001581Y008686D01*
X001581Y008804D02*
X002287Y008804D01*
X002297Y008923D02*
X001581Y008923D01*
X001581Y008932D02*
X001581Y008932D01*
X001201Y008799D02*
X001201Y007981D01*
X001198Y007979D01*
X001199Y007956D01*
X000271Y007956D01*
X000271Y020296D01*
X004617Y020296D01*
X004545Y020223D01*
X004501Y020119D01*
X004501Y020005D01*
X004542Y019907D01*
X004502Y019907D01*
X004455Y019860D01*
X004452Y019865D01*
X004422Y019895D01*
X004386Y019916D01*
X004345Y019927D01*
X004146Y019927D01*
X004146Y019608D01*
X004069Y019608D01*
X004069Y019531D01*
X004146Y019531D01*
X004146Y019213D01*
X004345Y019213D01*
X004386Y019224D01*
X004422Y019245D01*
X004452Y019275D01*
X004455Y019280D01*
X004502Y019233D01*
X004557Y019233D01*
X004557Y019021D01*
X004502Y019021D01*
X004442Y018961D01*
X004382Y019021D01*
X003833Y019021D01*
X003751Y018939D01*
X003751Y018914D01*
X003401Y018914D01*
X003401Y018968D01*
X003354Y019015D01*
X003359Y019019D01*
X003389Y019048D01*
X003410Y019085D01*
X003421Y019125D01*
X003421Y019325D01*
X003102Y019325D01*
X003102Y019401D01*
X003102Y019402D02*
X003026Y019402D01*
X003026Y019740D01*
X002846Y019740D01*
X002805Y019729D01*
X002769Y019708D01*
X002739Y019678D01*
X002718Y019641D01*
X002707Y019601D01*
X002707Y019401D01*
X003026Y019401D01*
X003026Y019325D01*
X002707Y019325D01*
X002707Y019125D01*
X002718Y019085D01*
X002739Y019048D01*
X002769Y019019D01*
X002774Y019015D01*
X002727Y018968D01*
X002727Y018914D01*
X002377Y018914D01*
X002377Y018939D01*
X002295Y019021D01*
X001746Y019021D01*
X001686Y018961D01*
X001626Y019021D01*
X001077Y019021D01*
X000995Y018939D01*
X000995Y018429D01*
X001077Y018347D01*
X001131Y018347D01*
X001131Y018283D01*
X000426Y018283D01*
X000315Y018172D01*
X000315Y015160D01*
X000426Y015049D01*
X000518Y015049D01*
X000518Y014978D01*
X001427Y014978D01*
X001427Y014901D01*
X001504Y014901D01*
X001504Y014583D01*
X002185Y014583D01*
X002185Y014078D01*
X002296Y013966D01*
X005308Y013966D01*
X005419Y014078D01*
X005419Y014226D01*
X005438Y014218D01*
X005482Y014209D01*
X005565Y014209D01*
X005565Y014754D01*
X005583Y014754D01*
X005583Y014209D01*
X005665Y014209D01*
X005710Y014218D01*
X005751Y014235D01*
X005789Y014260D01*
X005821Y014292D01*
X005835Y014313D01*
X005918Y014229D01*
X006229Y014229D01*
X006352Y014351D01*
X006352Y014563D01*
X006861Y014563D01*
X006861Y014482D01*
X006943Y014400D01*
X007453Y014400D01*
X007535Y014482D01*
X007535Y015031D01*
X007475Y015091D01*
X007535Y015152D01*
X007535Y015701D01*
X007453Y015783D01*
X007398Y015783D01*
X007398Y017107D01*
X007453Y017107D01*
X007535Y017189D01*
X007535Y017738D01*
X007475Y017798D01*
X007535Y017858D01*
X007535Y017933D01*
X008869Y017933D01*
X008869Y017888D01*
X008951Y017806D01*
X009122Y017806D01*
X009122Y017636D01*
X009072Y017586D01*
X008977Y017680D01*
X008667Y017680D01*
X008583Y017596D01*
X008569Y017617D01*
X008537Y017649D01*
X008499Y017674D01*
X008458Y017691D01*
X008413Y017700D01*
X008331Y017700D01*
X008331Y017155D01*
X008313Y017155D01*
X008313Y017138D01*
X008024Y017138D01*
X008024Y016799D01*
X008033Y016755D01*
X008050Y016713D01*
X008075Y016676D01*
X008107Y016644D01*
X008145Y016619D01*
X008186Y016602D01*
X008230Y016593D01*
X008313Y016593D01*
X008313Y017138D01*
X008331Y017138D01*
X008331Y016593D01*
X008413Y016593D01*
X008458Y016602D01*
X008499Y016619D01*
X008537Y016644D01*
X008569Y016676D01*
X008583Y016697D01*
X008622Y016657D01*
X008622Y016469D01*
X008620Y016457D01*
X008608Y016437D01*
X008588Y016425D01*
X008576Y016423D01*
X008454Y016423D01*
X008244Y016302D01*
X008244Y016302D01*
X008244Y016302D01*
X008122Y016091D01*
X008122Y015242D01*
X008044Y015164D01*
X008044Y014342D01*
X008122Y014264D01*
X008122Y013509D01*
X008121Y013499D01*
X008111Y013482D01*
X008094Y013472D01*
X008084Y013471D01*
X005566Y013471D01*
X005566Y013535D01*
X005484Y013617D01*
X004975Y013617D01*
X004893Y013535D01*
X004893Y013471D01*
X003464Y013471D01*
X003422Y013512D01*
X003318Y013556D01*
X003204Y013556D01*
X003099Y013512D01*
X003019Y013432D01*
X002976Y013327D01*
X002976Y013214D01*
X003019Y013109D01*
X003071Y013058D01*
X003071Y012968D01*
X002996Y012968D01*
X002914Y012886D01*
X002914Y012831D01*
X002820Y012831D01*
X002820Y012886D01*
X002738Y012968D01*
X002189Y012968D01*
X002142Y012921D01*
X002139Y012926D01*
X002109Y012956D01*
X002073Y012977D01*
X002032Y012988D01*
X001833Y012988D01*
X001833Y012669D01*
X001756Y012669D01*
X001756Y012592D01*
X001833Y012592D01*
X001833Y012274D01*
X002032Y012274D01*
X002073Y012285D01*
X002109Y012306D01*
X002139Y012336D01*
X002142Y012341D01*
X002189Y012294D01*
X002738Y012294D01*
X002820Y012376D01*
X002820Y012431D01*
X002914Y012431D01*
X002914Y012376D01*
X002996Y012294D01*
X003545Y012294D01*
X003605Y012354D01*
X003666Y012294D01*
X004215Y012294D01*
X004297Y012376D01*
X004297Y012392D01*
X004385Y012356D01*
X004499Y012356D01*
X004603Y012399D01*
X004684Y012479D01*
X004727Y012584D01*
X004727Y012697D01*
X004684Y012802D01*
X004603Y012882D01*
X004499Y012926D01*
X004385Y012926D01*
X004294Y012888D01*
X004215Y012968D01*
X003666Y012968D01*
X003605Y012908D01*
X003545Y012968D01*
X003471Y012968D01*
X003471Y013071D01*
X004893Y013071D01*
X004893Y012986D01*
X004940Y012939D01*
X004934Y012936D01*
X004905Y012906D01*
X004883Y012870D01*
X004873Y012829D01*
X004873Y012630D01*
X005191Y012630D01*
X005191Y012553D01*
X005268Y012553D01*
X005268Y012630D01*
X005586Y012630D01*
X005586Y012829D01*
X005575Y012870D01*
X005554Y012906D01*
X005525Y012936D01*
X005519Y012939D01*
X005566Y012986D01*
X005566Y013071D01*
X008201Y013071D01*
X008377Y013172D01*
X008377Y012671D01*
X008459Y012589D01*
X009008Y012589D01*
X009068Y012649D01*
X009128Y012589D01*
X009677Y012589D01*
X009759Y012671D01*
X009759Y012726D01*
X011086Y012726D01*
X011133Y012721D01*
X011221Y012685D01*
X011288Y012618D01*
X011324Y012531D01*
X011329Y012483D01*
X011329Y012092D01*
X011274Y012092D01*
X011192Y012010D01*
X011192Y011461D01*
X011252Y011400D01*
X011192Y011340D01*
X011192Y011266D01*
X011078Y011266D01*
X011078Y011340D01*
X011031Y011387D01*
X011036Y011391D01*
X011066Y011420D01*
X011087Y011457D01*
X011098Y011498D01*
X011098Y011697D01*
X010780Y011697D01*
X010780Y011774D01*
X010703Y011774D01*
X010703Y012112D01*
X010523Y012112D01*
X010483Y012101D01*
X010446Y012080D01*
X010416Y012050D01*
X010395Y012013D01*
X010384Y011973D01*
X010384Y011774D01*
X010703Y011774D01*
X010703Y011697D01*
X010384Y011697D01*
X010384Y011498D01*
X010395Y011457D01*
X010416Y011420D01*
X010446Y011391D01*
X010451Y011387D01*
X010404Y011340D01*
X010404Y011260D01*
X010065Y011260D01*
X010026Y011299D01*
X010047Y011313D01*
X010078Y011345D01*
X010104Y011383D01*
X010121Y011424D01*
X010130Y011468D01*
X010130Y011551D01*
X009585Y011551D01*
X009585Y011569D01*
X010130Y011569D01*
X010130Y011651D01*
X010121Y011696D01*
X010104Y011737D01*
X010078Y011775D01*
X010047Y011807D01*
X010009Y011832D01*
X009967Y011849D01*
X009923Y011858D01*
X009585Y011858D01*
X009585Y011569D01*
X009567Y011569D01*
X009567Y011858D01*
X009229Y011858D01*
X009184Y011849D01*
X009143Y011832D01*
X009105Y011807D01*
X009073Y011775D01*
X009048Y011737D01*
X009031Y011696D01*
X009022Y011651D01*
X009022Y011569D01*
X009567Y011569D01*
X009567Y011551D01*
X009022Y011551D01*
X009022Y011468D01*
X009031Y011424D01*
X009048Y011383D01*
X009073Y011345D01*
X009105Y011313D01*
X009126Y011299D01*
X009042Y011215D01*
X009042Y010904D01*
X009137Y010810D01*
X009087Y010760D01*
X008826Y010760D01*
X008813Y010762D01*
X008791Y010775D01*
X008778Y010797D01*
X008776Y010810D01*
X008776Y011794D01*
X008700Y011976D01*
X008561Y012116D01*
X008379Y012191D01*
X004729Y012191D01*
X004545Y012085D01*
X004545Y012085D01*
X004545Y012085D01*
X004439Y011901D01*
X004439Y010988D01*
X004556Y010786D01*
X004758Y010669D01*
X004893Y010669D01*
X004893Y010594D01*
X004975Y010512D01*
X005029Y010512D01*
X005029Y010225D01*
X005123Y010063D01*
X005284Y009970D01*
X005325Y009970D01*
X005325Y007956D01*
X003943Y007956D01*
X003943Y009117D01*
X003943Y009135D01*
X003869Y009313D01*
X003869Y009313D01*
X003733Y009450D01*
X003733Y009450D01*
X003554Y009524D01*
X002428Y009524D01*
X002476Y009571D01*
X002476Y009606D01*
X002635Y009606D01*
X002852Y009823D01*
X002914Y009823D01*
X002914Y009768D01*
X002996Y009686D01*
X003545Y009686D01*
X003605Y009746D01*
X003666Y009686D01*
X004215Y009686D01*
X004297Y009768D01*
X004297Y009774D01*
X004385Y009738D01*
X004499Y009738D01*
X004603Y009781D01*
X004684Y009861D01*
X004727Y009966D01*
X004727Y010079D01*
X004684Y010184D01*
X004603Y010264D01*
X004499Y010308D01*
X004385Y010308D01*
X004297Y010271D01*
X004297Y010277D01*
X004215Y010359D01*
X004194Y010359D01*
X004235Y010458D01*
X004235Y010571D01*
X004191Y010676D01*
X004111Y010756D01*
X004007Y010800D01*
X003893Y010800D01*
X003788Y010756D01*
X003708Y010676D01*
X003665Y010571D01*
X003665Y010458D01*
X003706Y010359D01*
X003666Y010359D01*
X003605Y010299D01*
X003545Y010359D01*
X002996Y010359D01*
X002914Y010277D01*
X002914Y010223D01*
X002686Y010223D01*
X002569Y010105D01*
X002476Y010012D01*
X002476Y010041D01*
X002374Y010143D01*
X002160Y010143D01*
X002139Y010122D01*
X002118Y010143D01*
X001922Y010143D01*
X002089Y010239D01*
X002089Y010239D01*
X002089Y010239D01*
X002201Y010433D01*
X002201Y010493D01*
X002374Y010493D01*
X002476Y010595D01*
X002476Y011064D01*
X002467Y011073D01*
X002467Y011260D01*
X002689Y011260D01*
X002771Y011342D01*
X002771Y011397D01*
X002914Y011397D01*
X002914Y011342D01*
X002996Y011260D01*
X003061Y011260D01*
X003061Y011259D01*
X003019Y011217D01*
X002976Y011113D01*
X002976Y010999D01*
X003019Y010895D01*
X003099Y010814D01*
X003204Y010771D01*
X003318Y010771D01*
X003422Y010814D01*
X003503Y010895D01*
X003546Y010999D01*
X003546Y011113D01*
X003503Y011217D01*
X003461Y011259D01*
X003461Y011260D01*
X003545Y011260D01*
X003592Y011308D01*
X003595Y011302D01*
X003625Y011272D01*
X003662Y011251D01*
X003702Y011240D01*
X003902Y011240D01*
X003902Y011559D01*
X003978Y011559D01*
X003978Y011240D01*
X004178Y011240D01*
X004218Y011251D01*
X004255Y011272D01*
X004285Y011302D01*
X004306Y011339D01*
X004317Y011379D01*
X004317Y011559D01*
X003978Y011559D01*
X003978Y011636D01*
X003902Y011636D01*
X003902Y011954D01*
X003702Y011954D01*
X003662Y011943D01*
X003625Y011922D01*
X003595Y011892D01*
X003592Y011887D01*
X003545Y011934D01*
X002996Y011934D01*
X002914Y011852D01*
X002914Y011797D01*
X002771Y011797D01*
X002771Y011852D01*
X002689Y011934D01*
X002140Y011934D01*
X002093Y011887D01*
X002090Y011892D01*
X002060Y011922D01*
X002023Y011943D01*
X001983Y011954D01*
X001784Y011954D01*
X001784Y011636D01*
X001707Y011636D01*
X001707Y011954D01*
X001508Y011954D01*
X001467Y011943D01*
X001430Y011922D01*
X001401Y011892D01*
X001380Y011856D01*
X001369Y011815D01*
X001369Y011636D01*
X001707Y011636D01*
X001707Y011559D01*
X001784Y011559D01*
X001784Y011240D01*
X001983Y011240D01*
X002023Y011251D01*
X002060Y011272D01*
X002067Y011279D01*
X002067Y011166D01*
X001904Y011166D01*
X001894Y011156D01*
X001865Y011173D01*
X001815Y011186D01*
X001755Y011186D01*
X001695Y011186D01*
X001645Y011173D01*
X001616Y011156D01*
X001606Y011166D01*
X001392Y011166D01*
X001290Y011064D01*
X001290Y011020D01*
X001037Y011020D01*
X000722Y010705D01*
X000610Y010593D01*
X000610Y009054D01*
X000559Y009003D01*
X000515Y008898D01*
X000515Y008785D01*
X000559Y008680D01*
X000639Y008600D01*
X000744Y008556D01*
X000857Y008556D01*
X000962Y008600D01*
X001042Y008680D01*
X001085Y008785D01*
X001085Y008838D01*
X001153Y008799D01*
X001201Y008799D01*
X001144Y008804D02*
X001085Y008804D01*
X001044Y008686D02*
X001201Y008686D01*
X001201Y008567D02*
X000883Y008567D01*
X000718Y008567D02*
X000271Y008567D01*
X000271Y008449D02*
X001201Y008449D01*
X001201Y008330D02*
X000271Y008330D01*
X000271Y008212D02*
X001201Y008212D01*
X001201Y008093D02*
X000271Y008093D01*
X000271Y007975D02*
X001198Y007975D01*
X001265Y007660D02*
X001323Y007549D01*
X001526Y007399D01*
X001573Y007390D01*
X001651Y007375D01*
X001692Y007362D01*
X001758Y007308D01*
X001791Y007229D01*
X001791Y007219D01*
X001791Y007177D01*
X001785Y007108D01*
X001791Y007100D01*
X001791Y007054D01*
X001737Y007000D01*
X001737Y006783D01*
X001059Y006783D01*
X001059Y006862D01*
X000977Y006944D01*
X000467Y006944D01*
X000385Y006862D01*
X000385Y006312D01*
X000432Y006265D01*
X000427Y006262D01*
X000397Y006232D01*
X000376Y006196D01*
X000365Y006155D01*
X000365Y005956D01*
X000683Y005956D01*
X000683Y005879D01*
X000365Y005879D01*
X000365Y005680D01*
X000376Y005639D01*
X000397Y005603D01*
X000427Y005573D01*
X000463Y005552D01*
X000504Y005541D01*
X000683Y005541D01*
X000683Y005879D01*
X000760Y005879D01*
X000760Y005541D01*
X000940Y005541D01*
X000980Y005552D01*
X001017Y005573D01*
X001047Y005603D01*
X001068Y005639D01*
X001079Y005680D01*
X001079Y005879D01*
X000760Y005879D01*
X000760Y005956D01*
X001079Y005956D01*
X001079Y006155D01*
X001068Y006196D01*
X001047Y006232D01*
X001017Y006262D01*
X001012Y006265D01*
X001059Y006312D01*
X001059Y006383D01*
X001737Y006383D01*
X001737Y006166D01*
X001781Y006121D01*
X001781Y005184D01*
X001210Y004612D01*
X001092Y004495D01*
X001092Y002066D01*
X001585Y001574D01*
X001585Y001465D01*
X001507Y001433D01*
X001369Y001295D01*
X001295Y001115D01*
X001295Y000920D01*
X001369Y000740D01*
X001507Y000602D01*
X001687Y000527D01*
X001882Y000527D01*
X002062Y000602D01*
X002200Y000740D01*
X002275Y000920D01*
X002275Y001115D01*
X002200Y001295D01*
X002062Y001433D01*
X001985Y001465D01*
X001985Y001739D01*
X001867Y001856D01*
X001492Y002231D01*
X001492Y004329D01*
X001492Y004301D02*
X002487Y004301D01*
X002369Y004183D02*
X001492Y004183D01*
X001492Y004064D02*
X002250Y004064D01*
X002132Y003946D02*
X001492Y003946D01*
X001492Y003827D02*
X002013Y003827D01*
X001895Y003709D02*
X001492Y003709D01*
X001492Y003590D02*
X001805Y003590D01*
X001805Y003472D02*
X001492Y003472D01*
X001492Y003353D02*
X001805Y003353D01*
X001737Y003235D02*
X001492Y003235D01*
X001492Y003116D02*
X001737Y003116D01*
X001737Y002998D02*
X001492Y002998D01*
X001492Y002879D02*
X001737Y002879D01*
X001737Y002761D02*
X001492Y002761D01*
X001492Y002642D02*
X001737Y002642D01*
X001737Y002524D02*
X001492Y002524D01*
X001492Y002405D02*
X001748Y002405D01*
X001556Y002168D02*
X007388Y002168D01*
X007506Y002050D02*
X001674Y002050D01*
X001793Y001931D02*
X007625Y001931D01*
X007743Y001813D02*
X001911Y001813D01*
X001985Y001694D02*
X007862Y001694D01*
X007980Y001576D02*
X001985Y001576D01*
X002004Y001457D02*
X003565Y001457D01*
X003507Y001433D02*
X003369Y001295D01*
X003295Y001115D01*
X003295Y000920D01*
X003369Y000740D01*
X003507Y000602D01*
X003687Y000527D01*
X003882Y000527D01*
X004062Y000602D01*
X004200Y000740D01*
X004275Y000920D01*
X004275Y001115D01*
X004200Y001295D01*
X004062Y001433D01*
X003882Y001507D01*
X003687Y001507D01*
X003507Y001433D01*
X003413Y001339D02*
X003048Y001339D01*
X003062Y001333D02*
X002882Y001407D01*
X002687Y001407D01*
X002507Y001333D01*
X002369Y001195D01*
X002295Y001015D01*
X002295Y000820D01*
X002369Y000640D01*
X002507Y000502D01*
X002687Y000427D01*
X002882Y000427D01*
X003062Y000502D01*
X003200Y000640D01*
X003275Y000820D01*
X003275Y001015D01*
X003200Y001195D01*
X003062Y001333D01*
X003175Y001220D02*
X003338Y001220D01*
X003295Y001102D02*
X003239Y001102D01*
X003275Y000983D02*
X003295Y000983D01*
X003275Y000865D02*
X003317Y000865D01*
X003367Y000746D02*
X003244Y000746D01*
X003188Y000628D02*
X003481Y000628D01*
X003069Y000509D02*
X004479Y000509D01*
X004452Y000528D02*
X004517Y000481D01*
X004589Y000445D01*
X004665Y000420D01*
X004744Y000407D01*
X004745Y000407D01*
X004745Y000877D01*
X004825Y000877D01*
X004825Y000957D01*
X005295Y000957D01*
X005295Y000958D01*
X005282Y001037D01*
X005257Y001113D01*
X005221Y001185D01*
X005174Y001250D01*
X005117Y001306D01*
X005052Y001354D01*
X004980Y001390D01*
X004904Y001415D01*
X004825Y001427D01*
X004825Y001427D01*
X004825Y000957D01*
X004745Y000957D01*
X004745Y000877D01*
X004275Y000877D01*
X004287Y000798D01*
X004312Y000722D01*
X004348Y000650D01*
X004396Y000585D01*
X004452Y000528D01*
X004365Y000628D02*
X004088Y000628D01*
X004202Y000746D02*
X004304Y000746D01*
X004277Y000865D02*
X004252Y000865D01*
X004275Y000877D02*
X004275Y000877D01*
X004275Y000957D02*
X004745Y000957D01*
X004745Y001427D01*
X004744Y001427D01*
X004665Y001415D01*
X004589Y001390D01*
X004517Y001354D01*
X004452Y001306D01*
X004396Y001250D01*
X004348Y001185D01*
X004312Y001113D01*
X004287Y001037D01*
X004275Y000958D01*
X004275Y000957D01*
X004275Y000983D02*
X004279Y000983D01*
X004275Y001102D02*
X004308Y001102D01*
X004374Y001220D02*
X004231Y001220D01*
X004156Y001339D02*
X004496Y001339D01*
X004745Y001339D02*
X004825Y001339D01*
X004825Y001220D02*
X004745Y001220D01*
X004745Y001102D02*
X004825Y001102D01*
X004825Y000983D02*
X004745Y000983D01*
X004745Y000865D02*
X004825Y000865D01*
X004825Y000877D02*
X004825Y000407D01*
X004904Y000420D01*
X004980Y000445D01*
X005052Y000481D01*
X005117Y000528D01*
X005174Y000585D01*
X005221Y000650D01*
X005257Y000722D01*
X005282Y000798D01*
X005295Y000877D01*
X005295Y000877D01*
X004825Y000877D01*
X004825Y000746D02*
X004745Y000746D01*
X004745Y000628D02*
X004825Y000628D01*
X004825Y000509D02*
X004745Y000509D01*
X004825Y000407D02*
X004825Y000407D01*
X005090Y000509D02*
X006500Y000509D01*
X006507Y000502D02*
X006687Y000427D01*
X006882Y000427D01*
X007062Y000502D01*
X007200Y000640D01*
X007275Y000820D01*
X007275Y001015D01*
X007200Y001195D01*
X007062Y001333D01*
X006882Y001407D01*
X006687Y001407D01*
X006507Y001333D01*
X006369Y001195D01*
X006295Y001015D01*
X006295Y000820D01*
X006369Y000640D01*
X006507Y000502D01*
X006381Y000628D02*
X006088Y000628D01*
X006062Y000602D02*
X006200Y000740D01*
X006275Y000920D01*
X006275Y001115D01*
X006200Y001295D01*
X006062Y001433D01*
X005882Y001507D01*
X005687Y001507D01*
X005507Y001433D01*
X005369Y001295D01*
X005295Y001115D01*
X005295Y000920D01*
X005369Y000740D01*
X005507Y000602D01*
X005687Y000527D01*
X005882Y000527D01*
X006062Y000602D01*
X006202Y000746D02*
X006325Y000746D01*
X006295Y000865D02*
X006252Y000865D01*
X006275Y000983D02*
X006295Y000983D01*
X006275Y001102D02*
X006330Y001102D01*
X006394Y001220D02*
X006231Y001220D01*
X006156Y001339D02*
X006521Y001339D01*
X007048Y001339D02*
X008217Y001339D01*
X008099Y001457D02*
X006004Y001457D01*
X005565Y001457D02*
X004004Y001457D01*
X004243Y002405D02*
X004248Y002405D01*
X003748Y002405D02*
X003743Y002405D01*
X003248Y002405D02*
X003243Y002405D01*
X002748Y002405D02*
X002743Y002405D01*
X002248Y002405D02*
X002243Y002405D01*
X001785Y001656D02*
X001785Y001017D01*
X001481Y000628D02*
X000271Y000628D01*
X000271Y000746D02*
X001367Y000746D01*
X001317Y000865D02*
X000271Y000865D01*
X000271Y000983D02*
X001295Y000983D01*
X001295Y001102D02*
X000271Y001102D01*
X000271Y001220D02*
X001338Y001220D01*
X001413Y001339D02*
X000271Y001339D01*
X000271Y001457D02*
X001565Y001457D01*
X001583Y001576D02*
X000271Y001576D01*
X000271Y001694D02*
X001464Y001694D01*
X001346Y001813D02*
X000271Y001813D01*
X000271Y001931D02*
X001227Y001931D01*
X001109Y002050D02*
X000271Y002050D01*
X000271Y002168D02*
X001092Y002168D01*
X001092Y002287D02*
X000271Y002287D01*
X000271Y002405D02*
X001092Y002405D01*
X001092Y002524D02*
X000271Y002524D01*
X000271Y002642D02*
X001092Y002642D01*
X001092Y002761D02*
X000271Y002761D01*
X000271Y002879D02*
X001092Y002879D01*
X001092Y002998D02*
X000271Y002998D01*
X000271Y003116D02*
X001092Y003116D01*
X001092Y003235D02*
X000271Y003235D01*
X000271Y003353D02*
X001092Y003353D01*
X001092Y003472D02*
X000271Y003472D01*
X000271Y003590D02*
X001092Y003590D01*
X001092Y003709D02*
X000271Y003709D01*
X000271Y003827D02*
X001092Y003827D01*
X001092Y003946D02*
X000271Y003946D01*
X000271Y004064D02*
X001092Y004064D01*
X001092Y004183D02*
X000271Y004183D01*
X000271Y004301D02*
X001092Y004301D01*
X001092Y004420D02*
X000271Y004420D01*
X000271Y004538D02*
X001135Y004538D01*
X001254Y004657D02*
X000271Y004657D01*
X000271Y004775D02*
X001372Y004775D01*
X001491Y004894D02*
X000271Y004894D01*
X000271Y005012D02*
X001609Y005012D01*
X001728Y005131D02*
X000271Y005131D01*
X000271Y005249D02*
X001781Y005249D01*
X001781Y005368D02*
X000271Y005368D01*
X000271Y005486D02*
X001781Y005486D01*
X001781Y005605D02*
X001048Y005605D01*
X001079Y005723D02*
X001781Y005723D01*
X001781Y005842D02*
X001079Y005842D01*
X001079Y005960D02*
X001781Y005960D01*
X001781Y006079D02*
X001079Y006079D01*
X001067Y006197D02*
X001737Y006197D01*
X001737Y006316D02*
X001059Y006316D01*
X001059Y006790D02*
X001737Y006790D01*
X001737Y006908D02*
X001012Y006908D01*
X000722Y006587D02*
X000726Y006583D01*
X001995Y006583D01*
X001981Y006569D01*
X001981Y005101D01*
X001292Y004412D01*
X001292Y002149D01*
X001785Y001656D01*
X002156Y001339D02*
X002521Y001339D01*
X002394Y001220D02*
X002231Y001220D01*
X002275Y001102D02*
X002330Y001102D01*
X002295Y000983D02*
X002275Y000983D01*
X002295Y000865D02*
X002252Y000865D01*
X002202Y000746D02*
X002325Y000746D01*
X002381Y000628D02*
X002088Y000628D01*
X002500Y000509D02*
X000271Y000509D01*
X000271Y000391D02*
X012550Y000391D01*
X012550Y000509D02*
X007069Y000509D01*
X007188Y000628D02*
X012550Y000628D01*
X012550Y000746D02*
X007244Y000746D01*
X007275Y000865D02*
X008914Y000865D01*
X008674Y001164D02*
X009225Y001164D01*
X008907Y001457D02*
X008664Y001457D01*
X008546Y001576D02*
X012550Y001576D01*
X012550Y001694D02*
X008427Y001694D01*
X008309Y001813D02*
X012550Y001813D01*
X012550Y001931D02*
X008190Y001931D01*
X008072Y002050D02*
X012550Y002050D01*
X012550Y002168D02*
X007953Y002168D01*
X007835Y002287D02*
X011067Y002287D01*
X010949Y002405D02*
X007716Y002405D01*
X007598Y002524D02*
X008326Y002524D01*
X008207Y002642D02*
X007479Y002642D01*
X007361Y002761D02*
X008089Y002761D01*
X007970Y002879D02*
X007242Y002879D01*
X007124Y002998D02*
X007852Y002998D01*
X007733Y003116D02*
X006753Y003116D01*
X006753Y003235D02*
X007615Y003235D01*
X007496Y003353D02*
X006650Y003353D01*
X006340Y003353D02*
X006150Y003353D01*
X005840Y003353D02*
X005650Y003353D01*
X005340Y003353D02*
X005150Y003353D01*
X004840Y003353D02*
X004650Y003353D01*
X004340Y003353D02*
X004242Y003353D01*
X004743Y002405D02*
X004748Y002405D01*
X005243Y002405D02*
X005248Y002405D01*
X005743Y002405D02*
X005748Y002405D01*
X006243Y002405D02*
X006248Y002405D01*
X006495Y002833D02*
X007006Y002833D01*
X008674Y001164D01*
X008573Y000983D02*
X007275Y000983D01*
X007239Y001102D02*
X008454Y001102D01*
X008336Y001220D02*
X007175Y001220D01*
X007269Y002287D02*
X001492Y002287D01*
X001701Y004538D02*
X005116Y004538D01*
X004998Y004657D02*
X001819Y004657D01*
X002695Y006079D02*
X002824Y006079D01*
X003166Y006079D02*
X003324Y006079D01*
X003666Y006079D02*
X003824Y006079D01*
X004166Y006079D02*
X004275Y006079D01*
X004495Y006583D02*
X004495Y007123D01*
X004497Y007152D01*
X004502Y007181D01*
X004511Y007209D01*
X004523Y007235D01*
X004538Y007260D01*
X004556Y007283D01*
X004577Y007304D01*
X004600Y007322D01*
X004625Y007337D01*
X004651Y007349D01*
X004679Y007358D01*
X004708Y007363D01*
X004737Y007365D01*
X005328Y007365D01*
X005354Y007367D01*
X005379Y007372D01*
X005403Y007380D01*
X005427Y007391D01*
X005448Y007406D01*
X005467Y007423D01*
X005484Y007442D01*
X005499Y007464D01*
X005510Y007487D01*
X005518Y007511D01*
X005523Y007536D01*
X005525Y007562D01*
X005525Y010023D01*
X005523Y010046D01*
X005518Y010069D01*
X005509Y010090D01*
X005497Y010110D01*
X005482Y010128D01*
X005464Y010143D01*
X005444Y010155D01*
X005423Y010164D01*
X005400Y010169D01*
X005377Y010171D01*
X005377Y010170D02*
X005354Y010172D01*
X005331Y010177D01*
X005310Y010186D01*
X005290Y010198D01*
X005272Y010213D01*
X005257Y010231D01*
X005245Y010251D01*
X005236Y010272D01*
X005231Y010295D01*
X005229Y010318D01*
X005229Y010869D01*
X004875Y010869D01*
X004847Y010871D01*
X004819Y010876D01*
X004791Y010884D01*
X004765Y010896D01*
X004741Y010911D01*
X004719Y010928D01*
X004698Y010949D01*
X004681Y010971D01*
X004666Y010995D01*
X004654Y011021D01*
X004646Y011049D01*
X004641Y011077D01*
X004639Y011105D01*
X004639Y011794D01*
X004439Y011767D02*
X004317Y011767D01*
X004317Y011815D02*
X004306Y011856D01*
X004285Y011892D01*
X004255Y011922D01*
X004218Y011943D01*
X004178Y011954D01*
X003978Y011954D01*
X003978Y011636D01*
X004317Y011636D01*
X004317Y011815D01*
X004289Y011885D02*
X004439Y011885D01*
X004498Y012004D02*
X000271Y012004D01*
X000271Y012122D02*
X004610Y012122D01*
X004507Y012359D02*
X004873Y012359D01*
X004873Y012354D02*
X004883Y012313D01*
X004905Y012277D01*
X004934Y012247D01*
X004971Y012226D01*
X005011Y012215D01*
X005191Y012215D01*
X005191Y012553D01*
X004873Y012553D01*
X004873Y012354D01*
X004873Y012478D02*
X004682Y012478D01*
X004727Y012596D02*
X005191Y012596D01*
X005268Y012596D02*
X008452Y012596D01*
X008377Y012715D02*
X005586Y012715D01*
X005585Y012833D02*
X008377Y012833D01*
X008377Y012952D02*
X005532Y012952D01*
X005566Y013070D02*
X008377Y013070D01*
X008084Y013271D02*
X005239Y013271D01*
X005229Y013261D01*
X005220Y013271D01*
X003261Y013271D01*
X003271Y013261D01*
X003271Y012631D01*
X002464Y012631D01*
X002820Y012833D02*
X002914Y012833D01*
X002980Y012952D02*
X002754Y012952D01*
X003058Y013070D02*
X000271Y013070D01*
X000271Y012952D02*
X001475Y012952D01*
X001480Y012956D02*
X001450Y012926D01*
X001429Y012889D01*
X001418Y012849D01*
X001418Y012669D01*
X001756Y012669D01*
X001756Y012988D01*
X001557Y012988D01*
X001516Y012977D01*
X001480Y012956D01*
X001418Y012833D02*
X000271Y012833D01*
X000271Y012715D02*
X001418Y012715D01*
X001418Y012592D02*
X001418Y012413D01*
X001429Y012372D01*
X001450Y012336D01*
X001480Y012306D01*
X001516Y012285D01*
X001557Y012274D01*
X001756Y012274D01*
X001756Y012592D01*
X001418Y012592D01*
X001418Y012478D02*
X000271Y012478D01*
X000271Y012596D02*
X001756Y012596D01*
X001756Y012478D02*
X001833Y012478D01*
X001833Y012359D02*
X001756Y012359D01*
X001436Y012359D02*
X000271Y012359D01*
X000271Y012241D02*
X004945Y012241D01*
X004836Y011991D02*
X008281Y011991D01*
X008314Y011989D01*
X008347Y011984D01*
X008378Y011974D01*
X008409Y011962D01*
X008438Y011946D01*
X008465Y011927D01*
X008490Y011905D01*
X008512Y011880D01*
X008531Y011853D01*
X008547Y011824D01*
X008559Y011793D01*
X008569Y011762D01*
X008574Y011729D01*
X008576Y011696D01*
X008576Y010810D01*
X008776Y010819D02*
X009128Y010819D01*
X009042Y010937D02*
X008776Y010937D01*
X008776Y011056D02*
X009042Y011056D01*
X009042Y011174D02*
X008776Y011174D01*
X008776Y011293D02*
X009119Y011293D01*
X009036Y011411D02*
X008776Y011411D01*
X008776Y011530D02*
X009022Y011530D01*
X009022Y011648D02*
X008776Y011648D01*
X008776Y011767D02*
X009068Y011767D01*
X008738Y011885D02*
X010384Y011885D01*
X010393Y012004D02*
X008673Y012004D01*
X008700Y011976D02*
X008700Y011976D01*
X008561Y012116D02*
X008561Y012116D01*
X008546Y012122D02*
X011329Y012122D01*
X011329Y012241D02*
X005514Y012241D01*
X005525Y012247D02*
X005554Y012277D01*
X005575Y012313D01*
X005586Y012354D01*
X005586Y012553D01*
X005268Y012553D01*
X005268Y012215D01*
X005447Y012215D01*
X005488Y012226D01*
X005525Y012247D01*
X005586Y012359D02*
X011329Y012359D01*
X011329Y012478D02*
X005586Y012478D01*
X005268Y012478D02*
X005191Y012478D01*
X005191Y012359D02*
X005268Y012359D01*
X005268Y012241D02*
X005191Y012241D01*
X004873Y012715D02*
X004720Y012715D01*
X004653Y012833D02*
X004874Y012833D01*
X004927Y012952D02*
X004231Y012952D01*
X004442Y012641D02*
X004432Y012631D01*
X003940Y012631D01*
X003649Y012952D02*
X003561Y012952D01*
X003471Y013070D02*
X004893Y013070D01*
X004901Y013544D02*
X003345Y013544D01*
X003176Y013544D02*
X000271Y013544D01*
X000271Y013426D02*
X003017Y013426D01*
X002976Y013307D02*
X000271Y013307D01*
X000271Y013189D02*
X002986Y013189D01*
X002931Y012359D02*
X002803Y012359D01*
X002738Y011885D02*
X002947Y011885D01*
X003261Y011607D02*
X003262Y011602D01*
X003266Y011598D01*
X003271Y011597D01*
X002414Y011597D01*
X002267Y011450D01*
X002267Y010830D01*
X002476Y010819D02*
X003095Y010819D01*
X003002Y010937D02*
X002476Y010937D01*
X002476Y011056D02*
X002976Y011056D01*
X003001Y011174D02*
X002467Y011174D01*
X002721Y011293D02*
X002964Y011293D01*
X003261Y011056D02*
X003261Y011587D01*
X003262Y011592D01*
X003266Y011596D01*
X003271Y011597D01*
X003577Y011293D02*
X003605Y011293D01*
X003520Y011174D02*
X004439Y011174D01*
X004439Y011056D02*
X003546Y011056D01*
X003520Y010937D02*
X004468Y010937D01*
X004537Y010819D02*
X003426Y010819D01*
X003732Y010700D02*
X002476Y010700D01*
X002462Y010582D02*
X003669Y010582D01*
X003665Y010463D02*
X002201Y010463D01*
X002150Y010345D02*
X002981Y010345D01*
X002914Y010226D02*
X002066Y010226D01*
X002409Y010108D02*
X002571Y010108D01*
X002769Y010023D02*
X002552Y009806D01*
X002267Y009806D01*
X002663Y009634D02*
X005325Y009634D01*
X005325Y009752D02*
X004534Y009752D01*
X004688Y009871D02*
X005325Y009871D01*
X005251Y009989D02*
X004727Y009989D01*
X004715Y010108D02*
X005097Y010108D01*
X005123Y010063D02*
X005123Y010063D01*
X005123Y010063D01*
X005029Y010226D02*
X004642Y010226D01*
X004442Y010023D02*
X003940Y010023D01*
X003940Y010505D01*
X003950Y010515D01*
X004168Y010700D02*
X004704Y010700D01*
X004556Y010786D02*
X004556Y010786D01*
X004556Y010786D01*
X004439Y011293D02*
X004275Y011293D01*
X004317Y011411D02*
X004439Y011411D01*
X004439Y011530D02*
X004317Y011530D01*
X004317Y011648D02*
X004439Y011648D01*
X004639Y011794D02*
X004641Y011820D01*
X004646Y011845D01*
X004654Y011869D01*
X004665Y011893D01*
X004680Y011914D01*
X004697Y011933D01*
X004716Y011950D01*
X004738Y011965D01*
X004761Y011976D01*
X004785Y011984D01*
X004810Y011989D01*
X004836Y011991D01*
X005229Y011538D02*
X006017Y011538D01*
X006038Y011560D01*
X007182Y011560D01*
X007182Y011060D02*
X008031Y011060D01*
X008033Y011059D01*
X008034Y011058D01*
X008035Y011056D01*
X008576Y010810D02*
X008578Y010780D01*
X008583Y010750D01*
X008592Y010721D01*
X008605Y010694D01*
X008620Y010668D01*
X008639Y010644D01*
X008660Y010623D01*
X008684Y010604D01*
X008710Y010589D01*
X008737Y010576D01*
X008766Y010567D01*
X008796Y010562D01*
X008826Y010560D01*
X009576Y010560D01*
X009576Y010060D01*
X009576Y011060D02*
X010735Y011060D01*
X010741Y011066D01*
X011529Y011066D01*
X011567Y010635D02*
X011567Y010297D01*
X011885Y010297D01*
X011885Y010496D01*
X011875Y010537D01*
X011854Y010574D01*
X011824Y010603D01*
X011787Y010624D01*
X011747Y010635D01*
X011567Y010635D01*
X011567Y010582D02*
X011490Y010582D01*
X011490Y010635D02*
X011311Y010635D01*
X011270Y010624D01*
X011234Y010603D01*
X011204Y010574D01*
X011183Y010537D01*
X011172Y010496D01*
X011172Y010297D01*
X011490Y010297D01*
X011490Y010220D01*
X011172Y010220D01*
X011172Y010021D01*
X011183Y009980D01*
X011204Y009944D01*
X011234Y009914D01*
X011239Y009911D01*
X011192Y009864D01*
X011192Y009789D01*
X011078Y009789D01*
X011078Y009864D01*
X011018Y009924D01*
X011078Y009984D01*
X011078Y010533D01*
X010996Y010615D01*
X010941Y010615D01*
X010941Y010709D01*
X010996Y010709D01*
X011078Y010791D01*
X011078Y010866D01*
X011192Y010866D01*
X011192Y010791D01*
X011274Y010709D01*
X011783Y010709D01*
X011865Y010791D01*
X011865Y011340D01*
X011805Y011400D01*
X011865Y011461D01*
X011865Y012010D01*
X011783Y012092D01*
X011729Y012092D01*
X011729Y012611D01*
X011631Y012847D01*
X011450Y013028D01*
X011450Y013028D01*
X011214Y013126D01*
X009759Y013126D01*
X009759Y013181D01*
X009677Y013263D01*
X009603Y013263D01*
X009603Y013377D01*
X009677Y013377D01*
X009759Y013459D01*
X009759Y013968D01*
X009677Y014050D01*
X009522Y014050D01*
X009522Y014264D01*
X009572Y014314D01*
X009667Y014219D01*
X009977Y014219D01*
X010100Y014342D01*
X010100Y014553D01*
X010601Y014553D01*
X010601Y014463D01*
X010648Y014415D01*
X010643Y014412D01*
X010613Y014383D01*
X010592Y014346D01*
X010581Y014305D01*
X010581Y014106D01*
X010900Y014106D01*
X010900Y014029D01*
X010976Y014029D01*
X010976Y013691D01*
X011156Y013691D01*
X011197Y013702D01*
X011233Y013723D01*
X011263Y013753D01*
X011284Y013790D01*
X011295Y013830D01*
X011295Y014029D01*
X010977Y014029D01*
X010977Y014106D01*
X011295Y014106D01*
X011295Y014305D01*
X011284Y014346D01*
X011263Y014383D01*
X011233Y014412D01*
X011228Y014415D01*
X011275Y014463D01*
X011275Y014527D01*
X011542Y014527D01*
X011564Y014505D01*
X011669Y014462D01*
X011782Y014462D01*
X011887Y014505D01*
X011967Y014585D01*
X012010Y014690D01*
X012010Y014804D01*
X011967Y014908D01*
X011925Y014950D01*
X011925Y019275D01*
X011850Y019457D01*
X011711Y019596D01*
X011711Y019596D01*
X011529Y019671D01*
X006607Y019671D01*
X006425Y019596D01*
X006286Y019457D01*
X006286Y019457D01*
X006211Y019275D01*
X006211Y018684D01*
X006208Y018658D01*
X006188Y018609D01*
X006151Y018572D01*
X006102Y018552D01*
X006076Y018549D01*
X006058Y018549D01*
X006058Y018624D01*
X006011Y018671D01*
X006017Y018674D01*
X006046Y018704D01*
X006067Y018740D01*
X006078Y018781D01*
X006078Y018980D01*
X005760Y018980D01*
X005760Y019057D01*
X006078Y019057D01*
X006078Y019256D01*
X006067Y019297D01*
X006046Y019333D01*
X006017Y019363D01*
X005980Y019384D01*
X005939Y019395D01*
X005760Y019395D01*
X005760Y019057D01*
X005683Y019057D01*
X005683Y018980D01*
X005365Y018980D01*
X005365Y018781D01*
X005376Y018740D01*
X005397Y018704D01*
X005426Y018674D01*
X005432Y018671D01*
X005385Y018624D01*
X005385Y018207D01*
X005308Y018283D01*
X001571Y018283D01*
X001571Y018347D01*
X001626Y018347D01*
X001686Y018407D01*
X001746Y018347D01*
X002295Y018347D01*
X002377Y018429D01*
X002377Y018474D01*
X002727Y018474D01*
X002727Y018419D01*
X002809Y018337D01*
X003319Y018337D01*
X003401Y018419D01*
X003401Y018474D01*
X003751Y018474D01*
X003751Y018429D01*
X003833Y018347D01*
X004382Y018347D01*
X004442Y018407D01*
X004502Y018347D01*
X005051Y018347D01*
X005133Y018429D01*
X005133Y018939D01*
X005051Y019021D01*
X004997Y019021D01*
X004997Y019233D01*
X005051Y019233D01*
X005133Y019315D01*
X005133Y019825D01*
X005051Y019907D01*
X005031Y019907D01*
X005071Y020005D01*
X005071Y020119D01*
X005028Y020223D01*
X004956Y020296D01*
X012550Y020296D01*
X012550Y007956D01*
X006315Y007956D01*
X006315Y008678D01*
X006217Y008777D01*
X006217Y009913D01*
X006218Y009910D01*
X006298Y009830D01*
X006403Y009787D01*
X006516Y009787D01*
X006621Y009830D01*
X006663Y009872D01*
X006681Y009872D01*
X006771Y009782D01*
X006998Y009782D01*
X006998Y009709D01*
X007115Y009506D01*
X007317Y009389D01*
X010404Y009389D01*
X010404Y009315D01*
X010486Y009233D01*
X010996Y009233D01*
X011078Y009315D01*
X011078Y009389D01*
X011192Y009389D01*
X011192Y009315D01*
X011274Y009233D01*
X011783Y009233D01*
X011865Y009315D01*
X011865Y009409D01*
X011936Y009409D01*
X011958Y009387D01*
X012062Y009344D01*
X012176Y009344D01*
X012281Y009387D01*
X012361Y009467D01*
X012404Y009572D01*
X012404Y009686D01*
X012361Y009790D01*
X012281Y009870D01*
X012176Y009914D01*
X012062Y009914D01*
X011958Y009870D01*
X011896Y009809D01*
X011865Y009809D01*
X011865Y009864D01*
X011818Y009911D01*
X011824Y009914D01*
X011854Y009944D01*
X011875Y009980D01*
X011885Y010021D01*
X011885Y010220D01*
X011567Y010220D01*
X011567Y010297D01*
X011490Y010297D01*
X011490Y010635D01*
X011490Y010463D02*
X011567Y010463D01*
X011567Y010345D02*
X011490Y010345D01*
X011490Y010226D02*
X011078Y010226D01*
X011078Y010108D02*
X011172Y010108D01*
X011180Y009989D02*
X011078Y009989D01*
X011072Y009871D02*
X011198Y009871D01*
X011529Y009589D02*
X010741Y009589D01*
X010771Y009560D01*
X010741Y009589D02*
X007434Y009589D01*
X007305Y009397D02*
X006217Y009397D01*
X006217Y009515D02*
X007110Y009515D01*
X007115Y009506D02*
X007115Y009506D01*
X007115Y009506D01*
X007041Y009634D02*
X006217Y009634D01*
X006217Y009752D02*
X006998Y009752D01*
X007198Y009826D02*
X007198Y010044D01*
X007182Y010060D01*
X007164Y010042D01*
X007157Y010045D01*
X007151Y010050D01*
X007146Y010057D01*
X007144Y010064D01*
X007144Y010072D01*
X007145Y010072D02*
X006460Y010072D01*
X006662Y009871D02*
X006682Y009871D01*
X006258Y009871D02*
X006217Y009871D01*
X005817Y009871D02*
X005725Y009871D01*
X005725Y009989D02*
X005817Y009989D01*
X005817Y010108D02*
X005725Y010108D01*
X005725Y010116D02*
X005632Y010277D01*
X005632Y010277D01*
X005632Y010277D01*
X005470Y010370D01*
X005429Y010370D01*
X005429Y010401D01*
X005429Y010512D01*
X005484Y010512D01*
X005566Y010594D01*
X005566Y011144D01*
X005506Y011204D01*
X005566Y011264D01*
X005566Y011338D01*
X005680Y011338D01*
X005680Y011264D01*
X005740Y011204D01*
X005680Y011144D01*
X005680Y010594D01*
X005762Y010512D01*
X005817Y010512D01*
X005817Y008611D01*
X005915Y008513D01*
X005915Y007956D01*
X005725Y007956D01*
X005725Y010116D01*
X005661Y010226D02*
X005817Y010226D01*
X005817Y010345D02*
X005515Y010345D01*
X005429Y010463D02*
X005817Y010463D01*
X005693Y010582D02*
X005553Y010582D01*
X005566Y010700D02*
X005680Y010700D01*
X005680Y010819D02*
X005566Y010819D01*
X005566Y010937D02*
X005680Y010937D01*
X005680Y011056D02*
X005566Y011056D01*
X005536Y011174D02*
X005710Y011174D01*
X005680Y011293D02*
X005566Y011293D01*
X006017Y010869D02*
X006017Y008694D01*
X006115Y008595D01*
X006115Y007660D01*
X006495Y007280D01*
X006495Y006583D01*
X006017Y006561D02*
X006017Y005495D01*
X005525Y005200D02*
X005495Y005229D01*
X005495Y006583D01*
X005995Y006583D02*
X006017Y006561D01*
X006695Y007264D02*
X012550Y007264D01*
X012550Y007382D02*
X006676Y007382D01*
X006558Y007501D02*
X012550Y007501D01*
X012550Y007619D02*
X006439Y007619D01*
X006315Y007975D02*
X012550Y007975D01*
X012550Y008093D02*
X006315Y008093D01*
X006315Y008212D02*
X012550Y008212D01*
X012550Y008330D02*
X006315Y008330D01*
X006315Y008449D02*
X012550Y008449D01*
X012550Y008567D02*
X006315Y008567D01*
X006308Y008686D02*
X012550Y008686D01*
X012550Y008804D02*
X006217Y008804D01*
X006217Y008923D02*
X012550Y008923D01*
X012550Y009041D02*
X006217Y009041D01*
X006217Y009160D02*
X012550Y009160D01*
X012550Y009278D02*
X011829Y009278D01*
X011865Y009397D02*
X011948Y009397D01*
X012099Y009609D02*
X011578Y009609D01*
X011529Y009589D01*
X011229Y009278D02*
X011041Y009278D01*
X010441Y009278D02*
X006217Y009278D01*
X005817Y009278D02*
X005725Y009278D01*
X005725Y009160D02*
X005817Y009160D01*
X005817Y009041D02*
X005725Y009041D01*
X005725Y008923D02*
X005817Y008923D01*
X005817Y008804D02*
X005725Y008804D01*
X005725Y008686D02*
X005817Y008686D01*
X005861Y008567D02*
X005725Y008567D01*
X005725Y008449D02*
X005915Y008449D01*
X005915Y008330D02*
X005725Y008330D01*
X005725Y008212D02*
X005915Y008212D01*
X005915Y008093D02*
X005725Y008093D01*
X005725Y007975D02*
X005915Y007975D01*
X005325Y007975D02*
X003943Y007975D01*
X003943Y008093D02*
X005325Y008093D01*
X005325Y008212D02*
X003943Y008212D01*
X003943Y008330D02*
X005325Y008330D01*
X005325Y008449D02*
X003943Y008449D01*
X003943Y008567D02*
X005325Y008567D01*
X005325Y008686D02*
X003943Y008686D01*
X003943Y008804D02*
X005325Y008804D01*
X005325Y008923D02*
X003943Y008923D01*
X003943Y009041D02*
X005325Y009041D01*
X005325Y009160D02*
X003933Y009160D01*
X003943Y009135D02*
X003943Y009135D01*
X003884Y009278D02*
X005325Y009278D01*
X005325Y009397D02*
X003786Y009397D01*
X003575Y009515D02*
X005325Y009515D01*
X005725Y009515D02*
X005817Y009515D01*
X005817Y009397D02*
X005725Y009397D01*
X005725Y009634D02*
X005817Y009634D01*
X005817Y009752D02*
X005725Y009752D01*
X005029Y010345D02*
X004229Y010345D01*
X004235Y010463D02*
X005029Y010463D01*
X004905Y010582D02*
X004231Y010582D01*
X003978Y011293D02*
X003902Y011293D01*
X003902Y011411D02*
X003978Y011411D01*
X003978Y011530D02*
X003902Y011530D01*
X003902Y011648D02*
X003978Y011648D01*
X003978Y011767D02*
X003902Y011767D01*
X003902Y011885D02*
X003978Y011885D01*
X004280Y012359D02*
X004377Y012359D01*
X005360Y014018D02*
X008122Y014018D01*
X008122Y013900D02*
X000271Y013900D01*
X000271Y014018D02*
X002245Y014018D01*
X002185Y014137D02*
X000271Y014137D01*
X000271Y014255D02*
X002185Y014255D01*
X002185Y014374D02*
X000271Y014374D01*
X000271Y014492D02*
X002185Y014492D01*
X001504Y014611D02*
X001427Y014611D01*
X001427Y014583D02*
X001427Y014901D01*
X000518Y014901D01*
X000518Y014722D01*
X000529Y014681D01*
X000550Y014645D01*
X000580Y014615D01*
X000616Y014594D01*
X000657Y014583D01*
X001427Y014583D01*
X001427Y014729D02*
X001504Y014729D01*
X001504Y014848D02*
X001427Y014848D01*
X001427Y014966D02*
X000271Y014966D01*
X000271Y014848D02*
X000518Y014848D01*
X000518Y014729D02*
X000271Y014729D01*
X000271Y014611D02*
X000588Y014611D01*
X000391Y015085D02*
X000271Y015085D01*
X000271Y015203D02*
X000315Y015203D01*
X000315Y015322D02*
X000271Y015322D01*
X000271Y015440D02*
X000315Y015440D01*
X000315Y015559D02*
X000271Y015559D01*
X000271Y015677D02*
X000315Y015677D01*
X000315Y015796D02*
X000271Y015796D01*
X000271Y015914D02*
X000315Y015914D01*
X000315Y016033D02*
X000271Y016033D01*
X000271Y016151D02*
X000315Y016151D01*
X000315Y016270D02*
X000271Y016270D01*
X000271Y016388D02*
X000315Y016388D01*
X000315Y016507D02*
X000271Y016507D01*
X000271Y016625D02*
X000315Y016625D01*
X000315Y016744D02*
X000271Y016744D01*
X000271Y016862D02*
X000315Y016862D01*
X000315Y016981D02*
X000271Y016981D01*
X000271Y017099D02*
X000315Y017099D01*
X000315Y017218D02*
X000271Y017218D01*
X000271Y017336D02*
X000315Y017336D01*
X000315Y017455D02*
X000271Y017455D01*
X000271Y017573D02*
X000315Y017573D01*
X000315Y017692D02*
X000271Y017692D01*
X000271Y017810D02*
X000315Y017810D01*
X000315Y017929D02*
X000271Y017929D01*
X000271Y018047D02*
X000315Y018047D01*
X000315Y018166D02*
X000271Y018166D01*
X000271Y018284D02*
X001131Y018284D01*
X001021Y018403D02*
X000271Y018403D01*
X000271Y018521D02*
X000995Y018521D01*
X000995Y018640D02*
X000271Y018640D01*
X000271Y018758D02*
X000995Y018758D01*
X000995Y018877D02*
X000271Y018877D01*
X000271Y018995D02*
X001051Y018995D01*
X001652Y018995D02*
X001720Y018995D01*
X001691Y018403D02*
X001681Y018403D01*
X001571Y018284D02*
X005385Y018284D01*
X005385Y018403D02*
X005107Y018403D01*
X005133Y018521D02*
X005385Y018521D01*
X005400Y018640D02*
X005133Y018640D01*
X005133Y018758D02*
X005371Y018758D01*
X005365Y018877D02*
X005133Y018877D01*
X005077Y018995D02*
X005683Y018995D01*
X005683Y019057D02*
X005365Y019057D01*
X005365Y019256D01*
X005376Y019297D01*
X005397Y019333D01*
X005426Y019363D01*
X005463Y019384D01*
X005504Y019395D01*
X005683Y019395D01*
X005683Y019057D01*
X005683Y019114D02*
X005760Y019114D01*
X005760Y019232D02*
X005683Y019232D01*
X005683Y019351D02*
X005760Y019351D01*
X005760Y018995D02*
X006211Y018995D01*
X006211Y018877D02*
X006078Y018877D01*
X006072Y018758D02*
X006211Y018758D01*
X006200Y018640D02*
X006043Y018640D01*
X006076Y018349D02*
X006111Y018351D01*
X006146Y018356D01*
X006180Y018365D01*
X006212Y018378D01*
X006243Y018394D01*
X006273Y018413D01*
X006300Y018435D01*
X006325Y018460D01*
X006347Y018487D01*
X006366Y018517D01*
X006382Y018548D01*
X006395Y018580D01*
X006404Y018614D01*
X006409Y018649D01*
X006411Y018684D01*
X006411Y019176D01*
X006211Y019232D02*
X006078Y019232D01*
X006078Y019114D02*
X006211Y019114D01*
X006242Y019351D02*
X006029Y019351D01*
X006298Y019469D02*
X005133Y019469D01*
X005133Y019351D02*
X005414Y019351D01*
X005365Y019232D02*
X004997Y019232D01*
X004997Y019114D02*
X005365Y019114D01*
X005133Y019588D02*
X006417Y019588D01*
X006425Y019596D02*
X006425Y019596D01*
X006706Y019471D02*
X011430Y019471D01*
X011463Y019469D01*
X011496Y019464D01*
X011527Y019454D01*
X011558Y019442D01*
X011587Y019426D01*
X011614Y019407D01*
X011639Y019385D01*
X011661Y019360D01*
X011680Y019333D01*
X011696Y019304D01*
X011708Y019273D01*
X011718Y019242D01*
X011723Y019209D01*
X011725Y019176D01*
X011725Y014747D01*
X011596Y014492D02*
X011275Y014492D01*
X011268Y014374D02*
X012550Y014374D01*
X012550Y014492D02*
X011855Y014492D01*
X011977Y014611D02*
X012550Y014611D01*
X012550Y014729D02*
X012010Y014729D01*
X011992Y014848D02*
X012550Y014848D01*
X012550Y014966D02*
X011925Y014966D01*
X011925Y015085D02*
X012550Y015085D01*
X012550Y015203D02*
X011925Y015203D01*
X011925Y015322D02*
X012550Y015322D01*
X012550Y015440D02*
X011925Y015440D01*
X011925Y015559D02*
X012550Y015559D01*
X012550Y015677D02*
X011925Y015677D01*
X011925Y015796D02*
X012550Y015796D01*
X012550Y015914D02*
X011925Y015914D01*
X011925Y016033D02*
X012550Y016033D01*
X012550Y016151D02*
X011925Y016151D01*
X011925Y016270D02*
X012550Y016270D01*
X012550Y016388D02*
X011925Y016388D01*
X011925Y016507D02*
X012550Y016507D01*
X012550Y016625D02*
X011925Y016625D01*
X011925Y016744D02*
X012550Y016744D01*
X012550Y016862D02*
X011925Y016862D01*
X011925Y016981D02*
X012550Y016981D01*
X012550Y017099D02*
X011925Y017099D01*
X011925Y017218D02*
X012550Y017218D01*
X012550Y017336D02*
X011925Y017336D01*
X011925Y017455D02*
X012550Y017455D01*
X012550Y017573D02*
X011925Y017573D01*
X011925Y017692D02*
X012550Y017692D01*
X012550Y017810D02*
X011925Y017810D01*
X011925Y017929D02*
X012550Y017929D01*
X012550Y018047D02*
X011925Y018047D01*
X011925Y018166D02*
X012550Y018166D01*
X012550Y018284D02*
X011925Y018284D01*
X011925Y018403D02*
X012550Y018403D01*
X012550Y018521D02*
X011925Y018521D01*
X011925Y018640D02*
X012550Y018640D01*
X012550Y018758D02*
X011925Y018758D01*
X011925Y018877D02*
X012550Y018877D01*
X012550Y018995D02*
X011925Y018995D01*
X011925Y019114D02*
X012550Y019114D01*
X012550Y019232D02*
X011925Y019232D01*
X011894Y019351D02*
X012550Y019351D01*
X012550Y019469D02*
X011838Y019469D01*
X011850Y019457D02*
X011850Y019457D01*
X011719Y019588D02*
X012550Y019588D01*
X012550Y019706D02*
X005133Y019706D01*
X005133Y019825D02*
X012550Y019825D01*
X012550Y019943D02*
X005046Y019943D01*
X005071Y020062D02*
X012550Y020062D01*
X012550Y020180D02*
X005046Y020180D01*
X004527Y020180D02*
X000271Y020180D01*
X000271Y020062D02*
X004501Y020062D01*
X004527Y019943D02*
X000271Y019943D01*
X000271Y019825D02*
X003741Y019825D01*
X003742Y019828D02*
X003731Y019788D01*
X003731Y019608D01*
X004069Y019608D01*
X004069Y019927D01*
X003870Y019927D01*
X003829Y019916D01*
X003793Y019895D01*
X003763Y019865D01*
X003742Y019828D01*
X003731Y019706D02*
X003361Y019706D01*
X003359Y019708D02*
X003323Y019729D01*
X003282Y019740D01*
X003102Y019740D01*
X003102Y019402D01*
X003102Y019401D02*
X003421Y019401D01*
X003421Y019601D01*
X003410Y019641D01*
X003389Y019678D01*
X003359Y019708D01*
X003421Y019588D02*
X004069Y019588D01*
X004069Y019531D02*
X003731Y019531D01*
X003731Y019352D01*
X003742Y019311D01*
X003763Y019275D01*
X003793Y019245D01*
X003829Y019224D01*
X003870Y019213D01*
X004069Y019213D01*
X004069Y019531D01*
X004069Y019469D02*
X004146Y019469D01*
X004146Y019351D02*
X004069Y019351D01*
X004069Y019232D02*
X004146Y019232D01*
X004400Y019232D02*
X004557Y019232D01*
X004557Y019114D02*
X003418Y019114D01*
X003421Y019232D02*
X003815Y019232D01*
X003731Y019351D02*
X003102Y019351D01*
X003026Y019351D02*
X000271Y019351D01*
X000271Y019469D02*
X002707Y019469D01*
X002707Y019588D02*
X000271Y019588D01*
X000271Y019706D02*
X002767Y019706D01*
X003026Y019706D02*
X003102Y019706D01*
X003102Y019588D02*
X003026Y019588D01*
X003026Y019469D02*
X003102Y019469D01*
X003421Y019469D02*
X003731Y019469D01*
X003807Y018995D02*
X003374Y018995D01*
X003384Y018403D02*
X003777Y018403D01*
X004437Y018403D02*
X004447Y018403D01*
X004476Y018995D02*
X004408Y018995D01*
X004146Y019706D02*
X004069Y019706D01*
X004069Y019825D02*
X004146Y019825D01*
X002707Y019232D02*
X000271Y019232D01*
X000271Y019114D02*
X002710Y019114D01*
X002754Y018995D02*
X002321Y018995D01*
X002351Y018403D02*
X002744Y018403D01*
X003497Y017109D02*
X003497Y016322D01*
X003498Y016309D01*
X003503Y016296D01*
X003510Y016285D01*
X003519Y016276D01*
X003530Y016269D01*
X003543Y016264D01*
X003556Y016263D01*
X002769Y016263D01*
X002769Y015593D02*
X002770Y015588D01*
X002774Y015584D01*
X002779Y015583D01*
X002779Y015584D02*
X003556Y015584D01*
X003556Y015593D01*
X003556Y015584D02*
X005722Y015584D01*
X005722Y015384D02*
X005419Y015384D01*
X005419Y015300D01*
X005438Y015308D01*
X005482Y015316D01*
X005565Y015316D01*
X005565Y014772D01*
X005583Y014772D01*
X005583Y015316D01*
X005665Y015316D01*
X005710Y015308D01*
X005751Y015290D01*
X005789Y015265D01*
X005821Y015233D01*
X005835Y015212D01*
X005872Y015250D01*
X005871Y015261D01*
X005848Y015316D01*
X005806Y015358D01*
X005751Y015381D01*
X005722Y015384D01*
X005843Y015322D02*
X005419Y015322D01*
X005565Y015203D02*
X005583Y015203D01*
X005583Y015085D02*
X005565Y015085D01*
X005565Y014966D02*
X005583Y014966D01*
X005583Y014848D02*
X005565Y014848D01*
X005565Y014729D02*
X005583Y014729D01*
X005583Y014611D02*
X005565Y014611D01*
X005565Y014492D02*
X005583Y014492D01*
X005583Y014374D02*
X005565Y014374D01*
X005565Y014255D02*
X005583Y014255D01*
X005781Y014255D02*
X005892Y014255D01*
X006074Y014763D02*
X007192Y014763D01*
X007198Y014757D01*
X006861Y014492D02*
X006352Y014492D01*
X006352Y014374D02*
X008044Y014374D01*
X008044Y014492D02*
X007535Y014492D01*
X007535Y014611D02*
X008044Y014611D01*
X008044Y014729D02*
X007535Y014729D01*
X007535Y014848D02*
X008044Y014848D01*
X008044Y014966D02*
X007535Y014966D01*
X007482Y015085D02*
X008044Y015085D01*
X008083Y015203D02*
X007535Y015203D01*
X007535Y015322D02*
X008122Y015322D01*
X008122Y015440D02*
X007535Y015440D01*
X007535Y015559D02*
X008122Y015559D01*
X008122Y015677D02*
X007535Y015677D01*
X007398Y015796D02*
X008122Y015796D01*
X008122Y015914D02*
X007398Y015914D01*
X007398Y016033D02*
X008122Y016033D01*
X008157Y016151D02*
X007398Y016151D01*
X007398Y016270D02*
X008225Y016270D01*
X008322Y015969D02*
X008322Y014753D01*
X008322Y013509D01*
X008122Y013544D02*
X005557Y013544D01*
X005419Y014137D02*
X008122Y014137D01*
X008122Y014255D02*
X006255Y014255D01*
X006074Y014763D02*
X006074Y015231D01*
X006072Y015268D01*
X006066Y015304D01*
X006057Y015340D01*
X006044Y015374D01*
X006027Y015407D01*
X006007Y015438D01*
X005984Y015467D01*
X005958Y015493D01*
X005929Y015516D01*
X005898Y015536D01*
X005865Y015553D01*
X005831Y015566D01*
X005795Y015575D01*
X005759Y015581D01*
X005722Y015583D01*
X007198Y015426D02*
X007198Y017463D01*
X007398Y017099D02*
X008024Y017099D01*
X008024Y017155D02*
X008313Y017155D01*
X008313Y017700D01*
X008230Y017700D01*
X008186Y017691D01*
X008145Y017674D01*
X008107Y017649D01*
X008075Y017617D01*
X008050Y017580D01*
X008033Y017538D01*
X008024Y017494D01*
X008024Y017155D01*
X008024Y017218D02*
X007535Y017218D01*
X007535Y017336D02*
X008024Y017336D01*
X008024Y017455D02*
X007535Y017455D01*
X007535Y017573D02*
X008047Y017573D01*
X008187Y017692D02*
X007535Y017692D01*
X007487Y017810D02*
X008947Y017810D01*
X008869Y017929D02*
X007535Y017929D01*
X007198Y018133D02*
X009216Y018133D01*
X009225Y018143D01*
X009322Y018046D01*
X009322Y017147D01*
X009122Y017692D02*
X008457Y017692D01*
X008331Y017692D02*
X008313Y017692D01*
X008313Y017573D02*
X008331Y017573D01*
X008331Y017455D02*
X008313Y017455D01*
X008313Y017336D02*
X008331Y017336D01*
X008331Y017218D02*
X008313Y017218D01*
X008313Y017099D02*
X008331Y017099D01*
X008331Y016981D02*
X008313Y016981D01*
X008313Y016862D02*
X008331Y016862D01*
X008331Y016744D02*
X008313Y016744D01*
X008313Y016625D02*
X008331Y016625D01*
X008135Y016625D02*
X007398Y016625D01*
X007398Y016507D02*
X008622Y016507D01*
X008822Y016469D02*
X008820Y016439D01*
X008815Y016410D01*
X008806Y016382D01*
X008794Y016355D01*
X008778Y016329D01*
X008760Y016306D01*
X008739Y016285D01*
X008716Y016267D01*
X008690Y016251D01*
X008663Y016239D01*
X008635Y016230D01*
X008606Y016225D01*
X008576Y016223D01*
X008393Y016388D02*
X007398Y016388D01*
X007398Y016744D02*
X008038Y016744D01*
X008024Y016862D02*
X007398Y016862D01*
X007398Y016981D02*
X008024Y016981D01*
X008508Y016625D02*
X008622Y016625D01*
X008822Y016469D02*
X008822Y017147D01*
X009225Y018143D02*
X009225Y018930D01*
X009895Y018930D02*
X009895Y018143D01*
X010879Y018143D01*
X010938Y018084D01*
X010938Y017414D02*
X010938Y016509D01*
X010938Y015839D02*
X010937Y015834D01*
X010933Y015830D01*
X010928Y015829D01*
X010928Y015830D02*
X009265Y015830D01*
X009224Y015828D01*
X009184Y015822D01*
X009144Y015813D01*
X009105Y015800D01*
X009068Y015784D01*
X009032Y015764D01*
X008998Y015741D01*
X008967Y015714D01*
X008938Y015685D01*
X008911Y015654D01*
X008888Y015620D01*
X008868Y015584D01*
X008852Y015547D01*
X008839Y015508D01*
X008830Y015468D01*
X008824Y015428D01*
X008822Y015387D01*
X008822Y014753D01*
X008822Y013802D01*
X008733Y013713D01*
X008733Y012926D01*
X009015Y012596D02*
X009121Y012596D01*
X009403Y012926D02*
X009403Y013713D01*
X009322Y013794D01*
X009322Y014753D01*
X009522Y014255D02*
X009631Y014255D01*
X009522Y014137D02*
X010581Y014137D01*
X010581Y014029D02*
X010581Y013830D01*
X010592Y013790D01*
X010613Y013753D01*
X010643Y013723D01*
X010679Y013702D01*
X010720Y013691D01*
X010900Y013691D01*
X010900Y014029D01*
X010581Y014029D01*
X010581Y014018D02*
X009709Y014018D01*
X009759Y013900D02*
X010581Y013900D01*
X010597Y013781D02*
X009759Y013781D01*
X009759Y013663D02*
X012550Y013663D01*
X012550Y013781D02*
X011279Y013781D01*
X011295Y013900D02*
X012550Y013900D01*
X012550Y014018D02*
X011295Y014018D01*
X011295Y014137D02*
X012550Y014137D01*
X012550Y014255D02*
X011295Y014255D01*
X010976Y014018D02*
X010900Y014018D01*
X010900Y013900D02*
X010976Y013900D01*
X010976Y013781D02*
X010900Y013781D01*
X010581Y014255D02*
X010013Y014255D01*
X010100Y014374D02*
X010608Y014374D01*
X010601Y014492D02*
X010100Y014492D01*
X009822Y014753D02*
X010922Y014753D01*
X010923Y014747D01*
X010927Y014742D01*
X010932Y014738D01*
X010938Y014737D01*
X011349Y013070D02*
X012550Y013070D01*
X012550Y012952D02*
X011527Y012952D01*
X011631Y012847D02*
X011631Y012847D01*
X011637Y012833D02*
X012550Y012833D01*
X012550Y012715D02*
X011686Y012715D01*
X011729Y012596D02*
X012550Y012596D01*
X012550Y012478D02*
X011729Y012478D01*
X011729Y012359D02*
X012550Y012359D01*
X012550Y012241D02*
X011729Y012241D01*
X011729Y012122D02*
X012550Y012122D01*
X012550Y012004D02*
X011865Y012004D01*
X011865Y011885D02*
X012550Y011885D01*
X012550Y011767D02*
X011865Y011767D01*
X011865Y011648D02*
X012550Y011648D01*
X012550Y011530D02*
X011865Y011530D01*
X011816Y011411D02*
X012550Y011411D01*
X012550Y011293D02*
X011865Y011293D01*
X011865Y011174D02*
X012550Y011174D01*
X012550Y011056D02*
X011865Y011056D01*
X011865Y010937D02*
X012550Y010937D01*
X012550Y010819D02*
X011865Y010819D01*
X011845Y010582D02*
X012550Y010582D01*
X012550Y010700D02*
X010941Y010700D01*
X011030Y010582D02*
X011212Y010582D01*
X011172Y010463D02*
X011078Y010463D01*
X011078Y010345D02*
X011172Y010345D01*
X011192Y010819D02*
X011078Y010819D01*
X010741Y011066D02*
X010741Y010259D01*
X010404Y011293D02*
X010032Y011293D01*
X010115Y011411D02*
X010426Y011411D01*
X010384Y011530D02*
X010130Y011530D01*
X010130Y011648D02*
X010384Y011648D01*
X010084Y011767D02*
X010703Y011767D01*
X010780Y011767D02*
X011192Y011767D01*
X011098Y011774D02*
X011098Y011973D01*
X011087Y012013D01*
X011066Y012050D01*
X011036Y012080D01*
X011000Y012101D01*
X010959Y012112D01*
X010780Y012112D01*
X010780Y011774D01*
X011098Y011774D01*
X011098Y011885D02*
X011192Y011885D01*
X011192Y012004D02*
X011090Y012004D01*
X011098Y011648D02*
X011192Y011648D01*
X011192Y011530D02*
X011098Y011530D01*
X011057Y011411D02*
X011241Y011411D01*
X011192Y011293D02*
X011078Y011293D01*
X010780Y011885D02*
X010703Y011885D01*
X010703Y012004D02*
X010780Y012004D01*
X011529Y012483D02*
X011527Y012524D01*
X011521Y012564D01*
X011512Y012604D01*
X011499Y012643D01*
X011483Y012680D01*
X011463Y012716D01*
X011440Y012750D01*
X011413Y012781D01*
X011384Y012810D01*
X011353Y012837D01*
X011319Y012860D01*
X011283Y012880D01*
X011246Y012896D01*
X011207Y012909D01*
X011167Y012918D01*
X011127Y012924D01*
X011086Y012926D01*
X009403Y012926D01*
X009603Y013307D02*
X012550Y013307D01*
X012550Y013189D02*
X009752Y013189D01*
X009726Y013426D02*
X012550Y013426D01*
X012550Y013544D02*
X009759Y013544D01*
X009759Y012715D02*
X011150Y012715D01*
X011297Y012596D02*
X009684Y012596D01*
X009585Y011767D02*
X009567Y011767D01*
X009567Y011648D02*
X009585Y011648D01*
X008122Y013663D02*
X000271Y013663D01*
X000271Y013781D02*
X008122Y013781D01*
X008322Y013509D02*
X008320Y013480D01*
X008315Y013452D01*
X008307Y013425D01*
X008295Y013398D01*
X008280Y013374D01*
X008262Y013351D01*
X008242Y013331D01*
X008219Y013313D01*
X008195Y013298D01*
X008168Y013286D01*
X008141Y013278D01*
X008113Y013273D01*
X008084Y013271D01*
X008322Y015969D02*
X008324Y016000D01*
X008329Y016030D01*
X008339Y016059D01*
X008351Y016087D01*
X008367Y016113D01*
X008386Y016137D01*
X008408Y016159D01*
X008432Y016178D01*
X008458Y016194D01*
X008486Y016206D01*
X008515Y016216D01*
X008545Y016221D01*
X008576Y016223D01*
X009822Y017147D02*
X009822Y018070D01*
X009895Y018143D01*
X006706Y019471D02*
X006673Y019469D01*
X006640Y019464D01*
X006609Y019454D01*
X006578Y019442D01*
X006549Y019426D01*
X006522Y019407D01*
X006497Y019385D01*
X006475Y019360D01*
X006456Y019333D01*
X006440Y019304D01*
X006428Y019273D01*
X006418Y019242D01*
X006413Y019209D01*
X006411Y019176D01*
X006076Y018349D02*
X005722Y018349D01*
X002173Y012952D02*
X002113Y012952D01*
X001833Y012952D02*
X001756Y012952D01*
X001756Y012833D02*
X001833Y012833D01*
X001833Y012715D02*
X001756Y012715D01*
X001784Y011885D02*
X001707Y011885D01*
X001707Y011767D02*
X001784Y011767D01*
X001784Y011648D02*
X001707Y011648D01*
X001707Y011559D02*
X001369Y011559D01*
X001369Y011379D01*
X001380Y011339D01*
X001401Y011302D01*
X001430Y011272D01*
X001467Y011251D01*
X001508Y011240D01*
X001707Y011240D01*
X001707Y011559D01*
X001707Y011530D02*
X001784Y011530D01*
X001784Y011411D02*
X001707Y011411D01*
X001707Y011293D02*
X001784Y011293D01*
X001755Y011186D02*
X001755Y010830D01*
X001755Y011186D01*
X001755Y011174D02*
X001755Y011174D01*
X001649Y011174D02*
X000271Y011174D01*
X000271Y011056D02*
X001290Y011056D01*
X001410Y011293D02*
X000271Y011293D01*
X000271Y011411D02*
X001369Y011411D01*
X001369Y011530D02*
X000271Y011530D01*
X000271Y011648D02*
X001369Y011648D01*
X001369Y011767D02*
X000271Y011767D01*
X000271Y011885D02*
X001396Y011885D01*
X001861Y011174D02*
X002067Y011174D01*
X001755Y011056D02*
X001755Y011056D01*
X001755Y010937D02*
X001755Y010937D01*
X001755Y010830D02*
X001755Y010830D01*
X000954Y010937D02*
X000271Y010937D01*
X000271Y010819D02*
X000835Y010819D01*
X000717Y010700D02*
X000271Y010700D01*
X000271Y010582D02*
X000610Y010582D01*
X000610Y010463D02*
X000271Y010463D01*
X000271Y010345D02*
X000610Y010345D01*
X000610Y010226D02*
X000271Y010226D01*
X000271Y010108D02*
X000610Y010108D01*
X000610Y009989D02*
X000271Y009989D01*
X000271Y009871D02*
X000610Y009871D01*
X000610Y009752D02*
X000271Y009752D01*
X000271Y009634D02*
X000610Y009634D01*
X000610Y009515D02*
X000271Y009515D01*
X000271Y009397D02*
X000610Y009397D01*
X000610Y009278D02*
X000271Y009278D01*
X000271Y009160D02*
X000610Y009160D01*
X000597Y009041D02*
X000271Y009041D01*
X000271Y008923D02*
X000525Y008923D01*
X000515Y008804D02*
X000271Y008804D01*
X000271Y008686D02*
X000556Y008686D01*
X000271Y007660D02*
X001265Y007660D01*
X001286Y007619D02*
X000271Y007619D01*
X000271Y007501D02*
X001389Y007501D01*
X001323Y007549D02*
X001323Y007549D01*
X001573Y007390D02*
X001573Y007390D01*
X001615Y007382D02*
X000271Y007382D01*
X000271Y007264D02*
X001777Y007264D01*
X001788Y007145D02*
X000271Y007145D01*
X000271Y007027D02*
X001764Y007027D01*
X002744Y007027D02*
X002764Y007027D01*
X002762Y007956D02*
X002762Y008628D01*
X002814Y008680D01*
X002857Y008785D01*
X002857Y008898D01*
X002837Y008947D01*
X002867Y008947D01*
X002888Y008945D01*
X002926Y008929D01*
X002955Y008900D01*
X002970Y008862D01*
X002972Y008841D01*
X002972Y007956D01*
X002762Y007956D01*
X002762Y007975D02*
X002972Y007975D01*
X002972Y008093D02*
X002762Y008093D01*
X002762Y008212D02*
X002972Y008212D01*
X002972Y008330D02*
X002762Y008330D01*
X002762Y008449D02*
X002972Y008449D01*
X002972Y008567D02*
X002762Y008567D01*
X002816Y008686D02*
X002972Y008686D01*
X002972Y008804D02*
X002857Y008804D01*
X002847Y008923D02*
X002932Y008923D01*
X003251Y009144D02*
X003458Y009144D01*
X003478Y009142D01*
X003516Y009126D01*
X003545Y009097D01*
X003561Y009059D01*
X003563Y009038D01*
X003563Y007956D01*
X003352Y007956D01*
X003352Y008938D01*
X003279Y009116D01*
X003251Y009144D01*
X003279Y009116D02*
X003279Y009116D01*
X003310Y009041D02*
X003563Y009041D01*
X003563Y008923D02*
X003352Y008923D01*
X003352Y008804D02*
X003563Y008804D01*
X003563Y008686D02*
X003352Y008686D01*
X003352Y008567D02*
X003563Y008567D01*
X003563Y008449D02*
X003352Y008449D01*
X003352Y008330D02*
X003563Y008330D01*
X003563Y008212D02*
X003352Y008212D01*
X003352Y008093D02*
X003563Y008093D01*
X003563Y007975D02*
X003352Y007975D01*
X002930Y009752D02*
X002781Y009752D01*
X002769Y010023D02*
X003271Y010023D01*
X003560Y010345D02*
X003651Y010345D01*
X004281Y009752D02*
X004350Y009752D01*
X006017Y010869D02*
X006351Y010869D01*
X006661Y010560D01*
X007182Y010560D01*
X007198Y009826D02*
X007200Y009798D01*
X007205Y009770D01*
X007213Y009742D01*
X007225Y009716D01*
X007240Y009692D01*
X007257Y009670D01*
X007278Y009649D01*
X007300Y009632D01*
X007324Y009617D01*
X007350Y009605D01*
X007378Y009597D01*
X007406Y009592D01*
X007434Y009590D01*
X008693Y006364D02*
X008693Y006065D01*
X009071Y006065D01*
X009071Y006225D01*
X009060Y006265D01*
X009039Y006302D01*
X009009Y006332D01*
X008972Y006353D01*
X008932Y006364D01*
X008693Y006364D01*
X008693Y006316D02*
X008656Y006316D01*
X008656Y006197D02*
X008693Y006197D01*
X008693Y006079D02*
X008656Y006079D01*
X008656Y005960D02*
X008693Y005960D01*
X008693Y005842D02*
X008656Y005842D01*
X009064Y005842D02*
X009272Y005842D01*
X009272Y005960D02*
X009071Y005960D01*
X009071Y006079D02*
X009272Y006079D01*
X009272Y006197D02*
X009071Y006197D01*
X009025Y006316D02*
X009272Y006316D01*
X010154Y005591D02*
X010209Y005591D01*
X010291Y005673D01*
X010291Y005748D01*
X010304Y005748D01*
X010427Y005625D01*
X010544Y005508D01*
X010802Y005508D01*
X010841Y005413D01*
X010987Y005267D01*
X011154Y005198D01*
X011099Y005169D01*
X011030Y005119D01*
X010970Y005059D01*
X010920Y004991D01*
X010881Y004915D01*
X010855Y004834D01*
X010843Y004756D01*
X011333Y004756D01*
X011333Y004659D01*
X010843Y004659D01*
X010855Y004581D01*
X010881Y004500D01*
X010920Y004425D01*
X010970Y004356D01*
X011030Y004296D01*
X011099Y004246D01*
X011154Y004218D01*
X010987Y004148D01*
X010841Y004002D01*
X010798Y003898D01*
X010647Y003898D01*
X010535Y003786D01*
X009875Y003126D01*
X008655Y003126D01*
X007913Y003868D01*
X009495Y003868D01*
X009612Y003985D01*
X010154Y004526D01*
X010154Y005591D01*
X010222Y005605D02*
X010447Y005605D01*
X010329Y005723D02*
X010291Y005723D01*
X010387Y005948D02*
X010627Y005708D01*
X011282Y005708D01*
X011534Y005249D02*
X012550Y005249D01*
X012550Y005131D02*
X011718Y005131D01*
X011828Y005012D02*
X012550Y005012D01*
X012550Y004894D02*
X011889Y004894D01*
X011918Y004775D02*
X012550Y004775D01*
X012550Y004657D02*
X011920Y004657D01*
X011894Y004538D02*
X012550Y004538D01*
X012550Y004420D02*
X011840Y004420D01*
X011739Y004301D02*
X012550Y004301D01*
X012550Y004183D02*
X011513Y004183D01*
X011661Y004064D02*
X012550Y004064D01*
X012550Y003946D02*
X011746Y003946D01*
X011795Y003827D02*
X012550Y003827D01*
X012550Y003709D02*
X011802Y003709D01*
X011796Y003590D02*
X012550Y003590D01*
X012550Y003472D02*
X011747Y003472D01*
X011663Y003353D02*
X012550Y003353D01*
X012550Y003235D02*
X011499Y003235D01*
X011709Y003116D02*
X012550Y003116D01*
X012550Y002998D02*
X011825Y002998D01*
X011874Y002879D02*
X012550Y002879D01*
X012550Y002761D02*
X011902Y002761D01*
X011902Y002642D02*
X012550Y002642D01*
X012550Y002524D02*
X011868Y002524D01*
X011815Y002405D02*
X012550Y002405D01*
X012550Y002287D02*
X011696Y002287D01*
X011675Y001521D02*
X011634Y001510D01*
X011598Y001489D01*
X011568Y001459D01*
X011547Y001423D01*
X011536Y001382D01*
X011536Y001203D01*
X011874Y001203D01*
X011874Y001521D01*
X011675Y001521D01*
X011567Y001457D02*
X011463Y001457D01*
X011501Y001339D02*
X011536Y001339D01*
X011536Y001220D02*
X011501Y001220D01*
X011536Y001126D02*
X011536Y000946D01*
X011547Y000906D01*
X011568Y000869D01*
X011598Y000839D01*
X011634Y000818D01*
X011675Y000807D01*
X011874Y000807D01*
X011874Y001126D01*
X011536Y001126D01*
X011536Y001102D02*
X011501Y001102D01*
X011501Y000983D02*
X011536Y000983D01*
X011573Y000865D02*
X011456Y000865D01*
X011145Y001164D02*
X009895Y001164D01*
X009583Y000865D02*
X009537Y000865D01*
X009544Y001457D02*
X009576Y001457D01*
X010213Y001457D02*
X010826Y001457D01*
X010833Y000865D02*
X010206Y000865D01*
X009984Y003235D02*
X008546Y003235D01*
X008427Y003353D02*
X010102Y003353D01*
X010221Y003472D02*
X008309Y003472D01*
X008190Y003590D02*
X010339Y003590D01*
X010458Y003709D02*
X008072Y003709D01*
X007953Y003827D02*
X010576Y003827D01*
X010817Y003946D02*
X009573Y003946D01*
X009692Y004064D02*
X010903Y004064D01*
X011070Y004183D02*
X009810Y004183D01*
X009929Y004301D02*
X011025Y004301D01*
X010924Y004420D02*
X010047Y004420D01*
X010154Y004538D02*
X010869Y004538D01*
X010843Y004657D02*
X010154Y004657D01*
X010154Y004775D02*
X010846Y004775D01*
X010874Y004894D02*
X010154Y004894D01*
X010154Y005012D02*
X010935Y005012D01*
X011045Y005131D02*
X010154Y005131D01*
X010154Y005249D02*
X011030Y005249D01*
X010886Y005368D02*
X010154Y005368D01*
X010154Y005486D02*
X010811Y005486D01*
X011508Y006197D02*
X012550Y006197D01*
X012550Y006079D02*
X011646Y006079D01*
X011740Y005960D02*
X012550Y005960D01*
X012550Y005842D02*
X011789Y005842D01*
X011802Y005723D02*
X012550Y005723D01*
X012550Y005605D02*
X011802Y005605D01*
X011753Y005486D02*
X012550Y005486D01*
X012550Y005368D02*
X011677Y005368D01*
X011725Y006316D02*
X012550Y006316D01*
X012550Y006434D02*
X011831Y006434D01*
X011880Y006553D02*
X012550Y006553D01*
X012550Y006671D02*
X011902Y006671D01*
X011902Y006790D02*
X012550Y006790D01*
X012550Y006908D02*
X011862Y006908D01*
X011798Y007027D02*
X012550Y007027D01*
X012550Y007145D02*
X011680Y007145D01*
X012290Y009397D02*
X012550Y009397D01*
X012550Y009515D02*
X012381Y009515D01*
X012404Y009634D02*
X012550Y009634D01*
X012550Y009752D02*
X012377Y009752D01*
X012280Y009871D02*
X012550Y009871D01*
X012550Y009989D02*
X011877Y009989D01*
X011885Y010108D02*
X012550Y010108D01*
X012550Y010226D02*
X011567Y010226D01*
X011885Y010345D02*
X012550Y010345D01*
X012550Y010463D02*
X011885Y010463D01*
X011859Y009871D02*
X011958Y009871D01*
X012119Y009629D02*
X012099Y009609D01*
X011529Y011735D02*
X011529Y012483D01*
X007032Y002524D02*
X006753Y002524D01*
X006743Y002405D02*
X007151Y002405D01*
X005481Y000628D02*
X005204Y000628D01*
X005265Y000746D02*
X005367Y000746D01*
X005317Y000865D02*
X005293Y000865D01*
X005290Y000983D02*
X005295Y000983D01*
X005295Y001102D02*
X005261Y001102D01*
X005195Y001220D02*
X005338Y001220D01*
X005413Y001339D02*
X005073Y001339D01*
X000760Y005605D02*
X000683Y005605D01*
X000683Y005723D02*
X000760Y005723D01*
X000760Y005842D02*
X000683Y005842D01*
X000396Y005605D02*
X000271Y005605D01*
X000271Y005723D02*
X000365Y005723D01*
X000365Y005842D02*
X000271Y005842D01*
X000271Y005960D02*
X000365Y005960D01*
X000365Y006079D02*
X000271Y006079D01*
X000271Y006197D02*
X000376Y006197D01*
X000385Y006316D02*
X000271Y006316D01*
X000271Y006434D02*
X000385Y006434D01*
X000385Y006553D02*
X000271Y006553D01*
X000271Y006671D02*
X000385Y006671D01*
X000385Y006790D02*
X000271Y006790D01*
X000271Y006908D02*
X000431Y006908D01*
X011874Y001457D02*
X011951Y001457D01*
X011951Y001521D02*
X012150Y001521D01*
X012191Y001510D01*
X012227Y001489D01*
X012257Y001459D01*
X012278Y001423D01*
X012289Y001382D01*
X012289Y001203D01*
X011951Y001203D01*
X011874Y001203D01*
X011874Y001126D01*
X011951Y001126D01*
X011951Y001203D01*
X011951Y001521D01*
X011951Y001339D02*
X011874Y001339D01*
X011874Y001220D02*
X011951Y001220D01*
X011951Y001126D02*
X012289Y001126D01*
X012289Y000946D01*
X012278Y000906D01*
X012257Y000869D01*
X012227Y000839D01*
X012191Y000818D01*
X012150Y000807D01*
X011951Y000807D01*
X011951Y001126D01*
X011951Y001102D02*
X011874Y001102D01*
X011874Y000983D02*
X011951Y000983D01*
X011951Y000865D02*
X011874Y000865D01*
X012252Y000865D02*
X012550Y000865D01*
X012550Y000983D02*
X012289Y000983D01*
X012289Y001102D02*
X012550Y001102D01*
X012550Y001220D02*
X012289Y001220D01*
X012289Y001339D02*
X012550Y001339D01*
X012550Y001457D02*
X012258Y001457D01*
D21*
X007198Y005298D02*
X006495Y006001D01*
X006495Y006583D01*
X004495Y006583D02*
X004495Y005942D01*
X003851Y005298D01*
X010938Y014737D02*
X010939Y014742D01*
X010943Y014746D01*
X010948Y014747D01*
X011725Y014747D01*
X005722Y017946D02*
X005722Y018349D01*
X005722Y017946D02*
X005574Y017798D01*
X005574Y017156D01*
X004777Y018684D02*
X004777Y019570D01*
X004782Y019571D01*
X004786Y019575D01*
X004787Y019580D01*
X004786Y019580D02*
X004786Y020062D01*
X004107Y018694D02*
X003064Y018694D01*
X002031Y018694D01*
X002026Y018693D01*
X002022Y018689D01*
X002021Y018684D01*
X001351Y018684D02*
X001351Y016908D01*
X001466Y016908D01*
X002828Y017109D01*
X003497Y017109D02*
X004527Y017109D01*
X004539Y017111D01*
X004551Y017115D01*
X004560Y017123D01*
X004568Y017133D01*
X004572Y017144D01*
X004574Y017156D01*
X004107Y018684D02*
X004107Y018694D01*
D22*
X004786Y020062D03*
X005722Y019570D03*
X004836Y016125D03*
X003753Y014747D03*
X003261Y013271D03*
X004442Y012641D03*
X003261Y011056D03*
X003950Y010515D03*
X004442Y010023D03*
X004639Y008251D03*
X004048Y008251D03*
X003458Y008251D03*
X002867Y008251D03*
X002572Y008841D03*
X002277Y008251D03*
X001686Y008251D03*
X001096Y008251D03*
X000800Y008841D03*
X000505Y008251D03*
X000702Y005101D03*
X002474Y005101D03*
X003113Y003920D03*
X005525Y005200D03*
X006017Y005495D03*
X005820Y008251D03*
X006411Y008251D03*
X007001Y008251D03*
X007592Y008251D03*
X008182Y008251D03*
X008773Y008251D03*
X008773Y007463D03*
X009363Y007463D03*
X009363Y008251D03*
X009954Y008251D03*
X010544Y008251D03*
X011135Y008251D03*
X011725Y008251D03*
X012119Y009629D03*
X010938Y013369D03*
X011725Y014747D03*
X008035Y011056D03*
X007099Y012680D03*
X007099Y013861D03*
X006460Y010072D03*
X005229Y008251D03*
X000800Y011597D03*
X000800Y012680D03*
X000800Y017700D03*
X001981Y017700D03*
X001686Y019767D03*
X000997Y019767D03*
D23*
X001141Y018093D02*
X000505Y018093D01*
X000505Y015239D01*
X000597Y015239D01*
X000624Y015267D01*
X002307Y015267D01*
X002383Y015191D01*
X002383Y014689D01*
X002375Y014681D01*
X002375Y014156D01*
X005229Y014156D01*
X005229Y014235D01*
X005227Y014234D01*
X005172Y014219D01*
X005093Y014219D01*
X005093Y014744D01*
X005055Y014744D01*
X004786Y014744D01*
X004593Y014744D01*
X004593Y014782D01*
X004555Y014782D01*
X004555Y015306D01*
X004476Y015306D01*
X004421Y015291D01*
X004371Y015263D01*
X004330Y015222D01*
X004301Y015172D01*
X004286Y015116D01*
X004286Y014782D01*
X004555Y014782D01*
X004555Y014744D01*
X004286Y014744D01*
X004286Y014409D01*
X004301Y014353D01*
X004330Y014303D01*
X004371Y014263D01*
X004421Y014234D01*
X004476Y014219D01*
X004555Y014219D01*
X004555Y014744D01*
X004593Y014744D01*
X004593Y014219D01*
X004672Y014219D01*
X004727Y014234D01*
X004777Y014263D01*
X004818Y014303D01*
X004824Y014314D01*
X004830Y014303D01*
X004871Y014263D01*
X004921Y014234D01*
X004976Y014219D01*
X005055Y014219D01*
X005055Y014744D01*
X005055Y014782D01*
X005055Y015306D01*
X004976Y015306D01*
X004921Y015291D01*
X004871Y015263D01*
X004830Y015222D01*
X004824Y015212D01*
X004818Y015222D01*
X004777Y015263D01*
X004727Y015291D01*
X004672Y015306D01*
X004593Y015306D01*
X004593Y014782D01*
X005055Y014782D01*
X005093Y014782D01*
X005093Y015306D01*
X005172Y015306D01*
X005227Y015291D01*
X005229Y015290D01*
X005229Y015394D01*
X003883Y015394D01*
X003883Y015323D01*
X003807Y015247D01*
X003305Y015247D01*
X003229Y015323D01*
X003229Y015394D01*
X003096Y015394D01*
X003096Y015323D01*
X003019Y015247D01*
X002518Y015247D01*
X002442Y015323D01*
X002442Y015864D01*
X002506Y015928D01*
X002442Y015992D01*
X002442Y016533D01*
X002518Y016609D01*
X003019Y016609D01*
X003096Y016533D01*
X003096Y016453D01*
X003229Y016453D01*
X003229Y016533D01*
X003305Y016609D01*
X003307Y016609D01*
X003307Y016782D01*
X003227Y016782D01*
X003162Y016847D01*
X003098Y016782D01*
X002557Y016782D01*
X002492Y016847D01*
X002383Y016831D01*
X002383Y016658D01*
X002307Y016581D01*
X000624Y016581D01*
X000548Y016658D01*
X000548Y017159D01*
X000624Y017235D01*
X001141Y017235D01*
X001141Y018093D01*
X001141Y018012D02*
X000505Y018012D01*
X000505Y017913D02*
X001141Y017913D01*
X001141Y017815D02*
X000505Y017815D01*
X000505Y017716D02*
X001141Y017716D01*
X001141Y017618D02*
X000505Y017618D01*
X000505Y017519D02*
X001141Y017519D01*
X001141Y017421D02*
X000505Y017421D01*
X000505Y017322D02*
X001141Y017322D01*
X001561Y017322D02*
X002481Y017322D01*
X002481Y017360D02*
X002481Y017270D01*
X002243Y017235D01*
X001561Y017235D01*
X001561Y018093D01*
X005229Y018093D01*
X005229Y017684D01*
X005227Y017685D01*
X005172Y017700D01*
X005093Y017700D01*
X005093Y017175D01*
X005055Y017175D01*
X005055Y017700D01*
X004976Y017700D01*
X004921Y017685D01*
X004871Y017656D01*
X004830Y017616D01*
X004815Y017590D01*
X004725Y017680D01*
X004423Y017680D01*
X004306Y017564D01*
X004306Y017319D01*
X003844Y017319D01*
X003844Y017360D01*
X003768Y017436D01*
X003227Y017436D01*
X003162Y017372D01*
X003098Y017436D01*
X002557Y017436D01*
X002481Y017360D01*
X002542Y017421D02*
X001561Y017421D01*
X001561Y017519D02*
X004306Y017519D01*
X004306Y017421D02*
X003783Y017421D01*
X003844Y017322D02*
X004306Y017322D01*
X004360Y017618D02*
X001561Y017618D01*
X001561Y017716D02*
X005229Y017716D01*
X005229Y017815D02*
X001561Y017815D01*
X001561Y017913D02*
X005229Y017913D01*
X005229Y018012D02*
X001561Y018012D01*
X002383Y016830D02*
X002510Y016830D01*
X002383Y016731D02*
X003307Y016731D01*
X003307Y016633D02*
X002358Y016633D01*
X002443Y016534D02*
X000505Y016534D01*
X000505Y016436D02*
X002442Y016436D01*
X002442Y016337D02*
X000505Y016337D01*
X000505Y016239D02*
X002442Y016239D01*
X002442Y016140D02*
X000505Y016140D01*
X000505Y016042D02*
X002442Y016042D01*
X002491Y015943D02*
X000505Y015943D01*
X000505Y015845D02*
X002442Y015845D01*
X002442Y015746D02*
X000505Y015746D01*
X000505Y015648D02*
X002442Y015648D01*
X002442Y015549D02*
X000505Y015549D01*
X000505Y015451D02*
X002442Y015451D01*
X002442Y015352D02*
X000505Y015352D01*
X000505Y015254D02*
X000611Y015254D01*
X000573Y016633D02*
X000505Y016633D01*
X000505Y016731D02*
X000548Y016731D01*
X000548Y016830D02*
X000505Y016830D01*
X000505Y016928D02*
X000548Y016928D01*
X000548Y017027D02*
X000505Y017027D01*
X000505Y017125D02*
X000548Y017125D01*
X000505Y017224D02*
X000613Y017224D01*
X002320Y015254D02*
X002511Y015254D01*
X002383Y015155D02*
X004296Y015155D01*
X004286Y015057D02*
X002383Y015057D01*
X002383Y014958D02*
X004286Y014958D01*
X004286Y014860D02*
X002383Y014860D01*
X002383Y014761D02*
X004555Y014761D01*
X004593Y014761D02*
X005055Y014761D01*
X005055Y014663D02*
X005093Y014663D01*
X005093Y014564D02*
X005055Y014564D01*
X005055Y014466D02*
X005093Y014466D01*
X005093Y014367D02*
X005055Y014367D01*
X005055Y014269D02*
X005093Y014269D01*
X005229Y014170D02*
X002375Y014170D01*
X002375Y014269D02*
X004365Y014269D01*
X004297Y014367D02*
X002375Y014367D01*
X002375Y014466D02*
X004286Y014466D01*
X004286Y014564D02*
X002375Y014564D01*
X002375Y014663D02*
X004286Y014663D01*
X004555Y014663D02*
X004593Y014663D01*
X004593Y014564D02*
X004555Y014564D01*
X004555Y014466D02*
X004593Y014466D01*
X004593Y014367D02*
X004555Y014367D01*
X004555Y014269D02*
X004593Y014269D01*
X004783Y014269D02*
X004865Y014269D01*
X005055Y014860D02*
X005093Y014860D01*
X005093Y014958D02*
X005055Y014958D01*
X005055Y015057D02*
X005093Y015057D01*
X005093Y015155D02*
X005055Y015155D01*
X005055Y015254D02*
X005093Y015254D01*
X005229Y015352D02*
X003883Y015352D01*
X003814Y015254D02*
X004361Y015254D01*
X004555Y015254D02*
X004593Y015254D01*
X004593Y015155D02*
X004555Y015155D01*
X004555Y015057D02*
X004593Y015057D01*
X004593Y014958D02*
X004555Y014958D01*
X004555Y014860D02*
X004593Y014860D01*
X004786Y015254D02*
X004861Y015254D01*
X005229Y015774D02*
X003883Y015774D01*
X003883Y015864D01*
X003819Y015928D01*
X003883Y015992D01*
X003883Y016533D01*
X003807Y016609D01*
X003687Y016609D01*
X003687Y016782D01*
X003768Y016782D01*
X003844Y016858D01*
X003844Y016899D01*
X004306Y016899D01*
X004306Y016749D01*
X004423Y016633D01*
X004725Y016633D01*
X004815Y016723D01*
X004830Y016697D01*
X004871Y016656D01*
X004921Y016628D01*
X004976Y016613D01*
X005055Y016613D01*
X005055Y017137D01*
X005093Y017137D01*
X005093Y016613D01*
X005172Y016613D01*
X005227Y016628D01*
X005229Y016629D01*
X005229Y015774D01*
X005229Y015845D02*
X003883Y015845D01*
X003834Y015943D02*
X005229Y015943D01*
X005229Y016042D02*
X003883Y016042D01*
X003883Y016140D02*
X005229Y016140D01*
X005229Y016239D02*
X003883Y016239D01*
X003883Y016337D02*
X005229Y016337D01*
X005229Y016436D02*
X003883Y016436D01*
X003882Y016534D02*
X005229Y016534D01*
X005093Y016633D02*
X005055Y016633D01*
X005055Y016731D02*
X005093Y016731D01*
X005093Y016830D02*
X005055Y016830D01*
X005055Y016928D02*
X005093Y016928D01*
X005093Y017027D02*
X005055Y017027D01*
X005055Y017125D02*
X005093Y017125D01*
X005093Y017224D02*
X005055Y017224D01*
X005055Y017322D02*
X005093Y017322D01*
X005093Y017421D02*
X005055Y017421D01*
X005055Y017519D02*
X005093Y017519D01*
X005093Y017618D02*
X005055Y017618D01*
X004832Y017618D02*
X004788Y017618D01*
X004306Y016830D02*
X003815Y016830D01*
X003687Y016731D02*
X004324Y016731D01*
X004912Y016633D02*
X003687Y016633D01*
X003230Y016534D02*
X003095Y016534D01*
X003145Y016830D02*
X003179Y016830D01*
X003211Y017421D02*
X003114Y017421D01*
X003096Y015352D02*
X003229Y015352D01*
X003299Y015254D02*
X003026Y015254D01*
X002011Y010830D02*
X002011Y010544D01*
X002009Y010517D01*
X002004Y010490D01*
X001996Y010464D01*
X001985Y010439D01*
X001971Y010416D01*
X001954Y010394D01*
X001935Y010375D01*
X001913Y010358D01*
X001890Y010344D01*
X001865Y010333D01*
X001839Y010325D01*
X001812Y010320D01*
X001785Y010318D01*
X001391Y010318D01*
X001358Y010316D01*
X001325Y010311D01*
X001294Y010301D01*
X001263Y010289D01*
X001234Y010273D01*
X001207Y010254D01*
X001182Y010232D01*
X001160Y010207D01*
X001141Y010180D01*
X001125Y010151D01*
X001113Y010120D01*
X001103Y010089D01*
X001098Y010056D01*
X001096Y010023D01*
X001096Y009137D01*
X001095Y009137D02*
X001097Y009114D01*
X001102Y009091D01*
X001111Y009070D01*
X001123Y009050D01*
X001138Y009032D01*
X001156Y009017D01*
X001176Y009005D01*
X001197Y008996D01*
X001220Y008991D01*
X001243Y008989D01*
X001266Y008987D01*
X001289Y008982D01*
X001310Y008973D01*
X001330Y008961D01*
X001348Y008946D01*
X001363Y008928D01*
X001375Y008908D01*
X001384Y008887D01*
X001389Y008864D01*
X001391Y008841D01*
X001391Y007906D01*
X001391Y007907D02*
X001394Y007869D01*
X001402Y007832D01*
X001412Y007796D01*
X001427Y007761D01*
X001445Y007728D01*
X001467Y007697D01*
X001491Y007669D01*
X001518Y007643D01*
X001548Y007620D01*
X001580Y007600D01*
X001614Y007584D01*
X001650Y007571D01*
X001686Y007562D01*
X001721Y007553D01*
X001755Y007541D01*
X001788Y007526D01*
X001819Y007508D01*
X001848Y007487D01*
X001875Y007463D01*
X001899Y007436D01*
X001920Y007407D01*
X001939Y007377D01*
X001955Y007344D01*
X001967Y007310D01*
X001976Y007275D01*
X001981Y007240D01*
X001983Y007204D01*
X001981Y007168D01*
X001981Y006596D01*
X001995Y006583D01*
X002995Y007336D02*
X002572Y007759D01*
X002572Y008841D01*
X002867Y009136D02*
X002900Y009134D01*
X002933Y009129D01*
X002964Y009119D01*
X002995Y009107D01*
X003024Y009091D01*
X003051Y009072D01*
X003076Y009050D01*
X003098Y009025D01*
X003117Y008998D01*
X003133Y008969D01*
X003145Y008938D01*
X003155Y008907D01*
X003160Y008874D01*
X003162Y008841D01*
X003162Y007759D01*
X003495Y007426D01*
X003495Y006583D01*
X003995Y006583D02*
X003995Y007517D01*
X003753Y007759D01*
X003753Y009038D01*
X003751Y009071D01*
X003746Y009104D01*
X003736Y009135D01*
X003724Y009166D01*
X003708Y009195D01*
X003689Y009222D01*
X003667Y009247D01*
X003642Y009269D01*
X003615Y009288D01*
X003586Y009304D01*
X003555Y009316D01*
X003524Y009326D01*
X003491Y009331D01*
X003458Y009333D01*
X003458Y009334D02*
X001883Y009334D01*
X001883Y009333D02*
X001863Y009335D01*
X001843Y009339D01*
X001825Y009347D01*
X001808Y009357D01*
X001792Y009370D01*
X001779Y009386D01*
X001769Y009403D01*
X001761Y009421D01*
X001757Y009441D01*
X001755Y009461D01*
X001755Y009806D01*
X001499Y009806D02*
X001499Y009422D01*
X001500Y009422D02*
X001502Y009390D01*
X001507Y009359D01*
X001516Y009328D01*
X001528Y009298D01*
X001544Y009270D01*
X001562Y009244D01*
X001583Y009220D01*
X001607Y009199D01*
X001633Y009181D01*
X001661Y009165D01*
X001691Y009153D01*
X001722Y009144D01*
X001753Y009139D01*
X001785Y009137D01*
X002867Y009137D01*
X002995Y007336D02*
X002995Y006583D01*
X002769Y004314D02*
X009068Y004314D01*
X009462Y004708D01*
X009462Y006479D01*
X009599Y006617D01*
X009954Y006617D01*
X010725Y003708D02*
X011282Y003708D01*
X010725Y003708D02*
X009954Y002936D01*
X008576Y002936D01*
X007690Y003822D01*
X003851Y003822D01*
X003495Y003465D01*
X003495Y002833D01*
X003995Y002833D02*
X003995Y003375D01*
X004245Y003625D01*
X007493Y003625D01*
X008411Y002708D01*
X011382Y002708D01*
X002769Y004314D02*
X001995Y003540D01*
X001995Y002833D01*
X000800Y008841D02*
X000800Y010515D01*
X001115Y010830D01*
X001499Y010830D01*
M02*
