G75*
%MOIN*%
%OFA0B0*%
%FSLAX24Y24*%
%IPPOS*%
%LPD*%
%AMOC8*
5,1,8,0,0,1.08239X$1,22.5*
%
%ADD10C,0.0000*%
%ADD11C,0.0160*%
%ADD12C,0.0030*%
%ADD13C,0.0050*%
%ADD14C,0.0020*%
%ADD15C,0.0060*%
D10*
X000111Y000180D02*
X000111Y020456D01*
X012710Y020456D01*
X012710Y000180D01*
X000111Y000180D01*
D11*
X000210Y000180D02*
X000210Y008054D01*
X000622Y008054D01*
X001016Y008054D02*
X001428Y008054D01*
X001821Y008054D02*
X002234Y008054D01*
X002627Y008054D02*
X003039Y008054D01*
X003433Y008054D02*
X003845Y008054D01*
X004239Y008054D02*
X004651Y008054D01*
X005045Y008054D02*
X005457Y008054D01*
X005851Y008054D02*
X006263Y008054D01*
X006657Y008054D02*
X007069Y008054D01*
X007462Y008054D02*
X007875Y008054D01*
X008268Y008054D02*
X008680Y008054D01*
X009074Y008054D02*
X009486Y008054D01*
X009880Y008054D02*
X010292Y008054D01*
X010686Y008054D02*
X011098Y008054D01*
X011492Y008054D02*
X011904Y008054D01*
X012298Y008054D02*
X012710Y008054D01*
X012710Y020456D01*
X000210Y020456D01*
X000210Y008054D01*
X000210Y000180D02*
X012710Y000180D01*
X012710Y008054D01*
D12*
X012436Y005361D02*
X012498Y005299D01*
X012498Y005176D01*
X012436Y005114D01*
X012436Y004993D02*
X012189Y004993D01*
X012128Y004931D01*
X012128Y004746D01*
X012498Y004746D01*
X012498Y004931D01*
X012436Y004993D01*
X012313Y005238D02*
X012313Y005299D01*
X012374Y005361D01*
X012436Y005361D01*
X012313Y005299D02*
X012251Y005361D01*
X012189Y005361D01*
X012128Y005299D01*
X012128Y005176D01*
X012189Y005114D01*
X012189Y004624D02*
X012128Y004563D01*
X012128Y004439D01*
X012189Y004378D01*
X012436Y004378D01*
X012498Y004439D01*
X012498Y004563D01*
X012436Y004624D01*
X012498Y004255D02*
X012498Y004132D01*
X012498Y004194D02*
X012128Y004194D01*
X012128Y004255D02*
X012128Y004132D01*
X009195Y009047D02*
X009195Y009417D01*
X009010Y009232D01*
X009257Y009232D01*
X008889Y009109D02*
X008827Y009047D01*
X008703Y009047D01*
X008642Y009109D01*
X008642Y009417D01*
X008889Y009417D02*
X008889Y009109D01*
X008758Y009841D02*
X008467Y009841D01*
X008564Y009937D01*
X008467Y010034D01*
X008758Y010034D01*
X008758Y010135D02*
X008564Y010135D01*
X008467Y010232D01*
X008564Y010329D01*
X008758Y010329D01*
X008758Y010430D02*
X008467Y010623D01*
X008613Y010725D02*
X008467Y010870D01*
X008758Y010870D01*
X008613Y010918D02*
X008613Y010725D01*
X008758Y010623D02*
X008467Y010430D01*
X008613Y010329D02*
X008613Y010135D01*
X008613Y011019D02*
X008613Y011213D01*
X008709Y011314D02*
X008516Y011507D01*
X008467Y011507D01*
X008467Y011314D01*
X008467Y011164D02*
X008613Y011019D01*
X008758Y011164D02*
X008467Y011164D01*
X008709Y011314D02*
X008758Y011314D01*
X008758Y011609D02*
X008709Y011609D01*
X008516Y011802D01*
X008467Y011802D01*
X008467Y011609D01*
X008149Y007983D02*
X007956Y007983D01*
X007956Y007789D02*
X008149Y007789D01*
X008246Y007886D01*
X008149Y007983D01*
X008149Y007688D02*
X008101Y007640D01*
X008101Y007494D01*
X008198Y007494D01*
X008246Y007543D01*
X008246Y007640D01*
X008198Y007688D01*
X008149Y007688D01*
X008004Y007591D02*
X008101Y007494D01*
X008004Y007591D02*
X007956Y007688D01*
X007956Y007297D02*
X008246Y007297D01*
X008246Y007393D02*
X008246Y007200D01*
X008052Y007200D02*
X007956Y007297D01*
X007956Y006804D02*
X007956Y006610D01*
X008246Y006610D01*
X008246Y006509D02*
X008052Y006509D01*
X008101Y006610D02*
X008101Y006707D01*
X008246Y006509D02*
X008246Y006364D01*
X008198Y006316D01*
X008052Y006316D01*
X008004Y006215D02*
X008198Y006021D01*
X008246Y006070D01*
X008246Y006166D01*
X008198Y006215D01*
X008004Y006215D01*
X007956Y006166D01*
X007956Y006070D01*
X008004Y006021D01*
X008198Y006021D01*
X008246Y005920D02*
X008246Y005726D01*
X008246Y005823D02*
X007956Y005823D01*
X008052Y005726D01*
X008120Y005466D02*
X008120Y005272D01*
X007975Y005418D01*
X008266Y005418D01*
X008266Y005171D02*
X008266Y004978D01*
X008266Y005075D02*
X007975Y005075D01*
X008072Y004978D01*
X008024Y004877D02*
X007975Y004828D01*
X007975Y004732D01*
X008024Y004683D01*
X008217Y004683D01*
X008266Y004732D01*
X008266Y004828D01*
X008217Y004877D01*
X006611Y004329D02*
X006418Y004329D01*
X006514Y004329D02*
X006514Y004619D01*
X006418Y004522D01*
X006316Y004571D02*
X006316Y004377D01*
X006268Y004329D01*
X006171Y004329D01*
X006123Y004377D01*
X006316Y004571D01*
X006268Y004619D01*
X006171Y004619D01*
X006123Y004571D01*
X006123Y004377D01*
X006022Y004377D02*
X005973Y004329D01*
X005877Y004329D01*
X005828Y004377D01*
X005727Y004329D02*
X005727Y004522D01*
X005630Y004619D01*
X005534Y004522D01*
X005534Y004329D01*
X005433Y004329D02*
X005287Y004474D01*
X005239Y004426D02*
X005433Y004619D01*
X005534Y004474D02*
X005727Y004474D01*
X005828Y004571D02*
X005877Y004619D01*
X005973Y004619D01*
X006022Y004571D01*
X006022Y004522D01*
X005973Y004474D01*
X006022Y004426D01*
X006022Y004377D01*
X005973Y004474D02*
X005925Y004474D01*
X005239Y004619D02*
X005239Y004329D01*
X005138Y004329D02*
X004944Y004329D01*
X005138Y004522D01*
X005138Y004571D01*
X005089Y004619D01*
X004993Y004619D01*
X004944Y004571D01*
X004843Y004571D02*
X004843Y004522D01*
X004795Y004474D01*
X004843Y004426D01*
X004843Y004377D01*
X004795Y004329D01*
X004698Y004329D01*
X004650Y004377D01*
X004549Y004426D02*
X004549Y004619D01*
X004650Y004571D02*
X004698Y004619D01*
X004795Y004619D01*
X004843Y004571D01*
X004795Y004474D02*
X004746Y004474D01*
X004549Y004426D02*
X004452Y004329D01*
X004355Y004426D01*
X004355Y004619D01*
X004254Y004619D02*
X004060Y004619D01*
X004060Y004329D01*
X004060Y004474D02*
X004157Y004474D01*
X003959Y004474D02*
X003766Y004474D01*
X003911Y004619D01*
X003911Y004329D01*
X003665Y004329D02*
X003471Y004329D01*
X003665Y004522D01*
X003665Y004571D01*
X003616Y004619D01*
X003519Y004619D01*
X003471Y004571D01*
X003370Y004571D02*
X003322Y004619D01*
X003225Y004619D01*
X003176Y004571D01*
X003176Y004377D01*
X003225Y004329D01*
X003322Y004329D01*
X003370Y004377D01*
X003077Y004329D02*
X002980Y004329D01*
X003028Y004329D02*
X003028Y004619D01*
X002980Y004619D02*
X003077Y004619D01*
X002879Y004571D02*
X002879Y004474D01*
X002830Y004426D01*
X002685Y004426D01*
X002685Y004329D02*
X002685Y004619D01*
X002830Y004619D01*
X002879Y004571D01*
X002065Y004572D02*
X002065Y004475D01*
X002016Y004427D01*
X002016Y004326D02*
X001775Y004326D01*
X001823Y004427D02*
X001775Y004475D01*
X001775Y004572D01*
X001823Y004620D01*
X001871Y004620D01*
X001920Y004572D01*
X001968Y004620D01*
X002016Y004620D01*
X002065Y004572D01*
X001920Y004572D02*
X001920Y004523D01*
X002016Y004326D02*
X002065Y004277D01*
X002065Y004180D01*
X002016Y004132D01*
X001775Y004132D01*
X001948Y010210D02*
X001899Y010258D01*
X001899Y010500D01*
X001948Y010210D02*
X002044Y010210D01*
X002093Y010258D01*
X002093Y010500D01*
X002194Y010500D02*
X002194Y010355D01*
X002291Y010403D01*
X002339Y010403D01*
X002387Y010355D01*
X002387Y010258D01*
X002339Y010210D01*
X002242Y010210D01*
X002194Y010258D01*
X002194Y010500D02*
X002387Y010500D01*
X004359Y015549D02*
X004552Y015549D01*
X004653Y015549D02*
X004653Y015840D01*
X004750Y015743D01*
X004847Y015840D01*
X004847Y015549D01*
X004948Y015549D02*
X004948Y015840D01*
X005093Y015840D01*
X005141Y015791D01*
X005141Y015694D01*
X005093Y015646D01*
X004948Y015646D01*
X005243Y015598D02*
X005243Y015549D01*
X005243Y015598D02*
X005436Y015791D01*
X005436Y015840D01*
X005243Y015840D01*
X005537Y015840D02*
X005731Y015840D01*
X005731Y015791D01*
X005537Y015598D01*
X005537Y015549D01*
X005832Y015549D02*
X006025Y015743D01*
X006025Y015791D01*
X005977Y015840D01*
X005880Y015840D01*
X005832Y015791D01*
X005832Y015549D02*
X006025Y015549D01*
X006126Y015549D02*
X006320Y015549D01*
X006223Y015549D02*
X006223Y015840D01*
X006126Y015743D01*
X005596Y016144D02*
X005349Y016144D01*
X005472Y016144D02*
X005472Y016514D01*
X005349Y016391D01*
X005228Y016514D02*
X005228Y016206D01*
X005166Y016144D01*
X005042Y016144D01*
X004981Y016206D01*
X004981Y016514D01*
X004359Y015840D02*
X004359Y015549D01*
X008099Y015845D02*
X008099Y016135D01*
X008195Y016038D01*
X008292Y016135D01*
X008292Y015845D01*
X008393Y015845D02*
X008393Y016038D01*
X008490Y016135D01*
X008587Y016038D01*
X008587Y015845D01*
X008688Y015845D02*
X008882Y016135D01*
X008983Y015990D02*
X009176Y015990D01*
X009277Y015990D02*
X009471Y015990D01*
X009572Y015893D02*
X009572Y015845D01*
X009572Y015893D02*
X009765Y016086D01*
X009765Y016135D01*
X009572Y016135D01*
X009422Y016135D02*
X009277Y015990D01*
X009128Y015845D02*
X009128Y016135D01*
X008983Y015990D01*
X008882Y015845D02*
X008688Y016135D01*
X008587Y015990D02*
X008393Y015990D01*
X009422Y015845D02*
X009422Y016135D01*
X009867Y016135D02*
X010060Y016135D01*
X010060Y016086D01*
X009867Y015893D01*
X009867Y015845D01*
X010465Y016212D02*
X010773Y016212D01*
X010835Y016274D01*
X010835Y016397D01*
X010773Y016459D01*
X010465Y016459D01*
X010526Y016581D02*
X010465Y016642D01*
X010465Y016766D01*
X010526Y016828D01*
X010588Y016828D01*
X010835Y016581D01*
X010835Y016828D01*
D13*
X010768Y016254D02*
X010768Y016094D01*
X011108Y016094D02*
X011108Y016254D01*
X010253Y016934D02*
X010253Y014965D01*
X010056Y014965D01*
X010768Y014482D02*
X010768Y014322D01*
X011108Y014322D02*
X011108Y014482D01*
X010253Y016934D02*
X010056Y016934D01*
X010155Y017229D02*
X010157Y017248D01*
X010162Y017267D01*
X010172Y017283D01*
X010184Y017298D01*
X010199Y017310D01*
X010215Y017320D01*
X010234Y017325D01*
X010253Y017327D01*
X010272Y017325D01*
X010291Y017320D01*
X010307Y017310D01*
X010322Y017298D01*
X010334Y017283D01*
X010344Y017267D01*
X010349Y017248D01*
X010351Y017229D01*
X010349Y017210D01*
X010344Y017191D01*
X010334Y017175D01*
X010322Y017160D01*
X010307Y017148D01*
X010291Y017138D01*
X010272Y017133D01*
X010253Y017131D01*
X010234Y017133D01*
X010215Y017138D01*
X010199Y017148D01*
X010184Y017160D01*
X010172Y017175D01*
X010162Y017191D01*
X010157Y017210D01*
X010155Y017229D01*
X009640Y017973D02*
X009480Y017973D01*
X009480Y018313D02*
X009640Y018313D01*
X009640Y018760D02*
X009480Y018760D01*
X009480Y019100D02*
X009640Y019100D01*
X010768Y017829D02*
X010768Y017669D01*
X011108Y017669D02*
X011108Y017829D01*
X009148Y013883D02*
X008988Y013883D01*
X008988Y013543D02*
X009148Y013543D01*
X009148Y013096D02*
X008988Y013096D01*
X008988Y012756D02*
X009148Y012756D01*
X009363Y011991D02*
X009363Y011794D01*
X009363Y011991D02*
X007395Y011991D01*
X007395Y011794D01*
X006187Y011284D02*
X006187Y011124D01*
X005847Y011124D02*
X005847Y011284D01*
X005399Y011284D02*
X005399Y011124D01*
X005059Y011124D02*
X005059Y011284D01*
X005059Y012846D02*
X005059Y013006D01*
X005399Y013006D02*
X005399Y012846D01*
X004045Y014680D02*
X004047Y014699D01*
X004052Y014718D01*
X004062Y014734D01*
X004074Y014749D01*
X004089Y014761D01*
X004105Y014771D01*
X004124Y014776D01*
X004143Y014778D01*
X004162Y014776D01*
X004181Y014771D01*
X004197Y014761D01*
X004212Y014749D01*
X004224Y014734D01*
X004234Y014718D01*
X004239Y014699D01*
X004241Y014680D01*
X004239Y014661D01*
X004234Y014642D01*
X004224Y014626D01*
X004212Y014611D01*
X004197Y014599D01*
X004181Y014589D01*
X004162Y014584D01*
X004143Y014582D01*
X004124Y014584D01*
X004105Y014589D01*
X004089Y014599D01*
X004074Y014611D01*
X004062Y014626D01*
X004052Y014642D01*
X004047Y014661D01*
X004045Y014680D01*
X004143Y014975D02*
X004340Y014975D01*
X004143Y014975D02*
X004143Y016944D01*
X004340Y016944D01*
X003726Y016008D02*
X003726Y015848D01*
X003386Y015848D02*
X003386Y016008D01*
X002939Y016008D02*
X002939Y015848D01*
X002599Y015848D02*
X002599Y016008D01*
X003082Y016939D02*
X003242Y016939D01*
X003242Y017279D02*
X003082Y017279D01*
X003234Y018948D02*
X003234Y019108D01*
X002894Y019108D02*
X002894Y018948D01*
X001766Y018854D02*
X001606Y018854D01*
X001606Y018514D02*
X001766Y018514D01*
X001466Y016515D02*
X001466Y016121D01*
X001859Y016121D01*
X001466Y016121D02*
X001859Y015727D01*
X001466Y015727D01*
X001466Y015334D01*
X001466Y015727D02*
X001072Y015727D01*
X001466Y016121D01*
X001072Y016121D01*
X000777Y016515D02*
X000779Y016534D01*
X000784Y016553D01*
X000794Y016569D01*
X000806Y016584D01*
X000821Y016596D01*
X000837Y016606D01*
X000856Y016611D01*
X000875Y016613D01*
X000894Y016611D01*
X000913Y016606D01*
X000929Y016596D01*
X000944Y016584D01*
X000956Y016569D01*
X000966Y016553D01*
X000971Y016534D01*
X000973Y016515D01*
X000971Y016496D01*
X000966Y016477D01*
X000956Y016461D01*
X000944Y016446D01*
X000929Y016434D01*
X000913Y016424D01*
X000894Y016419D01*
X000875Y016417D01*
X000856Y016419D01*
X000837Y016424D01*
X000821Y016434D01*
X000806Y016446D01*
X000794Y016461D01*
X000784Y016477D01*
X000779Y016496D01*
X000777Y016515D01*
X002049Y012801D02*
X002209Y012801D01*
X002209Y012461D02*
X002049Y012461D01*
X002000Y011767D02*
X002160Y011767D01*
X002160Y011427D02*
X002000Y011427D01*
X002474Y010908D02*
X002476Y010927D01*
X002481Y010946D01*
X002491Y010962D01*
X002503Y010977D01*
X002518Y010989D01*
X002534Y010999D01*
X002553Y011004D01*
X002572Y011006D01*
X002591Y011004D01*
X002610Y010999D01*
X002626Y010989D01*
X002641Y010977D01*
X002653Y010962D01*
X002663Y010946D01*
X002668Y010927D01*
X002670Y010908D01*
X002668Y010889D01*
X002663Y010870D01*
X002653Y010854D01*
X002641Y010839D01*
X002626Y010827D01*
X002610Y010817D01*
X002591Y010812D01*
X002572Y010810D01*
X002553Y010812D01*
X002534Y010817D01*
X002518Y010827D01*
X002503Y010839D01*
X002491Y010854D01*
X002481Y010870D01*
X002476Y010889D01*
X002474Y010908D01*
X002474Y010711D02*
X002572Y010711D01*
X002572Y009924D01*
X002474Y009924D01*
X003525Y009853D02*
X003685Y009853D01*
X003685Y010193D02*
X003525Y010193D01*
X003525Y011427D02*
X003685Y011427D01*
X003685Y011767D02*
X003525Y011767D01*
X003525Y012461D02*
X003685Y012461D01*
X003685Y012801D02*
X003525Y012801D01*
X001292Y010711D02*
X001194Y010711D01*
X001194Y009924D01*
X001292Y009924D01*
X000892Y006332D02*
X000892Y006172D01*
X000552Y006172D02*
X000552Y006332D01*
X001489Y006282D02*
X001686Y006282D01*
X001489Y006282D02*
X001489Y003133D01*
X001686Y003133D01*
X001686Y003723D02*
X001688Y003750D01*
X001694Y003777D01*
X001703Y003803D01*
X001716Y003827D01*
X001732Y003850D01*
X001751Y003869D01*
X001773Y003886D01*
X001797Y003900D01*
X001822Y003910D01*
X001849Y003917D01*
X001876Y003920D01*
X001904Y003919D01*
X001931Y003914D01*
X001957Y003906D01*
X001981Y003894D01*
X002004Y003878D01*
X002025Y003860D01*
X002042Y003839D01*
X002057Y003815D01*
X002068Y003790D01*
X002076Y003764D01*
X002080Y003737D01*
X002080Y003709D01*
X002076Y003682D01*
X002068Y003656D01*
X002057Y003631D01*
X002042Y003607D01*
X002025Y003586D01*
X002004Y003568D01*
X001982Y003552D01*
X001957Y003540D01*
X001931Y003532D01*
X001904Y003527D01*
X001876Y003526D01*
X001849Y003529D01*
X001822Y003536D01*
X001797Y003546D01*
X001773Y003560D01*
X001751Y003577D01*
X001732Y003596D01*
X001716Y003619D01*
X001703Y003643D01*
X001694Y003669D01*
X001688Y003696D01*
X001686Y003723D01*
X001740Y002163D02*
X002040Y001712D01*
X002040Y002163D01*
X002200Y002013D02*
X002350Y002163D01*
X002350Y001712D01*
X002200Y001712D02*
X002501Y001712D01*
X002285Y001467D02*
X002285Y000467D01*
X001285Y000467D01*
X001285Y001467D01*
X002285Y001467D01*
X007285Y001467D01*
X007285Y000467D01*
X002285Y000467D01*
X001740Y001712D02*
X001740Y002163D01*
X001580Y002088D02*
X001505Y002163D01*
X001355Y002163D01*
X001280Y002088D01*
X001280Y001787D01*
X001355Y001712D01*
X001505Y001712D01*
X001580Y001787D01*
X006804Y003133D02*
X007001Y003133D01*
X007001Y006282D01*
X006804Y006282D01*
X007395Y009629D02*
X007395Y009826D01*
X007395Y009629D02*
X009363Y009629D01*
X009363Y009826D01*
X009561Y009629D02*
X009563Y009648D01*
X009568Y009667D01*
X009578Y009683D01*
X009590Y009698D01*
X009605Y009710D01*
X009621Y009720D01*
X009640Y009725D01*
X009659Y009727D01*
X009678Y009725D01*
X009697Y009720D01*
X009713Y009710D01*
X009728Y009698D01*
X009740Y009683D01*
X009750Y009667D01*
X009755Y009648D01*
X009757Y009629D01*
X009755Y009610D01*
X009750Y009591D01*
X009740Y009575D01*
X009728Y009560D01*
X009713Y009548D01*
X009697Y009538D01*
X009678Y009533D01*
X009659Y009531D01*
X009640Y009533D01*
X009621Y009538D01*
X009605Y009548D01*
X009590Y009560D01*
X009578Y009575D01*
X009568Y009591D01*
X009563Y009610D01*
X009561Y009629D01*
X010571Y009844D02*
X010571Y010004D01*
X010911Y010004D02*
X010911Y009844D01*
X011359Y009844D02*
X011359Y010004D01*
X011699Y010004D02*
X011699Y009844D01*
X011699Y011320D02*
X011699Y011480D01*
X011359Y011480D02*
X011359Y011320D01*
X010911Y011320D02*
X010911Y011480D01*
X010571Y011480D02*
X010571Y011320D01*
X010832Y007208D02*
X010832Y006208D01*
X011832Y006208D01*
X011832Y007208D01*
X010832Y007208D01*
X010832Y006208D02*
X010832Y002208D01*
X011832Y002208D01*
X011832Y006208D01*
X010124Y006202D02*
X010124Y006362D01*
X009784Y006362D02*
X009784Y006202D01*
X009640Y001334D02*
X009480Y001334D01*
X009480Y000994D02*
X009640Y000994D01*
X011450Y000997D02*
X011617Y001164D01*
X011450Y001332D01*
X011617Y001440D02*
X011617Y001164D01*
X011617Y000889D01*
X008088Y014965D02*
X007891Y014965D01*
X007891Y016934D01*
X008088Y016934D01*
X007368Y017718D02*
X007368Y017878D01*
X007028Y017878D02*
X007028Y017718D01*
X006505Y016944D02*
X006505Y014975D01*
X006308Y014975D01*
X007028Y015011D02*
X007028Y015171D01*
X007368Y015171D02*
X007368Y015011D01*
X006505Y016944D02*
X006308Y016944D01*
X005892Y018604D02*
X005892Y018764D01*
X005552Y018764D02*
X005552Y018604D01*
X004522Y018514D02*
X004362Y018514D01*
X004362Y018854D02*
X004522Y018854D01*
X004522Y019400D02*
X004362Y019400D01*
X004362Y019740D02*
X004522Y019740D01*
D14*
X004508Y019205D02*
X004582Y019205D01*
X004618Y019168D01*
X004471Y019021D01*
X004508Y018984D01*
X004582Y018984D01*
X004618Y019021D01*
X004618Y019168D01*
X004508Y019205D02*
X004471Y019168D01*
X004471Y019021D01*
X004273Y019016D02*
X004236Y018979D01*
X004163Y018979D01*
X004126Y019016D01*
X004126Y019089D02*
X004199Y019126D01*
X004236Y019126D01*
X004273Y019089D01*
X004273Y019016D01*
X004126Y019089D02*
X004126Y019199D01*
X004273Y019199D01*
X004052Y018979D02*
X003905Y018979D01*
X003978Y018979D02*
X003978Y019199D01*
X003905Y019126D01*
X003831Y019163D02*
X003794Y019199D01*
X003721Y019199D01*
X003684Y019163D01*
X003684Y019016D01*
X003721Y018979D01*
X003794Y018979D01*
X003831Y019016D01*
X003881Y018314D02*
X003991Y018314D01*
X004028Y018277D01*
X004028Y018203D01*
X003991Y018167D01*
X003881Y018167D01*
X003954Y018167D02*
X004028Y018093D01*
X004102Y018093D02*
X004249Y018093D01*
X004175Y018093D02*
X004175Y018314D01*
X004102Y018240D01*
X003881Y018314D02*
X003881Y018093D01*
X003830Y017630D02*
X003867Y017593D01*
X003720Y017446D01*
X003757Y017410D01*
X003830Y017410D01*
X003867Y017446D01*
X003867Y017593D01*
X003830Y017630D02*
X003757Y017630D01*
X003720Y017593D01*
X003720Y017446D01*
X003646Y017446D02*
X003646Y017410D01*
X003610Y017410D01*
X003610Y017446D01*
X003646Y017446D01*
X003536Y017446D02*
X003536Y017593D01*
X003389Y017446D01*
X003425Y017410D01*
X003499Y017410D01*
X003536Y017446D01*
X003536Y017593D02*
X003499Y017630D01*
X003425Y017630D01*
X003389Y017593D01*
X003389Y017446D01*
X002969Y017404D02*
X002822Y017404D01*
X002896Y017404D02*
X002896Y017625D01*
X002822Y017551D01*
X002748Y017588D02*
X002711Y017625D01*
X002638Y017625D01*
X002601Y017588D01*
X002601Y017441D01*
X002638Y017404D01*
X002711Y017404D01*
X002748Y017441D01*
X003035Y016546D02*
X003256Y016546D01*
X003256Y016399D02*
X003035Y016399D01*
X003109Y016473D01*
X003035Y016546D01*
X003072Y016325D02*
X003219Y016178D01*
X003256Y016215D01*
X003256Y016289D01*
X003219Y016325D01*
X003072Y016325D01*
X003035Y016289D01*
X003035Y016215D01*
X003072Y016178D01*
X003219Y016178D01*
X003256Y016104D02*
X003256Y015957D01*
X003256Y016031D02*
X003035Y016031D01*
X003109Y015957D01*
X003114Y015735D02*
X003077Y015735D01*
X003041Y015698D01*
X003041Y015625D01*
X003077Y015588D01*
X003077Y015514D02*
X003151Y015514D01*
X003188Y015477D01*
X003188Y015367D01*
X003261Y015367D02*
X003041Y015367D01*
X003041Y015477D01*
X003077Y015514D01*
X003188Y015440D02*
X003261Y015514D01*
X003224Y015588D02*
X003261Y015625D01*
X003261Y015698D01*
X003224Y015735D01*
X003188Y015735D01*
X003151Y015698D01*
X003151Y015661D01*
X003151Y015698D02*
X003114Y015735D01*
X003828Y015600D02*
X003828Y015526D01*
X003865Y015489D01*
X003865Y015415D02*
X003828Y015379D01*
X003828Y015305D01*
X003865Y015269D01*
X004012Y015269D01*
X004048Y015305D01*
X004048Y015379D01*
X004012Y015415D01*
X004048Y015489D02*
X003902Y015636D01*
X003865Y015636D01*
X003828Y015600D01*
X004048Y015636D02*
X004048Y015489D01*
X003933Y015957D02*
X003823Y016068D01*
X004043Y016068D01*
X004043Y016178D02*
X004043Y016215D01*
X004006Y016215D01*
X004006Y016178D01*
X004043Y016178D01*
X004043Y016289D02*
X004006Y016289D01*
X003860Y016436D01*
X003823Y016436D01*
X003823Y016289D01*
X003933Y016104D02*
X003933Y015957D01*
X003896Y016510D02*
X003896Y016620D01*
X003933Y016657D01*
X004006Y016657D01*
X004043Y016620D01*
X004043Y016510D01*
X004116Y016510D02*
X003896Y016510D01*
X003933Y016731D02*
X003933Y016804D01*
X004043Y016731D02*
X003823Y016731D01*
X003823Y016878D01*
X003941Y017410D02*
X004088Y017410D01*
X004015Y017410D02*
X004015Y017630D01*
X003941Y017556D01*
X004162Y017556D02*
X004162Y017446D01*
X004199Y017410D01*
X004309Y017410D01*
X004309Y017556D01*
X004383Y017520D02*
X004457Y017520D01*
X004383Y017630D02*
X004530Y017630D01*
X004383Y017630D02*
X004383Y017410D01*
X004471Y018099D02*
X004618Y018099D01*
X004545Y018099D02*
X004545Y018319D01*
X004471Y018245D01*
X004692Y018319D02*
X004692Y018099D01*
X004839Y018099D02*
X004839Y018319D01*
X004766Y018245D01*
X004692Y018319D01*
X004692Y018984D02*
X004729Y018984D01*
X004729Y019021D01*
X004692Y019021D01*
X004692Y018984D01*
X004803Y018984D02*
X004950Y018984D01*
X004876Y018984D02*
X004876Y019205D01*
X004803Y019131D01*
X005024Y019131D02*
X005024Y019021D01*
X005061Y018984D01*
X005171Y018984D01*
X005171Y019131D01*
X005245Y019095D02*
X005318Y019095D01*
X005245Y018984D02*
X005245Y019205D01*
X005392Y019205D01*
X006087Y019217D02*
X006160Y019143D01*
X006087Y019217D02*
X006307Y019217D01*
X006307Y019290D02*
X006307Y019143D01*
X006307Y019069D02*
X006307Y019033D01*
X006270Y019033D01*
X006270Y019069D01*
X006307Y019069D01*
X006270Y018959D02*
X006123Y018959D01*
X006270Y018812D01*
X006307Y018849D01*
X006307Y018922D01*
X006270Y018959D01*
X006123Y018959D02*
X006087Y018922D01*
X006087Y018849D01*
X006123Y018812D01*
X006270Y018812D01*
X006275Y018491D02*
X006312Y018454D01*
X006312Y018381D01*
X006275Y018344D01*
X006275Y018270D02*
X006312Y018233D01*
X006312Y018160D01*
X006275Y018123D01*
X006129Y018123D01*
X006092Y018160D01*
X006092Y018233D01*
X006129Y018270D01*
X006129Y018344D02*
X006092Y018381D01*
X006092Y018454D01*
X006129Y018491D01*
X006165Y018491D01*
X006202Y018454D01*
X006239Y018491D01*
X006275Y018491D01*
X006202Y018454D02*
X006202Y018417D01*
X006677Y018245D02*
X006897Y018245D01*
X006824Y018245D02*
X006897Y018355D01*
X006824Y018245D02*
X006751Y018355D01*
X006897Y018171D02*
X006897Y018024D01*
X006897Y018098D02*
X006677Y018098D01*
X006751Y018024D01*
X006793Y017605D02*
X006793Y017458D01*
X006682Y017568D01*
X006903Y017568D01*
X006903Y017384D02*
X006829Y017310D01*
X006829Y017347D02*
X006829Y017237D01*
X006903Y017237D02*
X006682Y017237D01*
X006682Y017347D01*
X006719Y017384D01*
X006793Y017384D01*
X006829Y017347D01*
X006677Y016569D02*
X006677Y016423D01*
X006897Y016423D01*
X006861Y016348D02*
X006897Y016312D01*
X006897Y016202D01*
X006971Y016202D02*
X006751Y016202D01*
X006751Y016312D01*
X006787Y016348D01*
X006861Y016348D01*
X006787Y016423D02*
X006787Y016496D01*
X006714Y016127D02*
X006861Y015981D01*
X006897Y016017D01*
X006897Y016091D01*
X006861Y016127D01*
X006714Y016127D01*
X006677Y016091D01*
X006677Y016017D01*
X006714Y015981D01*
X006861Y015981D01*
X006861Y015906D02*
X006897Y015870D01*
X006897Y015796D01*
X006861Y015760D01*
X006714Y015906D01*
X006861Y015906D01*
X006861Y015760D02*
X006714Y015760D01*
X006677Y015796D01*
X006677Y015870D01*
X006714Y015906D01*
X006714Y015685D02*
X006861Y015539D01*
X006897Y015575D01*
X006897Y015649D01*
X006861Y015685D01*
X006714Y015685D01*
X006677Y015649D01*
X006677Y015575D01*
X006714Y015539D01*
X006861Y015539D01*
X006897Y015465D02*
X006897Y015318D01*
X006897Y015391D02*
X006677Y015391D01*
X006751Y015318D01*
X006793Y014898D02*
X006866Y014898D01*
X006903Y014861D01*
X006903Y014788D01*
X006866Y014751D01*
X006793Y014751D02*
X006756Y014825D01*
X006756Y014861D01*
X006793Y014898D01*
X006682Y014898D02*
X006682Y014751D01*
X006793Y014751D01*
X006866Y014677D02*
X006903Y014640D01*
X006903Y014567D01*
X006866Y014530D01*
X006719Y014530D01*
X006682Y014567D01*
X006682Y014640D01*
X006719Y014677D01*
X005815Y014024D02*
X005594Y014024D01*
X005594Y014171D01*
X005705Y014098D02*
X005705Y014024D01*
X005668Y013950D02*
X005815Y013950D01*
X005815Y013840D01*
X005778Y013803D01*
X005668Y013803D01*
X005594Y013656D02*
X005815Y013656D01*
X005815Y013729D02*
X005815Y013582D01*
X005815Y013508D02*
X005815Y013472D01*
X005778Y013472D01*
X005778Y013508D01*
X005815Y013508D01*
X005778Y013398D02*
X005815Y013361D01*
X005815Y013287D01*
X005778Y013251D01*
X005631Y013398D01*
X005778Y013398D01*
X005631Y013398D02*
X005594Y013361D01*
X005594Y013287D01*
X005631Y013251D01*
X005778Y013251D01*
X005668Y013582D02*
X005594Y013656D01*
X005636Y012954D02*
X005783Y012807D01*
X005820Y012844D01*
X005820Y012917D01*
X005783Y012954D01*
X005636Y012954D01*
X005600Y012917D01*
X005600Y012844D01*
X005636Y012807D01*
X005783Y012807D01*
X005820Y012733D02*
X005820Y012586D01*
X005820Y012659D02*
X005600Y012659D01*
X005673Y012586D01*
X005636Y012512D02*
X005600Y012475D01*
X005600Y012402D01*
X005636Y012365D01*
X005783Y012365D01*
X005820Y012402D01*
X005820Y012475D01*
X005783Y012512D01*
X005716Y012092D02*
X005643Y011982D01*
X005569Y012092D01*
X005496Y011982D02*
X005716Y011982D01*
X005716Y011909D02*
X005716Y011872D01*
X005680Y011872D01*
X005680Y011909D01*
X005716Y011909D01*
X005716Y011798D02*
X005716Y011651D01*
X005716Y011724D02*
X005496Y011724D01*
X005569Y011651D01*
X005606Y011577D02*
X005680Y011577D01*
X005716Y011540D01*
X005716Y011467D01*
X005680Y011430D01*
X005606Y011430D02*
X005569Y011503D01*
X005569Y011540D01*
X005606Y011577D01*
X005496Y011577D02*
X005496Y011430D01*
X005606Y011430D01*
X005575Y011133D02*
X005538Y011133D01*
X005501Y011096D01*
X005501Y011023D01*
X005538Y010986D01*
X005575Y011133D02*
X005722Y010986D01*
X005722Y011133D01*
X005722Y010912D02*
X005722Y010765D01*
X005722Y010838D02*
X005501Y010838D01*
X005575Y010765D01*
X005538Y010691D02*
X005611Y010691D01*
X005648Y010654D01*
X005648Y010544D01*
X005648Y010617D02*
X005722Y010691D01*
X005722Y010544D02*
X005501Y010544D01*
X005501Y010654D01*
X005538Y010691D01*
X006289Y010654D02*
X006325Y010691D01*
X006399Y010691D01*
X006436Y010654D01*
X006436Y010544D01*
X006509Y010544D02*
X006289Y010544D01*
X006289Y010654D01*
X006362Y010765D02*
X006289Y010838D01*
X006509Y010838D01*
X006509Y010765D02*
X006509Y010912D01*
X006472Y010986D02*
X006509Y011023D01*
X006509Y011096D01*
X006472Y011133D01*
X006436Y011133D01*
X006399Y011096D01*
X006399Y011059D01*
X006399Y011096D02*
X006362Y011133D01*
X006325Y011133D01*
X006289Y011096D01*
X006289Y011023D01*
X006325Y010986D01*
X006509Y010691D02*
X006436Y010617D01*
X006504Y011430D02*
X006504Y011577D01*
X006504Y011503D02*
X006283Y011503D01*
X006357Y011430D01*
X006283Y011651D02*
X006357Y011724D01*
X006283Y011798D01*
X006504Y011798D01*
X006504Y011651D02*
X006283Y011651D01*
X004752Y012118D02*
X004605Y012118D01*
X004605Y011898D01*
X004531Y011898D02*
X004531Y012045D01*
X004605Y012008D02*
X004679Y012008D01*
X004531Y011898D02*
X004421Y011898D01*
X004384Y011935D01*
X004384Y012045D01*
X004310Y011898D02*
X004163Y011898D01*
X004237Y011898D02*
X004237Y012118D01*
X004163Y012045D01*
X004089Y011935D02*
X004089Y011898D01*
X004053Y011898D01*
X004053Y011935D01*
X004089Y011935D01*
X003978Y011935D02*
X003978Y012081D01*
X003832Y011935D01*
X003868Y011898D01*
X003942Y011898D01*
X003978Y011935D01*
X003832Y011935D02*
X003832Y012081D01*
X003868Y012118D01*
X003942Y012118D01*
X003978Y012081D01*
X003633Y012076D02*
X003633Y012039D01*
X003596Y012003D01*
X003633Y011966D01*
X003633Y011929D01*
X003596Y011893D01*
X003523Y011893D01*
X003486Y011929D01*
X003412Y011893D02*
X003265Y011893D01*
X003339Y011893D02*
X003339Y012113D01*
X003265Y012039D01*
X003191Y012076D02*
X003154Y012113D01*
X003081Y012113D01*
X003044Y012076D01*
X003044Y011929D01*
X003081Y011893D01*
X003154Y011893D01*
X003191Y011929D01*
X002882Y011898D02*
X002772Y011971D01*
X002882Y012045D01*
X002772Y012118D02*
X002772Y011898D01*
X002698Y011935D02*
X002698Y012081D01*
X002551Y011935D01*
X002588Y011898D01*
X002661Y011898D01*
X002698Y011935D01*
X002698Y012081D02*
X002661Y012118D01*
X002588Y012118D01*
X002551Y012081D01*
X002551Y011935D01*
X002477Y011935D02*
X002477Y012081D01*
X002440Y012118D01*
X002367Y012118D01*
X002330Y012081D01*
X002330Y012045D01*
X002367Y012008D01*
X002477Y012008D01*
X002477Y011935D02*
X002440Y011898D01*
X002367Y011898D01*
X002330Y011935D01*
X002256Y011898D02*
X002109Y011898D01*
X002183Y011898D02*
X002183Y012118D01*
X002109Y012045D01*
X001911Y012003D02*
X001764Y012003D01*
X001874Y012113D01*
X001874Y011893D01*
X001690Y011893D02*
X001543Y011893D01*
X001616Y011893D02*
X001616Y012113D01*
X001543Y012039D01*
X001469Y012003D02*
X001432Y011966D01*
X001322Y011966D01*
X001395Y011966D02*
X001469Y011893D01*
X001469Y012003D02*
X001469Y012076D01*
X001432Y012113D01*
X001322Y012113D01*
X001322Y011893D01*
X001371Y012926D02*
X001371Y013146D01*
X001481Y013146D01*
X001518Y013110D01*
X001518Y013036D01*
X001481Y012999D01*
X001371Y012999D01*
X001444Y012999D02*
X001518Y012926D01*
X001592Y012963D02*
X001629Y012926D01*
X001702Y012926D01*
X001739Y012963D01*
X001739Y013110D01*
X001702Y013146D01*
X001629Y013146D01*
X001592Y013110D01*
X001592Y013073D01*
X001629Y013036D01*
X001739Y013036D01*
X002158Y013078D02*
X002232Y013152D01*
X002232Y012931D01*
X002305Y012931D02*
X002158Y012931D01*
X002379Y012968D02*
X002526Y013115D01*
X002526Y012968D01*
X002490Y012931D01*
X002416Y012931D01*
X002379Y012968D01*
X002379Y013115D01*
X002416Y013152D01*
X002490Y013152D01*
X002526Y013115D01*
X002600Y013115D02*
X002600Y012968D01*
X002747Y013115D01*
X002747Y012968D01*
X002711Y012931D01*
X002637Y012931D01*
X002600Y012968D01*
X002600Y013115D02*
X002637Y013152D01*
X002711Y013152D01*
X002747Y013115D01*
X002821Y013152D02*
X002821Y012931D01*
X002821Y013005D02*
X002932Y013078D01*
X003044Y013146D02*
X003044Y012926D01*
X003044Y012999D02*
X003154Y012999D01*
X003191Y013036D01*
X003191Y013110D01*
X003154Y013146D01*
X003044Y013146D01*
X003118Y012999D02*
X003191Y012926D01*
X003265Y012963D02*
X003265Y012999D01*
X003302Y013036D01*
X003375Y013036D01*
X003412Y012999D01*
X003412Y012963D01*
X003375Y012926D01*
X003302Y012926D01*
X003265Y012963D01*
X003302Y013036D02*
X003265Y013073D01*
X003265Y013110D01*
X003302Y013146D01*
X003375Y013146D01*
X003412Y013110D01*
X003412Y013073D01*
X003375Y013036D01*
X003832Y013078D02*
X003905Y013152D01*
X003905Y012931D01*
X003832Y012931D02*
X003978Y012931D01*
X004053Y012968D02*
X004053Y013115D01*
X004089Y013152D01*
X004163Y013152D01*
X004199Y013115D01*
X004053Y012968D01*
X004089Y012931D01*
X004163Y012931D01*
X004199Y012968D01*
X004199Y013115D01*
X004274Y013115D02*
X004274Y012968D01*
X004420Y013115D01*
X004420Y012968D01*
X004384Y012931D01*
X004310Y012931D01*
X004274Y012968D01*
X004274Y013115D02*
X004310Y013152D01*
X004384Y013152D01*
X004420Y013115D01*
X004495Y013152D02*
X004495Y012931D01*
X004495Y013005D02*
X004605Y013078D01*
X004495Y013005D02*
X004605Y012931D01*
X003633Y012076D02*
X003596Y012113D01*
X003523Y012113D01*
X003486Y012076D01*
X003560Y012003D02*
X003596Y012003D01*
X002932Y012931D02*
X002821Y013005D01*
X002946Y009554D02*
X003056Y009554D01*
X003093Y009517D01*
X003093Y009444D01*
X003056Y009407D01*
X002946Y009407D01*
X003019Y009407D02*
X003093Y009334D01*
X003167Y009334D02*
X003314Y009334D01*
X003240Y009334D02*
X003240Y009554D01*
X003167Y009480D01*
X003388Y009444D02*
X003461Y009480D01*
X003498Y009480D01*
X003535Y009444D01*
X003535Y009370D01*
X003498Y009334D01*
X003425Y009334D01*
X003388Y009370D01*
X003388Y009444D02*
X003388Y009554D01*
X003535Y009554D01*
X003832Y009486D02*
X003905Y009559D01*
X003905Y009339D01*
X003832Y009339D02*
X003978Y009339D01*
X004053Y009376D02*
X004089Y009339D01*
X004163Y009339D01*
X004199Y009376D01*
X004199Y009412D01*
X004163Y009449D01*
X004053Y009449D01*
X004053Y009376D01*
X004053Y009449D02*
X004126Y009522D01*
X004199Y009559D01*
X004274Y009559D02*
X004274Y009449D01*
X004347Y009486D01*
X004384Y009486D01*
X004420Y009449D01*
X004420Y009376D01*
X004384Y009339D01*
X004310Y009339D01*
X004274Y009376D01*
X004274Y009559D02*
X004420Y009559D01*
X004495Y009559D02*
X004495Y009339D01*
X004495Y009412D02*
X004605Y009486D01*
X004495Y009412D02*
X004605Y009339D01*
X002946Y009334D02*
X002946Y009554D01*
X001267Y007214D02*
X001047Y007214D01*
X001047Y007360D01*
X001157Y007287D02*
X001157Y007214D01*
X001120Y007139D02*
X001267Y007139D01*
X001267Y007029D01*
X001230Y006993D01*
X001120Y006993D01*
X001267Y006919D02*
X001267Y006772D01*
X001267Y006845D02*
X001047Y006845D01*
X001120Y006772D01*
X001230Y006698D02*
X001267Y006698D01*
X001267Y006661D01*
X001230Y006661D01*
X001230Y006698D01*
X001230Y006587D02*
X001084Y006587D01*
X001230Y006440D01*
X001267Y006477D01*
X001267Y006550D01*
X001230Y006587D01*
X001084Y006587D02*
X001047Y006550D01*
X001047Y006477D01*
X001084Y006440D01*
X001230Y006440D01*
X001089Y006143D02*
X001236Y005996D01*
X001272Y005996D01*
X001272Y005922D02*
X001272Y005775D01*
X001272Y005849D02*
X001052Y005849D01*
X001126Y005775D01*
X001089Y005701D02*
X001052Y005665D01*
X001052Y005591D01*
X001089Y005554D01*
X001236Y005554D01*
X001272Y005591D01*
X001272Y005665D01*
X001236Y005701D01*
X001052Y005996D02*
X001052Y006143D01*
X001089Y006143D01*
X008507Y013258D02*
X008544Y013221D01*
X008617Y013221D01*
X008654Y013258D01*
X008728Y013258D02*
X008765Y013221D01*
X008838Y013221D01*
X008875Y013258D01*
X008875Y013405D01*
X008838Y013442D01*
X008765Y013442D01*
X008728Y013405D01*
X008728Y013368D01*
X008765Y013331D01*
X008875Y013331D01*
X008654Y013405D02*
X008617Y013442D01*
X008544Y013442D01*
X008507Y013405D01*
X008507Y013258D01*
X008507Y014009D02*
X008507Y014229D01*
X008617Y014229D01*
X008654Y014192D01*
X008654Y014119D01*
X008617Y014082D01*
X008507Y014082D01*
X008580Y014082D02*
X008654Y014009D01*
X008728Y014009D02*
X008728Y014045D01*
X008875Y014192D01*
X008875Y014229D01*
X008728Y014229D01*
X009294Y014198D02*
X009331Y014234D01*
X009404Y014234D01*
X009441Y014198D01*
X009441Y014161D01*
X009294Y014014D01*
X009441Y014014D01*
X009515Y014051D02*
X009662Y014198D01*
X009662Y014051D01*
X009625Y014014D01*
X009552Y014014D01*
X009515Y014051D01*
X009515Y014198D01*
X009552Y014234D01*
X009625Y014234D01*
X009662Y014198D01*
X009736Y014234D02*
X009736Y014014D01*
X009736Y014087D02*
X009846Y014161D01*
X009736Y014087D02*
X009846Y014014D01*
X009846Y013447D02*
X009773Y013447D01*
X009736Y013410D01*
X009736Y013263D01*
X009883Y013410D01*
X009883Y013263D01*
X009846Y013227D01*
X009773Y013227D01*
X009736Y013263D01*
X009662Y013263D02*
X009625Y013227D01*
X009552Y013227D01*
X009515Y013263D01*
X009662Y013410D01*
X009662Y013263D01*
X009515Y013263D02*
X009515Y013410D01*
X009552Y013447D01*
X009625Y013447D01*
X009662Y013410D01*
X009441Y013227D02*
X009294Y013227D01*
X009368Y013227D02*
X009368Y013447D01*
X009294Y013373D01*
X009846Y013447D02*
X009883Y013410D01*
X009957Y013373D02*
X009957Y013153D01*
X009957Y013227D02*
X010067Y013227D01*
X010104Y013263D01*
X010104Y013337D01*
X010067Y013373D01*
X009957Y013373D01*
X010178Y013337D02*
X010252Y013337D01*
X010178Y013447D02*
X010325Y013447D01*
X010178Y013447D02*
X010178Y013227D01*
X010294Y012400D02*
X010367Y012290D01*
X010441Y012400D01*
X010441Y012290D02*
X010220Y012290D01*
X010257Y012216D02*
X010404Y012069D01*
X010441Y012105D01*
X010441Y012179D01*
X010404Y012216D01*
X010257Y012216D01*
X010220Y012179D01*
X010220Y012105D01*
X010257Y012069D01*
X010404Y012069D01*
X010404Y011995D02*
X010441Y011958D01*
X010441Y011884D01*
X010404Y011848D01*
X010257Y011995D01*
X010404Y011995D01*
X010257Y011995D02*
X010220Y011958D01*
X010220Y011884D01*
X010257Y011848D01*
X010404Y011848D01*
X010441Y011774D02*
X010441Y011627D01*
X010441Y011700D02*
X010220Y011700D01*
X010294Y011627D01*
X010226Y011355D02*
X010446Y011355D01*
X010446Y011428D02*
X010446Y011281D01*
X010446Y011207D02*
X010446Y011060D01*
X010446Y011134D02*
X010226Y011134D01*
X010299Y011060D01*
X010262Y010986D02*
X010336Y010986D01*
X010373Y010949D01*
X010373Y010839D01*
X010446Y010839D02*
X010226Y010839D01*
X010226Y010949D01*
X010262Y010986D01*
X010373Y010913D02*
X010446Y010986D01*
X010299Y011281D02*
X010226Y011355D01*
X010294Y010530D02*
X010367Y010420D01*
X010441Y010530D01*
X010441Y010420D02*
X010220Y010420D01*
X010257Y010345D02*
X010404Y010199D01*
X010441Y010235D01*
X010441Y010309D01*
X010404Y010345D01*
X010257Y010345D01*
X010220Y010309D01*
X010220Y010235D01*
X010257Y010199D01*
X010404Y010199D01*
X010404Y010124D02*
X010441Y010088D01*
X010441Y010014D01*
X010404Y009978D01*
X010257Y010124D01*
X010404Y010124D01*
X010404Y009978D02*
X010257Y009978D01*
X010220Y010014D01*
X010220Y010088D01*
X010257Y010124D01*
X010441Y009903D02*
X010441Y009757D01*
X010441Y009830D02*
X010220Y009830D01*
X010294Y009757D01*
X010262Y009558D02*
X010409Y009411D01*
X010446Y009448D01*
X010446Y009521D01*
X010409Y009558D01*
X010262Y009558D01*
X010226Y009521D01*
X010226Y009448D01*
X010262Y009411D01*
X010409Y009411D01*
X010446Y009337D02*
X010446Y009190D01*
X010446Y009264D02*
X010226Y009264D01*
X010299Y009190D01*
X010262Y009116D02*
X010336Y009116D01*
X010373Y009079D01*
X010373Y008969D01*
X010446Y008969D02*
X010226Y008969D01*
X010226Y009079D01*
X010262Y009116D01*
X010373Y009043D02*
X010446Y009116D01*
X011013Y009079D02*
X011013Y009006D01*
X011050Y008969D01*
X011197Y008969D01*
X011233Y009006D01*
X011233Y009079D01*
X011197Y009116D01*
X011233Y009190D02*
X011233Y009337D01*
X011233Y009264D02*
X011013Y009264D01*
X011087Y009190D01*
X011050Y009116D02*
X011013Y009079D01*
X011050Y009411D02*
X011013Y009448D01*
X011013Y009521D01*
X011050Y009558D01*
X011087Y009558D01*
X011233Y009411D01*
X011233Y009558D01*
X011191Y009757D02*
X011045Y009903D01*
X011191Y009903D01*
X011228Y009867D01*
X011228Y009793D01*
X011191Y009757D01*
X011045Y009757D01*
X011008Y009793D01*
X011008Y009867D01*
X011045Y009903D01*
X011191Y009978D02*
X011191Y010014D01*
X011228Y010014D01*
X011228Y009978D01*
X011191Y009978D01*
X011228Y010088D02*
X011228Y010235D01*
X011228Y010162D02*
X011008Y010162D01*
X011081Y010088D01*
X011081Y010309D02*
X011191Y010309D01*
X011228Y010346D01*
X011228Y010456D01*
X011081Y010456D01*
X011118Y010530D02*
X011118Y010604D01*
X011008Y010530D02*
X011008Y010677D01*
X011008Y010530D02*
X011228Y010530D01*
X011197Y010839D02*
X011233Y010876D01*
X011233Y010949D01*
X011197Y010986D01*
X011233Y011060D02*
X011233Y011207D01*
X011233Y011134D02*
X011013Y011134D01*
X011087Y011060D01*
X011050Y010986D02*
X011013Y010949D01*
X011013Y010876D01*
X011050Y010839D01*
X011197Y010839D01*
X011233Y011281D02*
X011233Y011428D01*
X011233Y011355D02*
X011013Y011355D01*
X011087Y011281D01*
X011045Y011627D02*
X011008Y011663D01*
X011008Y011737D01*
X011045Y011774D01*
X011191Y011627D01*
X011228Y011663D01*
X011228Y011737D01*
X011191Y011774D01*
X011045Y011774D01*
X011045Y011627D02*
X011191Y011627D01*
X011191Y011848D02*
X011191Y011884D01*
X011228Y011884D01*
X011228Y011848D01*
X011191Y011848D01*
X011228Y011958D02*
X011228Y012105D01*
X011228Y012032D02*
X011008Y012032D01*
X011081Y011958D01*
X011081Y012179D02*
X011191Y012179D01*
X011228Y012216D01*
X011228Y012326D01*
X011081Y012326D01*
X011118Y012400D02*
X011118Y012474D01*
X011008Y012400D02*
X011008Y012547D01*
X011008Y012400D02*
X011228Y012400D01*
X011345Y013743D02*
X011308Y013780D01*
X011308Y013853D01*
X011345Y013890D01*
X011419Y013964D02*
X011419Y014074D01*
X011455Y014111D01*
X011492Y014111D01*
X011529Y014074D01*
X011529Y014001D01*
X011492Y013964D01*
X011419Y013964D01*
X011345Y014037D01*
X011308Y014111D01*
X011340Y014432D02*
X011303Y014469D01*
X011303Y014542D01*
X011340Y014579D01*
X011487Y014432D01*
X011523Y014469D01*
X011523Y014542D01*
X011487Y014579D01*
X011340Y014579D01*
X011340Y014432D02*
X011487Y014432D01*
X011487Y014653D02*
X011487Y014690D01*
X011523Y014690D01*
X011523Y014653D01*
X011487Y014653D01*
X011523Y014763D02*
X011523Y014910D01*
X011523Y014837D02*
X011303Y014837D01*
X011377Y014763D01*
X011377Y014984D02*
X011487Y014984D01*
X011523Y015021D01*
X011523Y015131D01*
X011377Y015131D01*
X011413Y015205D02*
X011413Y015279D01*
X011303Y015205D02*
X011303Y015352D01*
X011303Y015205D02*
X011523Y015205D01*
X011529Y015613D02*
X011308Y015613D01*
X011308Y015723D01*
X011345Y015760D01*
X011419Y015760D01*
X011455Y015723D01*
X011455Y015613D01*
X011455Y015686D02*
X011529Y015760D01*
X011492Y015834D02*
X011529Y015871D01*
X011529Y015944D01*
X011492Y015981D01*
X011455Y015981D01*
X011419Y015944D01*
X011419Y015834D01*
X011492Y015834D01*
X011419Y015834D02*
X011345Y015907D01*
X011308Y015981D01*
X011377Y016302D02*
X011303Y016375D01*
X011523Y016375D01*
X011523Y016302D02*
X011523Y016449D01*
X011523Y016523D02*
X011303Y016523D01*
X011377Y016633D02*
X011450Y016523D01*
X011523Y016633D01*
X011492Y017188D02*
X011345Y017188D01*
X011308Y017224D01*
X011308Y017298D01*
X011345Y017335D01*
X011345Y017409D02*
X011382Y017409D01*
X011419Y017445D01*
X011419Y017519D01*
X011455Y017556D01*
X011492Y017556D01*
X011529Y017519D01*
X011529Y017445D01*
X011492Y017409D01*
X011455Y017409D01*
X011419Y017445D01*
X011419Y017519D02*
X011382Y017556D01*
X011345Y017556D01*
X011308Y017519D01*
X011308Y017445D01*
X011345Y017409D01*
X011492Y017335D02*
X011529Y017298D01*
X011529Y017224D01*
X011492Y017188D01*
X011487Y017877D02*
X011340Y017877D01*
X011303Y017913D01*
X011303Y017987D01*
X011340Y018024D01*
X011487Y017877D01*
X011523Y017913D01*
X011523Y017987D01*
X011487Y018024D01*
X011340Y018024D01*
X011340Y018208D02*
X011303Y018245D01*
X011303Y018318D01*
X011340Y018355D01*
X011487Y018208D01*
X011523Y018245D01*
X011523Y018318D01*
X011487Y018355D01*
X011340Y018355D01*
X011377Y018429D02*
X011303Y018503D01*
X011523Y018503D01*
X011523Y018576D02*
X011523Y018429D01*
X011487Y018208D02*
X011340Y018208D01*
X011487Y018134D02*
X011523Y018134D01*
X011523Y018098D01*
X011487Y018098D01*
X011487Y018134D01*
X011487Y018650D02*
X011377Y018650D01*
X011487Y018650D02*
X011523Y018687D01*
X011523Y018797D01*
X011377Y018797D01*
X011413Y018871D02*
X011413Y018945D01*
X011303Y018871D02*
X011303Y019018D01*
X011303Y018871D02*
X011523Y018871D01*
X010744Y019341D02*
X010670Y019341D01*
X010596Y019341D02*
X010596Y019267D01*
X010559Y019231D01*
X010449Y019231D01*
X010449Y019157D02*
X010449Y019377D01*
X010559Y019377D01*
X010596Y019341D01*
X010670Y019231D02*
X010670Y019451D01*
X010817Y019451D01*
X010375Y019414D02*
X010375Y019267D01*
X010338Y019231D01*
X010265Y019231D01*
X010228Y019267D01*
X010375Y019414D01*
X010338Y019451D01*
X010265Y019451D01*
X010228Y019414D01*
X010228Y019267D01*
X010154Y019267D02*
X010154Y019414D01*
X010007Y019267D01*
X010044Y019231D01*
X010117Y019231D01*
X010154Y019267D01*
X010007Y019267D02*
X010007Y019414D01*
X010044Y019451D01*
X010117Y019451D01*
X010154Y019414D01*
X009933Y019231D02*
X009786Y019231D01*
X009860Y019231D02*
X009860Y019451D01*
X009786Y019377D01*
X009367Y019409D02*
X009220Y019262D01*
X009220Y019225D01*
X009146Y019262D02*
X009109Y019225D01*
X009036Y019225D01*
X008999Y019262D01*
X008999Y019409D01*
X009036Y019445D01*
X009109Y019445D01*
X009146Y019409D01*
X009220Y019445D02*
X009367Y019445D01*
X009367Y019409D01*
X009367Y018658D02*
X009220Y018658D01*
X009220Y018548D01*
X009293Y018585D01*
X009330Y018585D01*
X009367Y018548D01*
X009367Y018475D01*
X009330Y018438D01*
X009257Y018438D01*
X009220Y018475D01*
X009146Y018438D02*
X009072Y018511D01*
X009109Y018511D02*
X008999Y018511D01*
X008999Y018438D02*
X008999Y018658D01*
X009109Y018658D01*
X009146Y018621D01*
X009146Y018548D01*
X009109Y018511D01*
X009786Y018443D02*
X009933Y018590D01*
X009933Y018627D01*
X009897Y018663D01*
X009823Y018663D01*
X009786Y018627D01*
X009786Y018443D02*
X009933Y018443D01*
X010007Y018480D02*
X010154Y018627D01*
X010154Y018480D01*
X010117Y018443D01*
X010044Y018443D01*
X010007Y018480D01*
X010007Y018627D01*
X010044Y018663D01*
X010117Y018663D01*
X010154Y018627D01*
X010228Y018663D02*
X010228Y018443D01*
X010228Y018517D02*
X010338Y018590D01*
X010228Y018517D02*
X010338Y018443D01*
X011492Y013890D02*
X011529Y013853D01*
X011529Y013780D01*
X011492Y013743D01*
X011345Y013743D01*
X010441Y007061D02*
X010367Y006951D01*
X010294Y007061D01*
X010220Y006951D02*
X010441Y006951D01*
X010404Y006876D02*
X010441Y006840D01*
X010441Y006766D01*
X010404Y006730D01*
X010257Y006876D01*
X010404Y006876D01*
X010404Y006730D02*
X010257Y006730D01*
X010220Y006766D01*
X010220Y006840D01*
X010257Y006876D01*
X010441Y006655D02*
X010441Y006509D01*
X010441Y006582D02*
X010220Y006582D01*
X010294Y006509D01*
X010226Y006212D02*
X010262Y006138D01*
X010336Y006065D01*
X010336Y006175D01*
X010373Y006212D01*
X010409Y006212D01*
X010446Y006175D01*
X010446Y006102D01*
X010409Y006065D01*
X010336Y006065D01*
X010446Y005991D02*
X010446Y005844D01*
X010446Y005917D02*
X010226Y005917D01*
X010299Y005844D01*
X010262Y005770D02*
X010336Y005770D01*
X010373Y005733D01*
X010373Y005623D01*
X010446Y005623D02*
X010226Y005623D01*
X010226Y005733D01*
X010262Y005770D01*
X010373Y005696D02*
X010446Y005770D01*
X010007Y001685D02*
X010007Y001465D01*
X010007Y001538D02*
X010117Y001612D01*
X010007Y001538D02*
X010117Y001465D01*
X009933Y001465D02*
X009786Y001465D01*
X009860Y001465D02*
X009860Y001685D01*
X009786Y001612D01*
X009588Y001643D02*
X009588Y001680D01*
X009441Y001680D01*
X009293Y001680D02*
X009293Y001460D01*
X009220Y001460D02*
X009367Y001460D01*
X009441Y001460D02*
X009441Y001496D01*
X009588Y001643D01*
X009293Y001680D02*
X009220Y001606D01*
X009146Y001570D02*
X009109Y001533D01*
X008999Y001533D01*
X009072Y001533D02*
X009146Y001460D01*
X009146Y001570D02*
X009146Y001643D01*
X009109Y001680D01*
X008999Y001680D01*
X008999Y001460D01*
X010968Y001460D02*
X011078Y001460D01*
X011114Y001496D01*
X011114Y001643D01*
X011078Y001680D01*
X010968Y001680D01*
X010968Y001460D01*
X011189Y001460D02*
X011335Y001606D01*
X011335Y001643D01*
X011299Y001680D01*
X011225Y001680D01*
X011189Y001643D01*
X011189Y001460D02*
X011335Y001460D01*
X002732Y018467D02*
X002585Y018467D01*
X002549Y018504D01*
X002549Y018577D01*
X002585Y018614D01*
X002659Y018688D02*
X002659Y018835D01*
X002769Y018798D02*
X002549Y018798D01*
X002659Y018688D01*
X002732Y018614D02*
X002769Y018577D01*
X002769Y018504D01*
X002732Y018467D01*
X002304Y018984D02*
X002304Y019205D01*
X002231Y019131D01*
X002158Y019205D01*
X002158Y018984D01*
X002083Y019021D02*
X002047Y018984D01*
X001973Y018984D01*
X001937Y019021D01*
X002083Y019168D01*
X002083Y019021D01*
X001937Y019021D02*
X001937Y019168D01*
X001973Y019205D01*
X002047Y019205D01*
X002083Y019168D01*
X001862Y018984D02*
X001716Y018984D01*
X001789Y018984D02*
X001789Y019205D01*
X001716Y019131D01*
X001493Y019126D02*
X001493Y019163D01*
X001456Y019199D01*
X001383Y019199D01*
X001346Y019163D01*
X001272Y019163D02*
X001235Y019199D01*
X001125Y019199D01*
X001125Y018979D01*
X001125Y019053D02*
X001235Y019053D01*
X001272Y019089D01*
X001272Y019163D01*
X001198Y019053D02*
X001272Y018979D01*
X001346Y018979D02*
X001493Y019126D01*
X001493Y018979D02*
X001346Y018979D01*
X002543Y019328D02*
X002764Y019328D01*
X002764Y019255D02*
X002764Y019402D01*
X002727Y019476D02*
X002764Y019512D01*
X002764Y019623D01*
X002617Y019623D01*
X002653Y019697D02*
X002653Y019770D01*
X002543Y019697D02*
X002543Y019843D01*
X002543Y019697D02*
X002764Y019697D01*
X002727Y019476D02*
X002617Y019476D01*
X002543Y019328D02*
X002617Y019255D01*
X006087Y019585D02*
X006087Y019732D01*
X006197Y019659D02*
X006197Y019585D01*
X006160Y019511D02*
X006307Y019511D01*
X006307Y019401D01*
X006270Y019364D01*
X006160Y019364D01*
X006087Y019585D02*
X006307Y019585D01*
D15*
X008438Y005810D02*
X008438Y005574D01*
X008911Y005574D02*
X008911Y005810D01*
M02*
