G75*
%MOIN*%
%OFA0B0*%
%FSLAX24Y24*%
%IPPOS*%
%LPD*%
%AMOC8*
5,1,8,0,0,1.08239X$1,22.5*
%
%ADD10C,0.0780*%
%ADD11C,0.0840*%
%ADD12C,0.0820*%
%ADD13C,0.0370*%
D10*
X001785Y001017D03*
X002785Y000917D03*
X003785Y001017D03*
X004785Y000917D03*
X005785Y001017D03*
X006785Y000917D03*
D11*
X011282Y003708D03*
X011382Y002708D03*
X011382Y004708D03*
X011282Y005708D03*
X011382Y006708D03*
D12*
X007198Y005298D03*
X003851Y005298D03*
D13*
X003113Y003920D03*
X002474Y005101D03*
X000702Y005101D03*
X000505Y008251D03*
X000800Y008841D03*
X001096Y008251D03*
X001686Y008251D03*
X002277Y008251D03*
X002572Y008841D03*
X002867Y008251D03*
X003458Y008251D03*
X004048Y008251D03*
X004639Y008251D03*
X005229Y008251D03*
X005820Y008251D03*
X006411Y008251D03*
X007001Y008251D03*
X007592Y008251D03*
X008182Y008251D03*
X008773Y008251D03*
X008773Y007463D03*
X009363Y007463D03*
X009363Y008251D03*
X009954Y008251D03*
X010544Y008251D03*
X011135Y008251D03*
X011725Y008251D03*
X012119Y009629D03*
X010938Y013369D03*
X011725Y014747D03*
X008035Y011056D03*
X007099Y012680D03*
X007099Y013861D03*
X004836Y016125D03*
X003753Y014747D03*
X003261Y013271D03*
X004442Y012641D03*
X003261Y011056D03*
X003950Y010515D03*
X004442Y010023D03*
X006460Y010072D03*
X006017Y005495D03*
X005525Y005200D03*
X000800Y011597D03*
X000800Y012680D03*
X000800Y017700D03*
X001981Y017700D03*
X001686Y019767D03*
X000997Y019767D03*
X004786Y020062D03*
X005722Y019570D03*
M02*
