G75*
%MOIN*%
%OFA0B0*%
%FSLAX24Y24*%
%IPPOS*%
%LPD*%
%AMOC8*
5,1,8,0,0,1.08239X$1,22.5*
%
%ADD10R,0.1655X0.0474*%
%ADD11C,0.0178*%
%ADD12C,0.0780*%
%ADD13C,0.0158*%
%ADD14R,0.0513X0.0474*%
%ADD15R,0.0474X0.0513*%
%ADD16C,0.0109*%
%ADD17C,0.0840*%
%ADD18R,0.0552X0.0395*%
%ADD19C,0.0820*%
%ADD20C,0.0370*%
D10*
X001466Y014940D03*
X001466Y016908D03*
D11*
X004485Y016812D02*
X004663Y016812D01*
X004485Y016812D02*
X004485Y017500D01*
X004663Y017500D01*
X004663Y016812D01*
X004663Y016989D02*
X004485Y016989D01*
X004485Y017166D02*
X004663Y017166D01*
X004663Y017343D02*
X004485Y017343D01*
X004985Y016812D02*
X005163Y016812D01*
X004985Y016812D02*
X004985Y017500D01*
X005163Y017500D01*
X005163Y016812D01*
X005163Y016989D02*
X004985Y016989D01*
X004985Y017166D02*
X005163Y017166D01*
X005163Y017343D02*
X004985Y017343D01*
X005485Y016812D02*
X005663Y016812D01*
X005485Y016812D02*
X005485Y017500D01*
X005663Y017500D01*
X005663Y016812D01*
X005663Y016989D02*
X005485Y016989D01*
X005485Y017166D02*
X005663Y017166D01*
X005663Y017343D02*
X005485Y017343D01*
X005985Y016812D02*
X006163Y016812D01*
X005985Y016812D02*
X005985Y017500D01*
X006163Y017500D01*
X006163Y016812D01*
X006163Y016989D02*
X005985Y016989D01*
X005985Y017166D02*
X006163Y017166D01*
X006163Y017343D02*
X005985Y017343D01*
X005985Y014419D02*
X006163Y014419D01*
X005985Y014419D02*
X005985Y015107D01*
X006163Y015107D01*
X006163Y014419D01*
X006163Y014596D02*
X005985Y014596D01*
X005985Y014773D02*
X006163Y014773D01*
X006163Y014950D02*
X005985Y014950D01*
X005663Y014419D02*
X005485Y014419D01*
X005485Y015107D01*
X005663Y015107D01*
X005663Y014419D01*
X005663Y014596D02*
X005485Y014596D01*
X005485Y014773D02*
X005663Y014773D01*
X005663Y014950D02*
X005485Y014950D01*
X005163Y014419D02*
X004985Y014419D01*
X004985Y015107D01*
X005163Y015107D01*
X005163Y014419D01*
X005163Y014596D02*
X004985Y014596D01*
X004985Y014773D02*
X005163Y014773D01*
X005163Y014950D02*
X004985Y014950D01*
X004663Y014419D02*
X004485Y014419D01*
X004485Y015107D01*
X004663Y015107D01*
X004663Y014419D01*
X004663Y014596D02*
X004485Y014596D01*
X004485Y014773D02*
X004663Y014773D01*
X004663Y014950D02*
X004485Y014950D01*
X007526Y011649D02*
X007526Y011471D01*
X006838Y011471D01*
X006838Y011649D01*
X007526Y011649D01*
X007526Y011648D02*
X006838Y011648D01*
X007526Y011149D02*
X007526Y010971D01*
X006838Y010971D01*
X006838Y011149D01*
X007526Y011149D01*
X007526Y011148D02*
X006838Y011148D01*
X007526Y010649D02*
X007526Y010471D01*
X006838Y010471D01*
X006838Y010649D01*
X007526Y010649D01*
X007526Y010648D02*
X006838Y010648D01*
X007526Y010149D02*
X007526Y009971D01*
X006838Y009971D01*
X006838Y010149D01*
X007526Y010149D01*
X007526Y010148D02*
X006838Y010148D01*
X009920Y010149D02*
X009920Y009971D01*
X009232Y009971D01*
X009232Y010149D01*
X009920Y010149D01*
X009920Y010148D02*
X009232Y010148D01*
X009920Y010471D02*
X009920Y010649D01*
X009920Y010471D02*
X009232Y010471D01*
X009232Y010649D01*
X009920Y010649D01*
X009920Y010648D02*
X009232Y010648D01*
X009920Y010971D02*
X009920Y011149D01*
X009920Y010971D02*
X009232Y010971D01*
X009232Y011149D01*
X009920Y011149D01*
X009920Y011148D02*
X009232Y011148D01*
X009920Y011471D02*
X009920Y011649D01*
X009920Y011471D02*
X009232Y011471D01*
X009232Y011649D01*
X009920Y011649D01*
X009920Y011648D02*
X009232Y011648D01*
X009233Y015097D02*
X009411Y015097D01*
X009411Y014409D01*
X009233Y014409D01*
X009233Y015097D01*
X009233Y014586D02*
X009411Y014586D01*
X009411Y014763D02*
X009233Y014763D01*
X009233Y014940D02*
X009411Y014940D01*
X009733Y015097D02*
X009911Y015097D01*
X009911Y014409D01*
X009733Y014409D01*
X009733Y015097D01*
X009733Y014586D02*
X009911Y014586D01*
X009911Y014763D02*
X009733Y014763D01*
X009733Y014940D02*
X009911Y014940D01*
X008911Y015097D02*
X008733Y015097D01*
X008911Y015097D02*
X008911Y014409D01*
X008733Y014409D01*
X008733Y015097D01*
X008733Y014586D02*
X008911Y014586D01*
X008911Y014763D02*
X008733Y014763D01*
X008733Y014940D02*
X008911Y014940D01*
X008411Y015097D02*
X008233Y015097D01*
X008411Y015097D02*
X008411Y014409D01*
X008233Y014409D01*
X008233Y015097D01*
X008233Y014586D02*
X008411Y014586D01*
X008411Y014763D02*
X008233Y014763D01*
X008233Y014940D02*
X008411Y014940D01*
X008411Y017491D02*
X008233Y017491D01*
X008411Y017491D02*
X008411Y016803D01*
X008233Y016803D01*
X008233Y017491D01*
X008233Y016980D02*
X008411Y016980D01*
X008411Y017157D02*
X008233Y017157D01*
X008233Y017334D02*
X008411Y017334D01*
X008733Y017491D02*
X008911Y017491D01*
X008911Y016803D01*
X008733Y016803D01*
X008733Y017491D01*
X008733Y016980D02*
X008911Y016980D01*
X008911Y017157D02*
X008733Y017157D01*
X008733Y017334D02*
X008911Y017334D01*
X009233Y017491D02*
X009411Y017491D01*
X009411Y016803D01*
X009233Y016803D01*
X009233Y017491D01*
X009233Y016980D02*
X009411Y016980D01*
X009411Y017157D02*
X009233Y017157D01*
X009233Y017334D02*
X009411Y017334D01*
X009733Y017491D02*
X009911Y017491D01*
X009911Y016803D01*
X009733Y016803D01*
X009733Y017491D01*
X009733Y016980D02*
X009911Y016980D01*
X009911Y017157D02*
X009733Y017157D01*
X009733Y017334D02*
X009911Y017334D01*
D12*
X001785Y001017D03*
X002785Y000917D03*
X003785Y001017D03*
X004785Y000917D03*
X005785Y001017D03*
X006785Y000917D03*
D13*
X006574Y002479D02*
X006416Y002479D01*
X006416Y003187D01*
X006574Y003187D01*
X006574Y002479D01*
X006574Y002636D02*
X006416Y002636D01*
X006416Y002793D02*
X006574Y002793D01*
X006574Y002950D02*
X006416Y002950D01*
X006416Y003107D02*
X006574Y003107D01*
X006074Y002479D02*
X005916Y002479D01*
X005916Y003187D01*
X006074Y003187D01*
X006074Y002479D01*
X006074Y002636D02*
X005916Y002636D01*
X005916Y002793D02*
X006074Y002793D01*
X006074Y002950D02*
X005916Y002950D01*
X005916Y003107D02*
X006074Y003107D01*
X005574Y002479D02*
X005416Y002479D01*
X005416Y003187D01*
X005574Y003187D01*
X005574Y002479D01*
X005574Y002636D02*
X005416Y002636D01*
X005416Y002793D02*
X005574Y002793D01*
X005574Y002950D02*
X005416Y002950D01*
X005416Y003107D02*
X005574Y003107D01*
X005074Y002479D02*
X004916Y002479D01*
X004916Y003187D01*
X005074Y003187D01*
X005074Y002479D01*
X005074Y002636D02*
X004916Y002636D01*
X004916Y002793D02*
X005074Y002793D01*
X005074Y002950D02*
X004916Y002950D01*
X004916Y003107D02*
X005074Y003107D01*
X004574Y002479D02*
X004416Y002479D01*
X004416Y003187D01*
X004574Y003187D01*
X004574Y002479D01*
X004574Y002636D02*
X004416Y002636D01*
X004416Y002793D02*
X004574Y002793D01*
X004574Y002950D02*
X004416Y002950D01*
X004416Y003107D02*
X004574Y003107D01*
X004074Y002479D02*
X003916Y002479D01*
X003916Y003187D01*
X004074Y003187D01*
X004074Y002479D01*
X004074Y002636D02*
X003916Y002636D01*
X003916Y002793D02*
X004074Y002793D01*
X004074Y002950D02*
X003916Y002950D01*
X003916Y003107D02*
X004074Y003107D01*
X003574Y002479D02*
X003416Y002479D01*
X003416Y003187D01*
X003574Y003187D01*
X003574Y002479D01*
X003574Y002636D02*
X003416Y002636D01*
X003416Y002793D02*
X003574Y002793D01*
X003574Y002950D02*
X003416Y002950D01*
X003416Y003107D02*
X003574Y003107D01*
X003074Y002479D02*
X002916Y002479D01*
X002916Y003187D01*
X003074Y003187D01*
X003074Y002479D01*
X003074Y002636D02*
X002916Y002636D01*
X002916Y002793D02*
X003074Y002793D01*
X003074Y002950D02*
X002916Y002950D01*
X002916Y003107D02*
X003074Y003107D01*
X002574Y002479D02*
X002416Y002479D01*
X002416Y003187D01*
X002574Y003187D01*
X002574Y002479D01*
X002574Y002636D02*
X002416Y002636D01*
X002416Y002793D02*
X002574Y002793D01*
X002574Y002950D02*
X002416Y002950D01*
X002416Y003107D02*
X002574Y003107D01*
X002074Y002479D02*
X001916Y002479D01*
X001916Y003187D01*
X002074Y003187D01*
X002074Y002479D01*
X002074Y002636D02*
X001916Y002636D01*
X001916Y002793D02*
X002074Y002793D01*
X002074Y002950D02*
X001916Y002950D01*
X001916Y003107D02*
X002074Y003107D01*
X002074Y006229D02*
X001916Y006229D01*
X001916Y006937D01*
X002074Y006937D01*
X002074Y006229D01*
X002074Y006386D02*
X001916Y006386D01*
X001916Y006543D02*
X002074Y006543D01*
X002074Y006700D02*
X001916Y006700D01*
X001916Y006857D02*
X002074Y006857D01*
X002416Y006229D02*
X002574Y006229D01*
X002416Y006229D02*
X002416Y006937D01*
X002574Y006937D01*
X002574Y006229D01*
X002574Y006386D02*
X002416Y006386D01*
X002416Y006543D02*
X002574Y006543D01*
X002574Y006700D02*
X002416Y006700D01*
X002416Y006857D02*
X002574Y006857D01*
X002916Y006229D02*
X003074Y006229D01*
X002916Y006229D02*
X002916Y006937D01*
X003074Y006937D01*
X003074Y006229D01*
X003074Y006386D02*
X002916Y006386D01*
X002916Y006543D02*
X003074Y006543D01*
X003074Y006700D02*
X002916Y006700D01*
X002916Y006857D02*
X003074Y006857D01*
X003416Y006229D02*
X003574Y006229D01*
X003416Y006229D02*
X003416Y006937D01*
X003574Y006937D01*
X003574Y006229D01*
X003574Y006386D02*
X003416Y006386D01*
X003416Y006543D02*
X003574Y006543D01*
X003574Y006700D02*
X003416Y006700D01*
X003416Y006857D02*
X003574Y006857D01*
X003916Y006229D02*
X004074Y006229D01*
X003916Y006229D02*
X003916Y006937D01*
X004074Y006937D01*
X004074Y006229D01*
X004074Y006386D02*
X003916Y006386D01*
X003916Y006543D02*
X004074Y006543D01*
X004074Y006700D02*
X003916Y006700D01*
X003916Y006857D02*
X004074Y006857D01*
X004416Y006229D02*
X004574Y006229D01*
X004416Y006229D02*
X004416Y006937D01*
X004574Y006937D01*
X004574Y006229D01*
X004574Y006386D02*
X004416Y006386D01*
X004416Y006543D02*
X004574Y006543D01*
X004574Y006700D02*
X004416Y006700D01*
X004416Y006857D02*
X004574Y006857D01*
X004916Y006229D02*
X005074Y006229D01*
X004916Y006229D02*
X004916Y006937D01*
X005074Y006937D01*
X005074Y006229D01*
X005074Y006386D02*
X004916Y006386D01*
X004916Y006543D02*
X005074Y006543D01*
X005074Y006700D02*
X004916Y006700D01*
X004916Y006857D02*
X005074Y006857D01*
X005416Y006229D02*
X005574Y006229D01*
X005416Y006229D02*
X005416Y006937D01*
X005574Y006937D01*
X005574Y006229D01*
X005574Y006386D02*
X005416Y006386D01*
X005416Y006543D02*
X005574Y006543D01*
X005574Y006700D02*
X005416Y006700D01*
X005416Y006857D02*
X005574Y006857D01*
X005916Y006229D02*
X006074Y006229D01*
X005916Y006229D02*
X005916Y006937D01*
X006074Y006937D01*
X006074Y006229D01*
X006074Y006386D02*
X005916Y006386D01*
X005916Y006543D02*
X006074Y006543D01*
X006074Y006700D02*
X005916Y006700D01*
X005916Y006857D02*
X006074Y006857D01*
X006416Y006229D02*
X006574Y006229D01*
X006416Y006229D02*
X006416Y006937D01*
X006574Y006937D01*
X006574Y006229D01*
X006574Y006386D02*
X006416Y006386D01*
X006416Y006543D02*
X006574Y006543D01*
X006574Y006700D02*
X006416Y006700D01*
X006416Y006857D02*
X006574Y006857D01*
D14*
X003940Y010023D03*
X003271Y010023D03*
X003271Y011597D03*
X003940Y011597D03*
X003940Y012631D03*
X003271Y012631D03*
X002464Y012631D03*
X002414Y011597D03*
X001745Y011597D03*
X001794Y012631D03*
X002828Y017109D03*
X003497Y017109D03*
X004107Y018684D03*
X004107Y019570D03*
X004777Y019570D03*
X004777Y018684D03*
X002021Y018684D03*
X001351Y018684D03*
X008733Y013713D03*
X008733Y012926D03*
X009403Y012926D03*
X009403Y013713D03*
X009225Y018143D03*
X009225Y018930D03*
X009895Y018930D03*
X009895Y018143D03*
X009895Y001164D03*
X009225Y001164D03*
X011145Y001164D03*
X011912Y001164D03*
D15*
X009954Y005948D03*
X009954Y006617D03*
X010741Y009589D03*
X010741Y010259D03*
X010741Y011066D03*
X010741Y011735D03*
X011529Y011735D03*
X011529Y011066D03*
X011529Y010259D03*
X011529Y009589D03*
X010938Y014068D03*
X010938Y014737D03*
X010938Y015839D03*
X010938Y016509D03*
X010938Y017414D03*
X010938Y018084D03*
X007198Y018133D03*
X007198Y017463D03*
X007198Y015426D03*
X007198Y014757D03*
X005229Y013261D03*
X005229Y012591D03*
X005229Y011538D03*
X005229Y010869D03*
X006017Y010869D03*
X006017Y011538D03*
X003556Y015593D03*
X003556Y016263D03*
X002769Y016263D03*
X002769Y015593D03*
X003064Y018694D03*
X003064Y019363D03*
X005722Y019019D03*
X005722Y018349D03*
X000722Y006587D03*
X000722Y005918D03*
D16*
X001444Y009623D02*
X001444Y009989D01*
X001554Y009989D01*
X001554Y009623D01*
X001444Y009623D01*
X001444Y009731D02*
X001554Y009731D01*
X001554Y009839D02*
X001444Y009839D01*
X001444Y009947D02*
X001554Y009947D01*
X001700Y009989D02*
X001700Y009623D01*
X001700Y009989D02*
X001810Y009989D01*
X001810Y009623D01*
X001700Y009623D01*
X001700Y009731D02*
X001810Y009731D01*
X001810Y009839D02*
X001700Y009839D01*
X001700Y009947D02*
X001810Y009947D01*
X001956Y009989D02*
X001956Y009623D01*
X001956Y009989D02*
X002066Y009989D01*
X002066Y009623D01*
X001956Y009623D01*
X001956Y009731D02*
X002066Y009731D01*
X002066Y009839D02*
X001956Y009839D01*
X001956Y009947D02*
X002066Y009947D01*
X002212Y009989D02*
X002212Y009623D01*
X002212Y009989D02*
X002322Y009989D01*
X002322Y009623D01*
X002212Y009623D01*
X002212Y009731D02*
X002322Y009731D01*
X002322Y009839D02*
X002212Y009839D01*
X002212Y009947D02*
X002322Y009947D01*
X002212Y010647D02*
X002212Y011013D01*
X002322Y011013D01*
X002322Y010647D01*
X002212Y010647D01*
X002212Y010755D02*
X002322Y010755D01*
X002322Y010863D02*
X002212Y010863D01*
X002212Y010971D02*
X002322Y010971D01*
X001956Y011013D02*
X001956Y010647D01*
X001956Y011013D02*
X002066Y011013D01*
X002066Y010647D01*
X001956Y010647D01*
X001956Y010755D02*
X002066Y010755D01*
X002066Y010863D02*
X001956Y010863D01*
X001956Y010971D02*
X002066Y010971D01*
X001700Y011013D02*
X001700Y010647D01*
X001700Y011013D02*
X001810Y011013D01*
X001810Y010647D01*
X001700Y010647D01*
X001700Y010755D02*
X001810Y010755D01*
X001810Y010863D02*
X001700Y010863D01*
X001700Y010971D02*
X001810Y010971D01*
X001444Y011013D02*
X001444Y010647D01*
X001444Y011013D02*
X001554Y011013D01*
X001554Y010647D01*
X001444Y010647D01*
X001444Y010755D02*
X001554Y010755D01*
X001554Y010863D02*
X001444Y010863D01*
X001444Y010971D02*
X001554Y010971D01*
D17*
X011282Y005708D03*
X011382Y006708D03*
X011382Y004708D03*
X011282Y003708D03*
X011382Y002708D03*
D18*
X008674Y005337D03*
X008674Y006046D03*
D19*
X007198Y005298D03*
X003851Y005298D03*
D20*
X003113Y003920D03*
X002474Y005101D03*
X000702Y005101D03*
X000505Y008251D03*
X000800Y008841D03*
X001096Y008251D03*
X001686Y008251D03*
X002277Y008251D03*
X002572Y008841D03*
X002867Y008251D03*
X003458Y008251D03*
X004048Y008251D03*
X004639Y008251D03*
X005229Y008251D03*
X005820Y008251D03*
X006411Y008251D03*
X007001Y008251D03*
X007592Y008251D03*
X008182Y008251D03*
X008773Y008251D03*
X008773Y007463D03*
X009363Y007463D03*
X009363Y008251D03*
X009954Y008251D03*
X010544Y008251D03*
X011135Y008251D03*
X011725Y008251D03*
X012119Y009629D03*
X010938Y013369D03*
X011725Y014747D03*
X008035Y011056D03*
X007099Y012680D03*
X007099Y013861D03*
X004836Y016125D03*
X003753Y014747D03*
X003261Y013271D03*
X004442Y012641D03*
X003261Y011056D03*
X003950Y010515D03*
X004442Y010023D03*
X006460Y010072D03*
X006017Y005495D03*
X005525Y005200D03*
X000800Y011597D03*
X000800Y012680D03*
X000800Y017700D03*
X001981Y017700D03*
X001686Y019767D03*
X000997Y019767D03*
X004786Y020062D03*
X005722Y019570D03*
M02*
